<svg xmlns="http://www.w3.org/2000/svg" xmlns:xlink="http://www.w3.org/1999/xlink" contentStyleType="text/css" data-diagram-type="SEQUENCE" height="2409px" preserveAspectRatio="none" style="width:1434px;height:2409px;background:#FFFFFF;" version="1.1" viewBox="0 0 1434 2409" width="1434px" zoomAndPan="magnify"><defs/><g><rect fill="#F3E5F5" height="2390.9121" style="stroke:#181818;stroke-width:0.5;" width="98.9922" x="357.5518" y="6"/><text fill="#000000" font-family="serif" font-size="12" font-weight="bold" lengthAdjust="spacing" textLength="44.6602" x="383.2178" y="17.2031">External</text><rect fill="#E1F5FF" height="2390.9121" style="stroke:#181818;stroke-width:0.5;" width="450.4072" x="753.8486" y="6"/><text fill="#000000" font-family="serif" font-size="12" font-weight="bold" lengthAdjust="spacing" textLength="44.6777" x="955.2134" y="17.2031">Backend</text><g><title>User</title><rect fill="#FFFFFF" height="30" style="stroke:#181818;stroke-width:1;" width="10" x="19.3291" y="393.7871"/></g><g><title>AuthPage</title><rect fill="#FFFFFF" height="71.5977" style="stroke:#181818;stroke-width:1;" width="10" x="231.7783" y="150.3965"/></g><g><title>AuthPage</title><rect fill="#FFFFFF" height="1880.9297" style="stroke:#181818;stroke-width:1;" width="10" x="231.7783" y="512.9824"/></g><g><title>AuthPage</title><rect fill="#FFFFFF" height="28" style="stroke:#181818;stroke-width:1;" width="10" x="236.7783" y="2268.5156"/></g><g><title>OAuth Provider</title><rect fill="#FFFFFF" height="2201.918" style="stroke:#181818;stroke-width:1;" width="10" x="402.0479" y="191.9941"/></g><g><title>OAuth Provider</title><rect fill="#FFFFFF" height="195.793" style="stroke:#181818;stroke-width:1;" width="10" x="407.0479" y="347.1895"/></g><g><title>OAuth Provider</title><rect fill="#FFFFFF" height="41.5977" style="stroke:#181818;stroke-width:1;" width="10" x="407.0479" y="1012.9648"/></g><g><title>authAPI</title><rect fill="#FFFFFF" height="1544.5391" style="stroke:#181818;stroke-width:1;" width="10" x="534.0342" y="646.3789"/></g><g><title>authAPI</title><rect fill="#FFFFFF" height="28" style="stroke:#181818;stroke-width:1;" width="10" x="539.0342" y="1864.9297"/></g><g><title>apiClient</title><rect fill="#FFFFFF" height="1141.1543" style="stroke:#181818;stroke-width:1;" width="10" x="668.6865" y="687.9766"/></g><g><title>Auth Endpoints</title><rect fill="#FFFFFF" height="1037.959" style="stroke:#181818;stroke-width:1;" width="10" x="797.6826" y="749.5742"/></g><g><title>Auth Endpoints</title><rect fill="#FFFFFF" height="28" style="stroke:#181818;stroke-width:1;" width="10" x="802.6826" y="819.1719"/></g><g><title>Auth Endpoints</title><rect fill="#FFFFFF" height="63.7988" style="stroke:#181818;stroke-width:1;" width="10" x="802.6826" y="1222.3555"/></g><g><title>Auth Endpoints</title><rect fill="#FFFFFF" height="28" style="stroke:#181818;stroke-width:1;" width="10" x="807.6826" y="1258.1543"/></g><g><title>Auth Endpoints</title><rect fill="#FFFFFF" height="75.3965" style="stroke:#181818;stroke-width:1;" width="10" x="802.6826" y="1364.5508"/></g><g><title>OAuthVerification</title><rect fill="#FFFFFF" height="116.9941" style="stroke:#181818;stroke-width:1;" width="10" x="987.6338" y="937.5684"/></g><g><title>Database</title><rect fill="#FFFFFF" height="330.7871" style="stroke:#181818;stroke-width:1;" width="10" x="1078.9404" y="1124.1602"/></g><g><title>Database</title><rect fill="#FFFFFF" height="75.3965" style="stroke:#181818;stroke-width:1;" width="10" x="1083.9404" y="1364.5508"/></g><g><title>SecurityUtils</title><rect fill="#FFFFFF" height="173.793" style="stroke:#181818;stroke-width:1;" width="10" x="1156.5918" y="1530.3438"/></g><g><title>SecurityUtils</title><rect fill="#FFFFFF" height="28" style="stroke:#181818;stroke-width:1;" width="10" x="1161.5918" y="1627.5391"/></g><g><title>authStore</title><rect fill="#FFFFFF" height="125.1953" style="stroke:#181818;stroke-width:1;" width="10" x="1271.252" y="1983.3262"/></g><g><title>authStore</title><rect fill="#FFFFFF" height="28" style="stroke:#181818;stroke-width:1;" width="10" x="1276.252" y="2080.5215"/></g><rect fill="none" height="261.1895" style="stroke:#000000;stroke-width:1.5;" width="375.0791" x="747.8486" y="1186.7578"/><g><title>User</title><rect fill="#000000" fill-opacity="0.00000" height="2324.1133" width="8" x="20.3291" y="78.7988"/><line style="stroke:#181818;stroke-width:0.5;stroke-dasharray:5,5;" x1="24" x2="24" y1="78.7988" y2="2402.9121"/></g><g><title>AuthPage</title><rect fill="#000000" fill-opacity="0.00000" height="2324.1133" width="8" x="232.7783" y="78.7988"/><line style="stroke:#181818;stroke-width:0.5;stroke-dasharray:5,5;" x1="236.1152" x2="236.1152" y1="78.7988" y2="2402.9121"/></g><g><title>OAuth Provider</title><rect fill="#000000" fill-opacity="0.00000" height="2324.1133" width="8" x="403.0479" y="78.7988"/><line style="stroke:#181818;stroke-width:0.5;stroke-dasharray:5,5;" x1="406.5518" x2="406.5518" y1="78.7988" y2="2402.9121"/></g><g><title>authAPI</title><rect fill="#000000" fill-opacity="0.00000" height="2324.1133" width="8" x="535.0342" y="78.7988"/><line style="stroke:#181818;stroke-width:0.5;stroke-dasharray:5,5;" x1="538.0449" x2="538.0449" y1="78.7988" y2="2402.9121"/></g><g><title>apiClient</title><rect fill="#000000" fill-opacity="0.00000" height="2324.1133" width="8" x="669.6865" y="78.7988"/><line style="stroke:#181818;stroke-width:0.5;stroke-dasharray:5,5;" x1="672.6973" x2="672.6973" y1="78.7988" y2="2402.9121"/></g><g><title>Auth Endpoints</title><rect fill="#000000" fill-opacity="0.00000" height="2324.1133" width="8" x="798.6826" y="78.7988"/><line style="stroke:#181818;stroke-width:0.5;stroke-dasharray:5,5;" x1="801.8486" x2="801.8486" y1="78.7988" y2="2402.9121"/></g><g><title>OAuthVerification</title><rect fill="#000000" fill-opacity="0.00000" height="2324.1133" width="8" x="988.6338" y="78.7988"/><line style="stroke:#181818;stroke-width:0.5;stroke-dasharray:5,5;" x1="992.3145" x2="992.3145" y1="78.7988" y2="2402.9121"/></g><g><title>Database</title><rect fill="#000000" fill-opacity="0.00000" height="2324.1133" width="8" x="1079.9404" y="78.7988"/><line style="stroke:#181818;stroke-width:0.5;stroke-dasharray:5,5;" x1="1082.9531" x2="1082.9531" y1="78.7988" y2="2402.9121"/></g><g><title>SecurityUtils</title><rect fill="#000000" fill-opacity="0.00000" height="2324.1133" width="8" x="1157.5918" y="78.7988"/><line style="stroke:#181818;stroke-width:0.5;stroke-dasharray:5,5;" x1="1160.9277" x2="1160.9277" y1="78.7988" y2="2402.9121"/></g><g><title>authStore</title><rect fill="#000000" fill-opacity="0.00000" height="2324.1133" width="8" x="1272.252" y="78.7988"/><line style="stroke:#181818;stroke-width:0.5;stroke-dasharray:5,5;" x1="1275.2568" x2="1275.2568" y1="78.7988" y2="2402.9121"/></g><g class="participant participant-head" data-participant="User"><text fill="#000000" font-family="serif" font-size="12" lengthAdjust="spacing" textLength="22.6582" x="10" y="76.2031">User</text><ellipse cx="24.3291" cy="13.5" fill="#FFFFFF" rx="8" ry="8" style="stroke:#000000;stroke-width:0.5;"/><path d="M24.3291,21.5 L24.3291,48.5 M11.3291,29.5 L37.3291,29.5 M24.3291,48.5 L11.3291,63.5 M24.3291,48.5 L37.3291,63.5" fill="none" style="stroke:#000000;stroke-width:0.5;"/></g><g class="participant participant-head" data-participant="AuthPage"><rect fill="#E2E2F0" height="41.5977" rx="2.5" ry="2.5" style="stroke:#181818;stroke-width:0.5;" width="61.3262" x="206.1152" y="36.2012"/><text fill="#000000" font-family="serif" font-size="12" lengthAdjust="spacing" textLength="47.3262" x="213.1152" y="54.4043">AuthPage</text><text fill="#000000" font-family="serif" font-size="12" lengthAdjust="spacing" textLength="34.6523" x="219.4521" y="68.2031">&#171;page&#187;</text></g><g class="participant participant-head" data-participant="OAuthProvider"><rect fill="#E2E2F0" height="41.5977" rx="2.5" ry="2.5" style="stroke:#181818;stroke-width:0.5;" width="90.9922" x="361.5518" y="36.2012"/><text fill="#000000" font-family="serif" font-size="12" lengthAdjust="spacing" textLength="76.9922" x="368.5518" y="54.4043">OAuth Provider</text><text fill="#000000" font-family="serif" font-size="12" lengthAdjust="spacing" textLength="50.6426" x="381.7266" y="68.2031">&#171;external&#187;</text></g><g class="participant participant-head" data-participant="AuthAPI"><rect fill="#E2E2F0" height="41.5977" rx="2.5" ry="2.5" style="stroke:#181818;stroke-width:0.5;" width="59.9785" x="509.0449" y="36.2012"/><text fill="#000000" font-family="serif" font-size="12" lengthAdjust="spacing" textLength="39.9961" x="519.0361" y="54.4043">authAPI</text><text fill="#000000" font-family="serif" font-size="12" lengthAdjust="spacing" textLength="45.9785" x="516.0449" y="68.2031">&#171;service&#187;</text></g><g class="participant participant-head" data-participant="ApiClient"><rect fill="#E2E2F0" height="41.5977" rx="2.5" ry="2.5" style="stroke:#181818;stroke-width:0.5;" width="59.9785" x="643.6973" y="36.2012"/><text fill="#000000" font-family="serif" font-size="12" lengthAdjust="spacing" textLength="43.9922" x="651.6904" y="54.4043">apiClient</text><text fill="#000000" font-family="serif" font-size="12" lengthAdjust="spacing" textLength="45.9785" x="650.6973" y="68.2031">&#171;service&#187;</text></g><g class="participant participant-head" data-participant="AuthEndpoints"><rect fill="#E2E2F0" height="41.5977" rx="2.5" ry="2.5" style="stroke:#181818;stroke-width:0.5;" width="89.668" x="757.8486" y="36.2012"/><text fill="#000000" font-family="serif" font-size="12" lengthAdjust="spacing" textLength="75.668" x="764.8486" y="54.4043">Auth Endpoints</text><text fill="#000000" font-family="serif" font-size="12" lengthAdjust="spacing" textLength="58.6641" x="773.3506" y="68.2031">&#171;endpoints&#187;</text></g><g class="participant participant-head" data-participant="OAuthVerify"><rect fill="#E2E2F0" height="41.5977" rx="2.5" ry="2.5" style="stroke:#181818;stroke-width:0.5;" width="104.6387" x="940.3145" y="36.2012"/><text fill="#000000" font-family="serif" font-size="12" lengthAdjust="spacing" textLength="90.6387" x="947.3145" y="54.4043">OAuthVerification</text><text fill="#000000" font-family="serif" font-size="12" lengthAdjust="spacing" textLength="40.6699" x="972.2988" y="68.2031">&#171;utility&#187;</text></g><g class="participant participant-head" data-participant="Database"><rect fill="#E2E2F0" height="41.5977" rx="2.5" ry="2.5" style="stroke:#181818;stroke-width:0.5;" width="57.9746" x="1054.9531" y="36.2012"/><text fill="#000000" font-family="serif" font-size="12" lengthAdjust="spacing" textLength="43.9746" x="1061.9531" y="54.4043">Database</text><text fill="#000000" font-family="serif" font-size="12" lengthAdjust="spacing" textLength="24" x="1071.9404" y="68.2031">&#171;db&#187;</text></g><g class="participant participant-head" data-participant="Security"><rect fill="#E2E2F0" height="41.5977" rx="2.5" ry="2.5" style="stroke:#181818;stroke-width:0.5;" width="77.3281" x="1122.9277" y="36.2012"/><text fill="#000000" font-family="serif" font-size="12" lengthAdjust="spacing" textLength="63.3281" x="1129.9277" y="54.4043">SecurityUtils</text><text fill="#000000" font-family="serif" font-size="12" lengthAdjust="spacing" textLength="40.6699" x="1141.2568" y="68.2031">&#171;utility&#187;</text></g><g class="participant participant-head" data-participant="AuthStore"><rect fill="#E2E2F0" height="41.5977" rx="2.5" ry="2.5" style="stroke:#181818;stroke-width:0.5;" width="59.9902" x="1246.2568" y="36.2012"/><text fill="#000000" font-family="serif" font-size="12" lengthAdjust="spacing" textLength="45.9902" x="1253.2568" y="54.4043">authStore</text><text fill="#000000" font-family="serif" font-size="12" lengthAdjust="spacing" textLength="35.3262" x="1258.5889" y="68.2031">&#171;store&#187;</text></g><g><title>User</title><rect fill="#FFFFFF" height="30" style="stroke:#181818;stroke-width:1;" width="10" x="19.3291" y="393.7871"/></g><g><title>AuthPage</title><rect fill="#FFFFFF" height="71.5977" style="stroke:#181818;stroke-width:1;" width="10" x="231.7783" y="150.3965"/></g><g><title>AuthPage</title><rect fill="#FFFFFF" height="1880.9297" style="stroke:#181818;stroke-width:1;" width="10" x="231.7783" y="512.9824"/></g><g><title>AuthPage</title><rect fill="#FFFFFF" height="28" style="stroke:#181818;stroke-width:1;" width="10" x="236.7783" y="2268.5156"/></g><g><title>OAuth Provider</title><rect fill="#FFFFFF" height="2201.918" style="stroke:#181818;stroke-width:1;" width="10" x="402.0479" y="191.9941"/></g><g><title>OAuth Provider</title><rect fill="#FFFFFF" height="195.793" style="stroke:#181818;stroke-width:1;" width="10" x="407.0479" y="347.1895"/></g><g><title>OAuth Provider</title><rect fill="#FFFFFF" height="41.5977" style="stroke:#181818;stroke-width:1;" width="10" x="407.0479" y="1012.9648"/></g><g><title>authAPI</title><rect fill="#FFFFFF" height="1544.5391" style="stroke:#181818;stroke-width:1;" width="10" x="534.0342" y="646.3789"/></g><g><title>authAPI</title><rect fill="#FFFFFF" height="28" style="stroke:#181818;stroke-width:1;" width="10" x="539.0342" y="1864.9297"/></g><g><title>apiClient</title><rect fill="#FFFFFF" height="1141.1543" style="stroke:#181818;stroke-width:1;" width="10" x="668.6865" y="687.9766"/></g><g><title>Auth Endpoints</title><rect fill="#FFFFFF" height="1037.959" style="stroke:#181818;stroke-width:1;" width="10" x="797.6826" y="749.5742"/></g><g><title>Auth Endpoints</title><rect fill="#FFFFFF" height="28" style="stroke:#181818;stroke-width:1;" width="10" x="802.6826" y="819.1719"/></g><g><title>Auth Endpoints</title><rect fill="#FFFFFF" height="63.7988" style="stroke:#181818;stroke-width:1;" width="10" x="802.6826" y="1222.3555"/></g><g><title>Auth Endpoints</title><rect fill="#FFFFFF" height="28" style="stroke:#181818;stroke-width:1;" width="10" x="807.6826" y="1258.1543"/></g><g><title>Auth Endpoints</title><rect fill="#FFFFFF" height="75.3965" style="stroke:#181818;stroke-width:1;" width="10" x="802.6826" y="1364.5508"/></g><g><title>OAuthVerification</title><rect fill="#FFFFFF" height="116.9941" style="stroke:#181818;stroke-width:1;" width="10" x="987.6338" y="937.5684"/></g><g><title>Database</title><rect fill="#FFFFFF" height="330.7871" style="stroke:#181818;stroke-width:1;" width="10" x="1078.9404" y="1124.1602"/></g><g><title>Database</title><rect fill="#FFFFFF" height="75.3965" style="stroke:#181818;stroke-width:1;" width="10" x="1083.9404" y="1364.5508"/></g><g><title>SecurityUtils</title><rect fill="#FFFFFF" height="173.793" style="stroke:#181818;stroke-width:1;" width="10" x="1156.5918" y="1530.3438"/></g><g><title>SecurityUtils</title><rect fill="#FFFFFF" height="28" style="stroke:#181818;stroke-width:1;" width="10" x="1161.5918" y="1627.5391"/></g><g><title>authStore</title><rect fill="#FFFFFF" height="125.1953" style="stroke:#181818;stroke-width:1;" width="10" x="1271.252" y="1983.3262"/></g><g><title>authStore</title><rect fill="#FFFFFF" height="28" style="stroke:#181818;stroke-width:1;" width="10" x="1276.252" y="2080.5215"/></g><rect fill="#EEEEEE" height="3" style="stroke:#EEEEEE;stroke-width:1;" width="1427.2051" x="0" y="108.6982"/><line style="stroke:#000000;stroke-width:1;" x1="0" x2="1427.2051" y1="108.6982" y2="108.6982"/><line style="stroke:#000000;stroke-width:1;" x1="0" x2="1427.2051" y1="111.6982" y2="111.6982"/><rect fill="#EEEEEE" height="21.7988" style="stroke:#000000;stroke-width:2;" width="121.3496" x="652.9277" y="98.7988"/><text fill="#000000" font-family="serif" font-size="12" font-weight="bold" lengthAdjust="spacing" textLength="104.3496" x="658.9277" y="114.002">OAuth Initialization</text><g class="message" data-participant-1="User" data-participant-2="AuthPage"><polygon fill="#181818" points="219.7783,146.3965,229.7783,150.3965,219.7783,154.3965" style="stroke:#181818;stroke-width:1;"/><line style="stroke:#181818;stroke-width:1;" x1="24.3291" x2="225.7783" y1="150.3965" y2="150.3965"/><text fill="#000000" font-family="serif" font-size="12" lengthAdjust="spacing" textLength="188.4492" x="33.8291" y="145.8008">clicks "Sign in with Google/Microsoft"</text></g><g class="message" data-participant-1="AuthPage" data-participant-2="OAuthProvider"><polygon fill="#181818" points="390.0479,187.9941,400.0479,191.9941,390.0479,195.9941" style="stroke:#181818;stroke-width:1;"/><line style="stroke:#181818;stroke-width:1;" x1="241.7783" x2="396.0479" y1="191.9941" y2="191.9941"/><text fill="#000000" font-family="serif" font-size="12" lengthAdjust="spacing" textLength="93.9844" x="274.9209" y="173.5996">initiate OAuth flow</text><text fill="#000000" font-family="serif" font-size="12" lengthAdjust="spacing" textLength="141.2695" x="251.2783" y="187.3984">(redirectUri, clientId, scopes)</text></g><path d="M241,234.9941 L241,271.9941 L380,271.9941 L380,244.9941 L370,234.9941 L241,234.9941" fill="#FEFFDD" style="stroke:#181818;stroke-width:0.5;"/><path d="M370,234.9941 L370,244.9941 L380,244.9941 L370,234.9941" fill="#FEFFDD" style="stroke:#181818;stroke-width:0.5;"/><text fill="#000000" font-family="serif" font-size="12" lengthAdjust="spacing" textLength="118.3008" x="247" y="251.1973">opens popup or redirects</text><text fill="#000000" font-family="serif" font-size="12" lengthAdjust="spacing" textLength="118.3008" x="247" y="264.9961">to OAuth consent screen</text><rect fill="#EEEEEE" height="3" style="stroke:#EEEEEE;stroke-width:1;" width="1427.2051" x="0" y="297.4912"/><line style="stroke:#000000;stroke-width:1;" x1="0" x2="1427.2051" y1="297.4912" y2="297.4912"/><line style="stroke:#000000;stroke-width:1;" x1="0" x2="1427.2051" y1="300.4912" y2="300.4912"/><rect fill="#EEEEEE" height="21.7988" style="stroke:#000000;stroke-width:2;" width="120.6582" x="653.2734" y="287.5918"/><text fill="#000000" font-family="serif" font-size="12" font-weight="bold" lengthAdjust="spacing" textLength="103.6582" x="659.2734" y="302.7949">User Authentication</text><g class="message" data-participant-1="OAuthProvider" data-participant-2="OAuthProvider"><line style="stroke:#181818;stroke-width:1;" x1="412.0479" x2="459.0479" y1="334.1895" y2="334.1895"/><line style="stroke:#181818;stroke-width:1;" x1="459.0479" x2="459.0479" y1="334.1895" y2="347.1895"/><line style="stroke:#181818;stroke-width:1;" x1="418.0479" x2="459.0479" y1="347.1895" y2="347.1895"/><polygon fill="#181818" points="428.0479,343.1895,418.0479,347.1895,428.0479,351.1895" style="stroke:#181818;stroke-width:1;"/><text fill="#000000" font-family="serif" font-size="12" lengthAdjust="spacing" textLength="97.9863" x="424.0479" y="329.5938">show consent dialog</text></g><g class="message" data-participant-1="User" data-participant-2="OAuthProvider"><polygon fill="#181818" points="395.0479,389.7871,405.0479,393.7871,395.0479,397.7871" style="stroke:#181818;stroke-width:1;"/><line style="stroke:#181818;stroke-width:1;" x1="29.3291" x2="401.0479" y1="393.7871" y2="393.7871"/><text fill="#000000" font-family="serif" font-size="12" lengthAdjust="spacing" textLength="97.9629" x="169.207" y="375.3926">user authenticates &amp;</text><text fill="#000000" font-family="serif" font-size="12" lengthAdjust="spacing" textLength="131.9531" x="152.2119" y="389.1914">authenticated with provider</text></g><path d="M29,436.7871 L29,473.7871 L159,473.7871 L159,446.7871 L149,436.7871 L29,436.7871" fill="#FEFFDD" style="stroke:#181818;stroke-width:0.5;"/><path d="M149,436.7871 L149,446.7871 L159,446.7871 L149,436.7871" fill="#FEFFDD" style="stroke:#181818;stroke-width:0.5;"/><text fill="#000000" font-family="serif" font-size="12" lengthAdjust="spacing" textLength="106.6172" x="35" y="452.9902">user enters credentials</text><text fill="#000000" font-family="serif" font-size="12" lengthAdjust="spacing" textLength="109.9863" x="35" y="466.7891">and grants permissions</text><g class="message" data-participant-1="OAuthProvider" data-participant-2="AuthPage"><polygon fill="#181818" points="252.7783,508.9824,242.7783,512.9824,252.7783,516.9824" style="stroke:#181818;stroke-width:1;"/><line style="stroke:#181818;stroke-width:1;" x1="246.7783" x2="406.0479" y1="512.9824" y2="512.9824"/><text fill="#000000" font-family="serif" font-size="12" lengthAdjust="spacing" textLength="93.9785" x="277.4238" y="494.5879">return OAuth token</text><text fill="#000000" font-family="serif" font-size="12" lengthAdjust="spacing" textLength="102.9609" x="272.9326" y="508.3867">(in redirect or popup)</text></g><path d="M417,555.9824 L417,578.9824 L571,578.9824 L571,565.9824 L561,555.9824 L417,555.9824" fill="#FEFFDD" style="stroke:#181818;stroke-width:0.5;"/><path d="M561,555.9824 L561,565.9824 L571,565.9824 L561,555.9824" fill="#FEFFDD" style="stroke:#181818;stroke-width:0.5;"/><text fill="#000000" font-family="serif" font-size="12" lengthAdjust="spacing" textLength="133.9688" x="423" y="572.1855">token is JWT from provider</text><rect fill="#EEEEEE" height="3" style="stroke:#EEEEEE;stroke-width:1;" width="1427.2051" x="0" y="604.6807"/><line style="stroke:#000000;stroke-width:1;" x1="0" x2="1427.2051" y1="604.6807" y2="604.6807"/><line style="stroke:#000000;stroke-width:1;" x1="0" x2="1427.2051" y1="607.6807" y2="607.6807"/><rect fill="#EEEEEE" height="21.7988" style="stroke:#000000;stroke-width:2;" width="102.6816" x="662.2617" y="594.7813"/><text fill="#000000" font-family="serif" font-size="12" font-weight="bold" lengthAdjust="spacing" textLength="85.6816" x="668.2617" y="609.9844">Token Exchange</text><g class="message" data-participant-1="AuthPage" data-participant-2="AuthAPI"><polygon fill="#181818" points="522.0342,642.3789,532.0342,646.3789,522.0342,650.3789" style="stroke:#181818;stroke-width:1;"/><line style="stroke:#181818;stroke-width:1;" x1="241.7783" x2="528.0342" y1="646.3789" y2="646.3789"/><text fill="#000000" font-family="serif" font-size="12" lengthAdjust="spacing" textLength="136.6289" x="319.5918" y="641.7832">login(oauthToken, provider)</text></g><g class="message" data-participant-1="AuthAPI" data-participant-2="ApiClient"><polygon fill="#181818" points="656.6865,683.9766,666.6865,687.9766,656.6865,691.9766" style="stroke:#181818;stroke-width:1;"/><line style="stroke:#181818;stroke-width:1;" x1="544.0342" x2="662.6865" y1="687.9766" y2="687.9766"/><text fill="#000000" font-family="serif" font-size="12" lengthAdjust="spacing" textLength="78.9961" x="566.8623" y="669.582">post(/auth/login,</text><text fill="#000000" font-family="serif" font-size="12" lengthAdjust="spacing" textLength="88.8281" x="561.9463" y="683.3809">{token, provider})</text></g><path d="M549,700.9766 L549,723.9766 L714,723.9766 L714,710.9766 L704,700.9766 L549,700.9766" fill="#FEFFDD" style="stroke:#181818;stroke-width:0.5;"/><path d="M704,700.9766 L704,710.9766 L714,710.9766 L704,700.9766" fill="#FEFFDD" style="stroke:#181818;stroke-width:0.5;"/><text fill="#000000" font-family="serif" font-size="12" lengthAdjust="spacing" textLength="144.6504" x="555" y="717.1797">includes OAuth token in body</text><g class="message" data-participant-1="ApiClient" data-participant-2="AuthEndpoints"><polygon fill="#181818" points="785.6826,745.5742,795.6826,749.5742,785.6826,753.5742" style="stroke:#181818;stroke-width:1;"/><line style="stroke:#181818;stroke-width:1;" x1="678.6865" x2="791.6826" y1="749.5742" y2="749.5742"/><text fill="#000000" font-family="serif" font-size="12" lengthAdjust="spacing" textLength="99.9961" x="688.1865" y="744.9785">HTTP POST request</text></g><path d="M683,762.5742 L683,785.5742 L895,785.5742 L895,772.5742 L885,762.5742 L683,762.5742" fill="#FEFFDD" style="stroke:#181818;stroke-width:0.5;"/><path d="M885,762.5742 L885,772.5742 L895,772.5742 L885,762.5742" fill="#FEFFDD" style="stroke:#181818;stroke-width:0.5;"/><text fill="#000000" font-family="serif" font-size="12" lengthAdjust="spacing" textLength="191.625" x="689" y="778.7773">includes OAuth token and provider info</text><g class="message" data-participant-1="AuthEndpoints" data-participant-2="AuthEndpoints"><line style="stroke:#181818;stroke-width:1;" x1="812.6826" x2="854.6826" y1="811.1719" y2="811.1719"/><line style="stroke:#181818;stroke-width:1;" x1="854.6826" x2="854.6826" y1="811.1719" y2="824.1719"/><line style="stroke:#181818;stroke-width:1;" x1="813.6826" x2="854.6826" y1="824.1719" y2="824.1719"/><polygon fill="#181818" points="823.6826,820.1719,813.6826,824.1719,823.6826,828.1719" style="stroke:#181818;stroke-width:1;"/><text fill="#000000" font-family="serif" font-size="12" lengthAdjust="spacing" textLength="110.6191" x="819.6826" y="806.5762">validate request format</text></g><rect fill="#EEEEEE" height="3" style="stroke:#EEEEEE;stroke-width:1;" width="1427.2051" x="0" y="882.0713"/><line style="stroke:#000000;stroke-width:1;" x1="0" x2="1427.2051" y1="882.0713" y2="882.0713"/><line style="stroke:#000000;stroke-width:1;" x1="0" x2="1427.2051" y1="885.0713" y2="885.0713"/><rect fill="#EEEEEE" height="21.7988" style="stroke:#000000;stroke-width:2;" width="152.334" x="637.4355" y="872.1719"/><text fill="#000000" font-family="serif" font-size="12" font-weight="bold" lengthAdjust="spacing" textLength="135.334" x="643.4355" y="887.375">OAuth Token Verification</text><g class="message" data-participant-1="AuthEndpoints" data-participant-2="OAuthVerify"><polygon fill="#181818" points="975.6338,933.5684,985.6338,937.5684,975.6338,941.5684" style="stroke:#181818;stroke-width:1;"/><line style="stroke:#181818;stroke-width:1;" x1="807.6826" x2="981.6338" y1="937.5684" y2="937.5684"/><text fill="#000000" font-family="serif" font-size="12" lengthAdjust="spacing" textLength="134.625" x="830.3457" y="919.1738">verify_google_token(token)</text><text fill="#000000" font-family="serif" font-size="12" lengthAdjust="spacing" textLength="160.9512" x="817.1826" y="932.9727">or verify_microsoft_token(token)</text></g><path d="M812,950.5684 L812,987.5684 L959,987.5684 L959,960.5684 L949,950.5684 L812,950.5684" fill="#FEFFDD" style="stroke:#181818;stroke-width:0.5;"/><path d="M949,950.5684 L949,960.5684 L959,960.5684 L949,950.5684" fill="#FEFFDD" style="stroke:#181818;stroke-width:0.5;"/><text fill="#000000" font-family="serif" font-size="12" lengthAdjust="spacing" textLength="101.3086" x="818" y="966.7715">calls OAuth provider</text><text fill="#000000" font-family="serif" font-size="12" lengthAdjust="spacing" textLength="126.9609" x="818" y="980.5703">to validate token signature</text><g class="message" data-participant-1="OAuthVerify" data-participant-2="OAuthProvider"><polygon fill="#181818" points="428.0479,1008.9648,418.0479,1012.9648,428.0479,1016.9648" style="stroke:#181818;stroke-width:1;"/><line style="stroke:#181818;stroke-width:1;" x1="422.0479" x2="986.6338" y1="1012.9648" y2="1012.9648"/><text fill="#000000" font-family="serif" font-size="12" lengthAdjust="spacing" textLength="105.293" x="649.6943" y="1008.3691">validate token request</text></g><g class="message" data-participant-1="OAuthProvider" data-participant-2="OAuthVerify"><polygon fill="#181818" points="980.6338,1050.5625,990.6338,1054.5625,980.6338,1058.5625" style="stroke:#181818;stroke-width:1;"/><line style="stroke:#181818;stroke-width:1;stroke-dasharray:2,2;" x1="412.0479" x2="986.6338" y1="1054.5625" y2="1054.5625"/><text fill="#000000" font-family="serif" font-size="12" lengthAdjust="spacing" textLength="108.7441" x="647.9688" y="1036.168">token valid + user info</text><text fill="#000000" font-family="serif" font-size="12" lengthAdjust="spacing" textLength="105.9492" x="649.3662" y="1049.9668">(email, name, picture)</text></g><rect fill="#EEEEEE" height="3" style="stroke:#EEEEEE;stroke-width:1;" width="1427.2051" x="0" y="1082.4619"/><line style="stroke:#000000;stroke-width:1;" x1="0" x2="1427.2051" y1="1082.4619" y2="1082.4619"/><line style="stroke:#000000;stroke-width:1;" x1="0" x2="1427.2051" y1="1085.4619" y2="1085.4619"/><rect fill="#EEEEEE" height="21.7988" style="stroke:#000000;stroke-width:2;" width="132.6699" x="647.2676" y="1072.5625"/><text fill="#000000" font-family="serif" font-size="12" font-weight="bold" lengthAdjust="spacing" textLength="115.6699" x="653.2676" y="1087.7656">User Lookup/Creation</text><g class="message" data-participant-1="AuthEndpoints" data-participant-2="Database"><polygon fill="#181818" points="1066.9404,1120.1602,1076.9404,1124.1602,1066.9404,1128.1602" style="stroke:#181818;stroke-width:1;"/><line style="stroke:#181818;stroke-width:1;" x1="807.6826" x2="1072.9404" y1="1124.1602" y2="1124.1602"/><text fill="#000000" font-family="serif" font-size="12" lengthAdjust="spacing" textLength="76.6348" x="904.9941" y="1119.5645">findUser(email)</text></g><path d="M812,1137.1602 L812,1174.1602 L931,1174.1602 L931,1147.1602 L921,1137.1602 L812,1137.1602" fill="#FEFFDD" style="stroke:#181818;stroke-width:0.5;"/><path d="M921,1137.1602 L921,1147.1602 L931,1147.1602 L921,1137.1602" fill="#FEFFDD" style="stroke:#181818;stroke-width:0.5;"/><text fill="#000000" font-family="serif" font-size="12" lengthAdjust="spacing" textLength="98.3027" x="818" y="1153.3633">query by email from</text><text fill="#000000" font-family="serif" font-size="12" lengthAdjust="spacing" textLength="62.3262" x="818" y="1167.1621">OAuth token</text><path d="M747.8486,1186.7578 L806.1787,1186.7578 L806.1787,1192.5566 L796.1787,1202.5566 L747.8486,1202.5566 L747.8486,1186.7578" fill="#EEEEEE" style="stroke:#000000;stroke-width:1.5;"/><rect fill="none" height="261.1895" style="stroke:#000000;stroke-width:1.5;" width="375.0791" x="747.8486" y="1186.7578"/><text fill="#000000" font-family="serif" font-size="12" font-weight="bold" lengthAdjust="spacing" textLength="13.3301" x="762.8486" y="1198.9609">alt</text><text fill="#000000" font-family="serif" font-size="12" font-weight="bold" lengthAdjust="spacing" textLength="122.332" x="821.1787" y="1199.9609">[user exists in database]</text><g class="message" data-participant-1="Database" data-participant-2="AuthEndpoints"><polygon fill="#181818" points="823.6826,1218.3555,813.6826,1222.3555,823.6826,1226.3555" style="stroke:#181818;stroke-width:1;"/><line style="stroke:#181818;stroke-width:1;stroke-dasharray:2,2;" x1="817.6826" x2="1077.9404" y1="1222.3555" y2="1222.3555"/><text fill="#000000" font-family="serif" font-size="12" lengthAdjust="spacing" textLength="92.6426" x="899.4902" y="1217.7598">return existing user</text></g><g class="message" data-participant-1="AuthEndpoints" data-participant-2="AuthEndpoints"><line style="stroke:#181818;stroke-width:1;" x1="817.6826" x2="859.6826" y1="1250.1543" y2="1250.1543"/><line style="stroke:#181818;stroke-width:1;" x1="859.6826" x2="859.6826" y1="1250.1543" y2="1263.1543"/><line style="stroke:#181818;stroke-width:1;" x1="818.6826" x2="859.6826" y1="1263.1543" y2="1263.1543"/><polygon fill="#181818" points="828.6826,1259.1543,818.6826,1263.1543,828.6826,1267.1543" style="stroke:#181818;stroke-width:1;"/><text fill="#000000" font-family="serif" font-size="12" lengthAdjust="spacing" textLength="80.6191" x="824.6826" y="1245.5586">fetch user record</text></g><line style="stroke:#000000;stroke-width:1;stroke-dasharray:2,2;" x1="747.8486" x2="1122.9277" y1="1302.1543" y2="1302.1543"/><text fill="#000000" font-family="serif" font-size="12" font-weight="bold" lengthAdjust="spacing" textLength="101.6543" x="752.8486" y="1313.3574">[user does not exist]</text><g class="message" data-participant-1="Database" data-participant-2="AuthEndpoints"><polygon fill="#181818" points="818.6826,1332.752,808.6826,1336.752,818.6826,1340.752" style="stroke:#181818;stroke-width:1;"/><line style="stroke:#181818;stroke-width:1;stroke-dasharray:2,2;" x1="812.6826" x2="1077.9404" y1="1336.752" y2="1336.752"/><text fill="#000000" font-family="serif" font-size="12" lengthAdjust="spacing" textLength="69.3223" x="908.6504" y="1332.1563">user not found</text></g><g class="message" data-participant-1="AuthEndpoints" data-participant-2="Database"><polygon fill="#181818" points="1071.9404,1360.5508,1081.9404,1364.5508,1071.9404,1368.5508" style="stroke:#181818;stroke-width:1;"/><line style="stroke:#181818;stroke-width:1;" x1="812.6826" x2="1077.9404" y1="1364.5508" y2="1364.5508"/><text fill="#000000" font-family="serif" font-size="12" lengthAdjust="spacing" textLength="157.2422" x="869.6904" y="1359.9551">createUser(email, name, picture)</text></g><path d="M817,1377.5508 L817,1414.5508 L935,1414.5508 L935,1387.5508 L925,1377.5508 L817,1377.5508" fill="#FEFFDD" style="stroke:#181818;stroke-width:0.5;"/><path d="M925,1377.5508 L925,1387.5508 L935,1387.5508 L925,1377.5508" fill="#FEFFDD" style="stroke:#181818;stroke-width:0.5;"/><text fill="#000000" font-family="serif" font-size="12" lengthAdjust="spacing" textLength="93.6035" x="823" y="1393.7539">auto-create account</text><text fill="#000000" font-family="serif" font-size="12" lengthAdjust="spacing" textLength="97.6641" x="823" y="1407.5527">on first OAuth login</text><g class="message" data-participant-1="Database" data-participant-2="AuthEndpoints"><polygon fill="#181818" points="818.6826,1435.9473,808.6826,1439.9473,818.6826,1443.9473" style="stroke:#181818;stroke-width:1;"/><line style="stroke:#181818;stroke-width:1;stroke-dasharray:2,2;" x1="812.6826" x2="1077.9404" y1="1439.9473" y2="1439.9473"/><text fill="#000000" font-family="serif" font-size="12" lengthAdjust="spacing" textLength="74.6367" x="905.9932" y="1435.3516">return new user</text></g><rect fill="#EEEEEE" height="3" style="stroke:#EEEEEE;stroke-width:1;" width="1427.2051" x="0" y="1474.8467"/><line style="stroke:#000000;stroke-width:1;" x1="0" x2="1427.2051" y1="1474.8467" y2="1474.8467"/><line style="stroke:#000000;stroke-width:1;" x1="0" x2="1427.2051" y1="1477.8467" y2="1477.8467"/><rect fill="#EEEEEE" height="21.7988" style="stroke:#000000;stroke-width:2;" width="139.6719" x="643.7666" y="1464.9473"/><text fill="#000000" font-family="serif" font-size="12" font-weight="bold" lengthAdjust="spacing" textLength="122.6719" x="649.7666" y="1480.1504">JWT Token Generation</text><g class="message" data-participant-1="AuthEndpoints" data-participant-2="Security"><polygon fill="#181818" points="1144.5918,1526.3438,1154.5918,1530.3438,1144.5918,1534.3438" style="stroke:#181818;stroke-width:1;"/><line style="stroke:#181818;stroke-width:1;" x1="807.6826" x2="1150.5918" y1="1530.3438" y2="1530.3438"/><text fill="#000000" font-family="serif" font-size="12" lengthAdjust="spacing" textLength="118.2832" x="922.9956" y="1511.9492">generateTokens(user_id,</text><text fill="#000000" font-family="serif" font-size="12" lengthAdjust="spacing" textLength="56.6426" x="953.8159" y="1525.748">user_email)</text></g><path d="M1171,1543.3438 L1171,1580.3438 L1398,1580.3438 L1398,1553.3438 L1388,1543.3438 L1171,1543.3438" fill="#FEFFDD" style="stroke:#181818;stroke-width:0.5;"/><path d="M1388,1543.3438 L1388,1553.3438 L1398,1553.3438 L1388,1543.3438" fill="#FEFFDD" style="stroke:#181818;stroke-width:0.5;"/><text fill="#000000" font-family="serif" font-size="12" lengthAdjust="spacing" textLength="96.6094" x="1177" y="1559.5469">creates access token</text><text fill="#000000" font-family="serif" font-size="12" lengthAdjust="spacing" textLength="206.5957" x="1177" y="1573.3457">(short-lived) and refresh token (long-lived)</text><g class="message" data-participant-1="Security" data-participant-2="Security"><line style="stroke:#181818;stroke-width:1;" x1="1171.5918" x2="1213.5918" y1="1619.5391" y2="1619.5391"/><line style="stroke:#181818;stroke-width:1;" x1="1213.5918" x2="1213.5918" y1="1619.5391" y2="1632.5391"/><line style="stroke:#181818;stroke-width:1;" x1="1172.5918" x2="1213.5918" y1="1632.5391" y2="1632.5391"/><polygon fill="#181818" points="1182.5918,1628.5391,1172.5918,1632.5391,1182.5918,1636.5391" style="stroke:#181818;stroke-width:1;"/><text fill="#000000" font-family="serif" font-size="12" lengthAdjust="spacing" textLength="80.6602" x="1178.5918" y="1601.1445">sign JWT tokens</text><text fill="#000000" font-family="serif" font-size="12" lengthAdjust="spacing" textLength="72.6387" x="1182.6025" y="1614.9434">with secret key</text></g><g class="message" data-participant-1="Security" data-participant-2="AuthEndpoints"><polygon fill="#181818" points="818.6826,1700.1367,808.6826,1704.1367,818.6826,1708.1367" style="stroke:#181818;stroke-width:1;"/><line style="stroke:#181818;stroke-width:1;stroke-dasharray:2,2;" x1="812.6826" x2="1160.5918" y1="1704.1367" y2="1704.1367"/><text fill="#000000" font-family="serif" font-size="12" lengthAdjust="spacing" textLength="101.7129" x="933.7808" y="1685.7422">return {accessToken,</text><text fill="#000000" font-family="serif" font-size="12" lengthAdjust="spacing" textLength="120.375" x="924.4497" y="1699.541">refreshToken, expiresIn}</text></g><rect fill="#EEEEEE" height="3" style="stroke:#EEEEEE;stroke-width:1;" width="1427.2051" x="0" y="1732.0361"/><line style="stroke:#000000;stroke-width:1;" x1="0" x2="1427.2051" y1="1732.0361" y2="1732.0361"/><line style="stroke:#000000;stroke-width:1;" x1="0" x2="1427.2051" y1="1735.0361" y2="1735.0361"/><rect fill="#EEEEEE" height="21.7988" style="stroke:#000000;stroke-width:2;" width="65.0059" x="681.0996" y="1722.1367"/><text fill="#000000" font-family="serif" font-size="12" font-weight="bold" lengthAdjust="spacing" textLength="48.0059" x="687.0996" y="1737.3398">Response</text><g class="message" data-participant-1="AuthEndpoints" data-participant-2="ApiClient"><polygon fill="#181818" points="689.6865,1783.5332,679.6865,1787.5332,689.6865,1791.5332" style="stroke:#181818;stroke-width:1;"/><line style="stroke:#181818;stroke-width:1;stroke-dasharray:2,2;" x1="683.6865" x2="801.6826" y1="1787.5332" y2="1787.5332"/><text fill="#000000" font-family="serif" font-size="12" lengthAdjust="spacing" textLength="71.332" x="705.0186" y="1769.1387">HTTP 200 OK</text><text fill="#000000" font-family="serif" font-size="12" lengthAdjust="spacing" textLength="68.8418" x="706.2637" y="1782.9375">{user, tokens}</text></g><g class="message" data-participant-1="ApiClient" data-participant-2="AuthAPI"><polygon fill="#181818" points="555.0342,1825.1309,545.0342,1829.1309,555.0342,1833.1309" style="stroke:#181818;stroke-width:1;"/><line style="stroke:#181818;stroke-width:1;stroke-dasharray:2,2;" x1="549.0342" x2="672.6865" y1="1829.1309" y2="1829.1309"/><text fill="#000000" font-family="serif" font-size="12" lengthAdjust="spacing" textLength="100.6523" x="558.5342" y="1810.7363">response with tokens</text><text fill="#000000" font-family="serif" font-size="12" lengthAdjust="spacing" textLength="63.3047" x="577.208" y="1824.5352">and user data</text></g><g class="message" data-participant-1="AuthAPI" data-participant-2="AuthAPI"><line style="stroke:#181818;stroke-width:1;" x1="549.0342" x2="591.0342" y1="1856.9297" y2="1856.9297"/><line style="stroke:#181818;stroke-width:1;" x1="591.0342" x2="591.0342" y1="1856.9297" y2="1869.9297"/><line style="stroke:#181818;stroke-width:1;" x1="550.0342" x2="591.0342" y1="1869.9297" y2="1869.9297"/><polygon fill="#181818" points="560.0342,1865.9297,550.0342,1869.9297,560.0342,1873.9297" style="stroke:#181818;stroke-width:1;"/><text fill="#000000" font-family="serif" font-size="12" lengthAdjust="spacing" textLength="70.3066" x="556.0342" y="1852.334">parse response</text></g><rect fill="#EEEEEE" height="3" style="stroke:#EEEEEE;stroke-width:1;" width="1427.2051" x="0" y="1927.8291"/><line style="stroke:#000000;stroke-width:1;" x1="0" x2="1427.2051" y1="1927.8291" y2="1927.8291"/><line style="stroke:#000000;stroke-width:1;" x1="0" x2="1427.2051" y1="1930.8291" y2="1930.8291"/><rect fill="#EEEEEE" height="21.7988" style="stroke:#000000;stroke-width:2;" width="164.3105" x="631.4473" y="1917.9297"/><text fill="#000000" font-family="serif" font-size="12" font-weight="bold" lengthAdjust="spacing" textLength="147.3105" x="637.4473" y="1933.1328">Frontend State Management</text><g class="message" data-participant-1="AuthAPI" data-participant-2="AuthStore"><polygon fill="#181818" points="1259.252,1979.3262,1269.252,1983.3262,1259.252,1987.3262" style="stroke:#181818;stroke-width:1;"/><line style="stroke:#181818;stroke-width:1;" x1="544.0342" x2="1265.252" y1="1983.3262" y2="1983.3262"/><text fill="#000000" font-family="serif" font-size="12" lengthAdjust="spacing" textLength="118.957" x="848.1646" y="1964.9316">login(user, accessToken,</text><text fill="#000000" font-family="serif" font-size="12" lengthAdjust="spacing" textLength="67.9629" x="873.6616" y="1978.7305">refreshToken)</text></g><path d="M549,1996.3262 L549,2019.3262 L697,2019.3262 L697,2006.3262 L687,1996.3262 L549,1996.3262" fill="#FEFFDD" style="stroke:#181818;stroke-width:0.5;"/><path d="M687,1996.3262 L687,2006.3262 L697,2006.3262 L687,1996.3262" fill="#FEFFDD" style="stroke:#181818;stroke-width:0.5;"/><text fill="#000000" font-family="serif" font-size="12" lengthAdjust="spacing" textLength="127.9746" x="555" y="2012.5293">stores tokens and user info</text><g class="message" data-participant-1="AuthStore" data-participant-2="AuthStore"><line style="stroke:#181818;stroke-width:1;" x1="1286.252" x2="1328.252" y1="2072.5215" y2="2072.5215"/><line style="stroke:#181818;stroke-width:1;" x1="1328.252" x2="1328.252" y1="2072.5215" y2="2085.5215"/><line style="stroke:#181818;stroke-width:1;" x1="1287.252" x2="1328.252" y1="2085.5215" y2="2085.5215"/><polygon fill="#181818" points="1297.252,2081.5215,1287.252,2085.5215,1297.252,2089.5215" style="stroke:#181818;stroke-width:1;"/><text fill="#000000" font-family="serif" font-size="12" lengthAdjust="spacing" textLength="116.9531" x="1293.252" y="2040.3281">setTokens(accessToken,</text><text fill="#000000" font-family="serif" font-size="12" lengthAdjust="spacing" textLength="67.9629" x="1317.7471" y="2054.127">refreshToken)</text><text fill="#000000" font-family="serif" font-size="12" lengthAdjust="spacing" textLength="83.9648" x="1309.7461" y="2067.9258">setUser(userInfo)</text></g><path d="M1281,2128.5215 L1281,2165.5215 L1413,2165.5215 L1413,2138.5215 L1403,2128.5215 L1281,2128.5215" fill="#FEFFDD" style="stroke:#181818;stroke-width:0.5;"/><path d="M1403,2128.5215 L1403,2138.5215 L1413,2138.5215 L1403,2128.5215" fill="#FEFFDD" style="stroke:#181818;stroke-width:0.5;"/><text fill="#000000" font-family="serif" font-size="12" lengthAdjust="spacing" textLength="111.3105" x="1287" y="2144.7246">persists to localStorage</text><text fill="#000000" font-family="serif" font-size="12" lengthAdjust="spacing" textLength="108.2988" x="1287" y="2158.5234">and updates store state</text><g class="message" data-participant-1="AuthStore" data-participant-2="AuthPage"><polygon fill="#181818" points="252.7783,2186.918,242.7783,2190.918,252.7783,2194.918" style="stroke:#181818;stroke-width:1;"/><line style="stroke:#181818;stroke-width:1;stroke-dasharray:2,2;" x1="246.7783" x2="1275.252" y1="2190.918" y2="2190.918"/><text fill="#000000" font-family="serif" font-size="12" lengthAdjust="spacing" textLength="114.9551" x="701.5376" y="2186.3223">authentication complete</text></g><rect fill="#EEEEEE" height="3" style="stroke:#EEEEEE;stroke-width:1;" width="1427.2051" x="0" y="2218.8174"/><line style="stroke:#000000;stroke-width:1;" x1="0" x2="1427.2051" y1="2218.8174" y2="2218.8174"/><line style="stroke:#000000;stroke-width:1;" x1="0" x2="1427.2051" y1="2221.8174" y2="2221.8174"/><rect fill="#EEEEEE" height="21.7988" style="stroke:#000000;stroke-width:2;" width="73.0039" x="677.1006" y="2208.918"/><text fill="#000000" font-family="serif" font-size="12" font-weight="bold" lengthAdjust="spacing" textLength="56.0039" x="683.1006" y="2224.1211">Navigation</text><g class="message" data-participant-1="AuthPage" data-participant-2="AuthPage"><line style="stroke:#181818;stroke-width:1;" x1="246.7783" x2="288.7783" y1="2260.5156" y2="2260.5156"/><line style="stroke:#181818;stroke-width:1;" x1="288.7783" x2="288.7783" y1="2260.5156" y2="2273.5156"/><line style="stroke:#181818;stroke-width:1;" x1="247.7783" x2="288.7783" y1="2273.5156" y2="2273.5156"/><polygon fill="#181818" points="257.7783,2269.5156,247.7783,2273.5156,257.7783,2277.5156" style="stroke:#181818;stroke-width:1;"/><text fill="#000000" font-family="serif" font-size="12" lengthAdjust="spacing" textLength="88.623" x="253.7783" y="2255.9199">redirect to /project</text></g><path d="M246,2316.5156 L246,2353.5156 L417,2353.5156 L417,2326.5156 L407,2316.5156 L246,2316.5156" fill="#FEFFDD" style="stroke:#181818;stroke-width:0.5;"/><path d="M407,2316.5156 L407,2326.5156 L417,2326.5156 L407,2316.5156" fill="#FEFFDD" style="stroke:#181818;stroke-width:0.5;"/><text fill="#000000" font-family="serif" font-size="12" lengthAdjust="spacing" textLength="121.6289" x="252" y="2332.7188">user is now authenticated</text><text fill="#000000" font-family="serif" font-size="12" lengthAdjust="spacing" textLength="150.5918" x="252" y="2346.5176">and can access protected routes</text><path d="M5,2364.1133 L5,2387.1133 L1296,2387.1133 L1296,2374.1133 L1286,2364.1133 L5,2364.1133" fill="#FEFFDD" style="stroke:#181818;stroke-width:0.5;"/><path d="M1286,2364.1133 L1286,2374.1133 L1296,2374.1133 L1286,2364.1133" fill="#FEFFDD" style="stroke:#181818;stroke-width:0.5;"/><text fill="#000000" font-family="serif" font-size="12" lengthAdjust="spacing" textLength="527.1738" x="382.5366" y="2380.3164">user authentication completed: user logged in with a valid JWT token and can access protected API endpoints</text><!--SRC=[ZLZVRzis47xNNy5cm9PWBj9sw8lH5aXJkylQ9a6JRdim430IhN2HIPMaahX5__VT7Kc9acMdUN0SylZTtNS_UCoJGYob4kpjqV67sUcxg-EpZsUVsI-pv_ENytds9EpE_hsSVJuz-XYtvt_CNivVPfczbQhcXg-OTUjAmAUHkMjMLRB3SwVDMvxVbaOtgZZMbJQ0G3yROjeKmWIHP_IJwX1V6w5oyKbOoqjnLCbIiLme9qmY1IRpfd9phTmfNu5DmiZb-Fw5_2ROynTPzXjx_VerWtqdSrbpvImkP6GJs_i247kCMuPViaIAxHqrxkOSR5ceLwzg-Ftc3Gd6vUnQFx3P0nYeU3LWiGzqXaVOkT5t4XX0E16E1KWIYFkPK0K3x3u61ucZynCy38RUoJmr1pO6qhKyhYImDo8VjyX-Z1tgwwN89WrifefQI-2Eh8z_92Qq0YEk_urHaZbtKYiytpXPIRTEdIUHTV_iE-xuDRV4Vt4TfEDYN_H2v8q1o2-0R3TLnEtjr5v0Cf0YYryIlsWZoo23V1HFb7IIL_8RUGEPb6MOEUpfcpOnfYolP7vhmInCOgdOlOIJxxKkAt7uIUP6MxrqUvY2yeuxqQLK5hyXNYyhfe23ca7Q6xAizFr2xHjHI2DozyN82Ug5m9uK4sPpNGjxqAdefrYcDAmPMTuuffU9vN1AMLRhkgaPb4T41qwT3efphIne0HL629LbXHZn0_WYMd05X4FmYQwU9ID-sXjztoefW6jTRdKZKZ-0Q72PTwg5PRykLBfG-9ZK4QbLG6rWG0-k1L1gI9Q1wmL2SSms3abL6ceijJ0hQIsuQdl4UDGDpplUZN2DKO5Xfw4c8RQGEJ4060oAoi5OrYIQTiPvG1FfOTAol_wvP4kZLnqV6C1Bsfuzv3TSGKPYxDBq38rdoY10Kkrhf9UEJ5gOWR7OfhBmXH1YAvg2RzRj7oB48S5D5kgxwuFzID7Q9ZQIoMIKL7dL5CAcb68fNkjY3KR4yz6HjdrDsP-Nb-Vi_EpY4iY7EycwlXDTenkgxhmPLOvf4dq1YQNsNBHu8wRSGQCfK76mX2srMV7j1WrACTbf-vSFQjgHsy3sB4cwCjX1lwzAwc1NvCu-VHui52Hcs5x5pjQJ6DHkQFGZOKlypdbLHVBgzjg43jGIuYcrq5yv58u8jUN1Hnh2uDn6O0TLCoZK8HqUX33PxxulO3oXOiMAosh25CmcaBWuBXbniACyXpkHdTW-FsfzszI7nqRi25My4gSCvha2ptax4khRMtCtxy2AMRFhDQFpr18MAidXBEEL2utmGLfG3nLLH6m6Fr4HaJP03psEJafL4WuTsfAqk4KVZvN9KhZynfi5lHB6p9z2tLeiZsvceW8FIL-XeSg1K-_LenJG6HHVuhYymyCkfZd6NdHHtSYkHtpTp85MwyvSW5widthbW963lJ1CGWekfO56v9E2MdM7znF1L-A-Ytj2ygPnZqG0sCl6pcFfu7Nc-znxeOJPKJfnC9ooqaiAEcVtqSOhMS0rHD-6zTGEb8Dwwl0ySnQfWnTDUwN3S6FSqqhUYUA0RWGZbaROU4ViLrgLOJlB8bhVKcnwv28TWVc39XahGADZjs8zPcN2LBVOmMyDrtTllh_M5oeO6svvyL33R69Fr8znV8Z4Ps5hdEJ6sEyF07JhldZsZ9rzWAiVIPy41t_ikDQIUpoTI4nKIzH4df1kNxIGB3tGRff8fvE81ey5ArhCaP5cO1-jWVDp0yzGV75SEDpwn1LCJYiqDhAHQA9tHfoblFlRkH_CLU6DicKIeXTDo43BMXAw2OIE3-ommeLAs6750kXmr9aGyGG0VzQme0N6PKlN25pjbOPR7zVfnKrcrWML43a0d_371jTUm-XYwbjlrkRzDqckLtKbdDWMnbD-9yj-3qb7u3Y_XpaTF3c4aUK_-3usgMzxT_cGu5Lottku59wAdAlOIG3S0JYyO8nkW9uj3p1If64oeq5Yal22_NFuG4fvA88ra8ebQ8dFLnu6dhRpiAs6OLgt_oEWDpTQa_qF]--></g></svg>