<svg xmlns="http://www.w3.org/2000/svg" xmlns:xlink="http://www.w3.org/1999/xlink" contentStyleType="text/css" data-diagram-type="STATE" height="1111px" preserveAspectRatio="none" style="width:1369px;height:1111px;background:#FFFFFF;" version="1.1" viewBox="0 0 1369 1111" width="1369px" zoomAndPan="magnify"><defs/><g><!--cluster Running--><g class="cluster" data-entity="Running" data-source-line="22" data-uid="ent0002" id="cluster_Running"><rect fill="#FFFFFF" height="65.1953" style="stroke:#FFFFFF;stroke-width:1;" width="766" x="100.62" y="171.39"/><rect fill="none" height="417.09" style="stroke:#181818;stroke-width:0.5;" width="766" x="100.62" y="171.39"/><line style="stroke:#181818;stroke-width:0.5;" x1="100.62" x2="866.62" y1="236.5853" y2="236.5853"/><line style="stroke:#181818;stroke-width:0.5;" x1="100.62" x2="866.62" y1="190.1888" y2="190.1888"/><text fill="#000000" font-family="serif" font-size="12" lengthAdjust="spacing" textLength="41.3379" x="462.9511" y="186.5931">Running</text><text fill="#000000" font-family="serif" font-size="12" lengthAdjust="spacing" textLength="153.9434" x="105.62" y="203.892">entry / initialize execution timer</text><text fill="#000000" font-family="serif" font-size="12" lengthAdjust="spacing" textLength="250.6055" x="105.62" y="217.6908">start backend execution (partition or import QASM)</text><text fill="#000000" font-family="serif" font-size="12" lengthAdjust="spacing" textLength="156.9375" x="105.62" y="231.4896">exit / record final execution time</text></g><ellipse cx="499.62" cy="268.39" fill="#222222" rx="10" ry="10" style="stroke:#222222;stroke-width:1;"/><g id="Running.Executing"><rect fill="#FFFFFF" height="75.1953" rx="12.5" ry="12.5" style="stroke:#181818;stroke-width:0.5;" width="264.9336" x="367.16" y="367.89"/><line style="stroke:#181818;stroke-width:0.5;" x1="367.16" x2="632.0936" y1="391.6888" y2="391.6888"/><text fill="#000000" font-family="serif" font-size="12" lengthAdjust="spacing" textLength="48.6504" x="475.3016" y="384.0931">Executing</text><text fill="#000000" font-family="serif" font-size="12" lengthAdjust="spacing" textLength="175.957" x="372.16" y="407.892">if partition: parse, partition, simulate</text><text fill="#000000" font-family="serif" font-size="12" lengthAdjust="spacing" textLength="244.9336" x="372.16" y="421.6908">else if import: parse, convert and load QASM code</text><text fill="#000000" font-family="serif" font-size="12" lengthAdjust="spacing" textLength="175.3828" x="372.16" y="435.4896">if (elapsed_time &lt; timeout) continue</text></g><g id="Running.ExecutionSuccess"><rect fill="#FFFFFF" height="61.3965" rx="12.5" ry="12.5" style="stroke:#181818;stroke-width:0.5;" width="181.6074" x="652.82" y="503.08"/><line style="stroke:#181818;stroke-width:0.5;" x1="652.82" x2="834.4274" y1="526.8788" y2="526.8788"/><text fill="#000000" font-family="serif" font-size="12" lengthAdjust="spacing" textLength="86.6426" x="700.3024" y="519.2831">ExecutionSuccess</text><text fill="#000000" font-family="serif" font-size="12" lengthAdjust="spacing" textLength="125.291" x="657.82" y="543.082">entry / collect final results</text><text fill="#000000" font-family="serif" font-size="12" lengthAdjust="spacing" textLength="161.6074" x="657.82" y="556.8808">exit / prepare job completion data</text></g><g id="Running.TimeoutDetected"><rect fill="#FFFFFF" height="50" rx="12.5" ry="12.5" style="stroke:#181818;stroke-width:0.5;" width="222.1836" x="124.53" y="508.78"/><line style="stroke:#181818;stroke-width:0.5;" x1="124.53" x2="346.7136" y1="532.5788" y2="532.5788"/><text fill="#000000" font-family="serif" font-size="12" lengthAdjust="spacing" textLength="83.2969" x="193.9734" y="524.9831">TimeoutDetected</text><text fill="#000000" font-family="serif" font-size="12" lengthAdjust="spacing" textLength="202.1836" x="129.53" y="548.782">entry / set termination_reason = "timeout"</text></g><g id="Running.AbortRequested"><rect fill="#FFFFFF" height="61.3965" rx="12.5" ry="12.5" style="stroke:#181818;stroke-width:0.5;" width="236.1699" x="381.54" y="503.08"/><line style="stroke:#181818;stroke-width:0.5;" x1="381.54" x2="617.7099" y1="526.8788" y2="526.8788"/><text fill="#000000" font-family="serif" font-size="12" lengthAdjust="spacing" textLength="77.9824" x="460.6338" y="519.2831">AbortRequested</text><text fill="#000000" font-family="serif" font-size="12" lengthAdjust="spacing" textLength="216.1699" x="386.54" y="543.082">entry / set termination_reason = "user_abort"</text><text fill="#000000" font-family="serif" font-size="12" lengthAdjust="spacing" textLength="201.293" x="386.54" y="556.8808">exit / send abort signal to PartitionService</text></g><path d="M128.75,624.48 L342.5039,624.48 A12.5,12.5 0 0 1 355.0039,636.98 L355.0039,648.2788 L116.25,648.2788 L116.25,636.98 A12.5,12.5 0 0 1 128.75,624.48" fill="#FFFFFF"/><rect fill="none" height="259.5853" rx="12.5" ry="12.5" style="stroke:#181818;stroke-width:0.5;" width="238.7539" x="116.25" y="624.48"/><line style="stroke:#181818;stroke-width:0.5;" x1="116.25" x2="355.0039" y1="648.2788" y2="648.2788"/><text fill="#000000" font-family="serif" font-size="12" lengthAdjust="spacing" textLength="59.3145" x="205.9697" y="640.6831">Terminating</text><ellipse cx="237.13" cy="669.2788" fill="#222222" rx="10" ry="10" style="stroke:#222222;stroke-width:1;"/><g id="Terminating.CleaningUp"><rect fill="#FFFFFF" height="61.3965" rx="12.5" ry="12.5" style="stroke:#181818;stroke-width:0.5;" width="181.2734" x="146.49" y="715.2788"/><line style="stroke:#181818;stroke-width:0.5;" x1="146.49" x2="327.7634" y1="739.0777" y2="739.0777"/><text fill="#000000" font-family="serif" font-size="12" lengthAdjust="spacing" textLength="57.9902" x="208.1316" y="731.482">CleaningUp</text><text fill="#000000" font-family="serif" font-size="12" lengthAdjust="spacing" textLength="161.2734" x="151.49" y="755.2808">stop execution, cleanup resources</text><text fill="#000000" font-family="serif" font-size="12" lengthAdjust="spacing" textLength="124.957" x="151.49" y="769.0796">delete active_jobs[job_id]</text></g><g id="Terminating.BroadcastStatus"><rect fill="#FFFFFF" height="61.3965" rx="12.5" ry="12.5" style="stroke:#181818;stroke-width:0.5;" width="217.7539" x="128.25" y="812.6688"/><line style="stroke:#181818;stroke-width:0.5;" x1="128.25" x2="346.0039" y1="836.4677" y2="836.4677"/><text fill="#000000" font-family="serif" font-size="12" lengthAdjust="spacing" textLength="77.3203" x="198.4668" y="828.872">BroadcastStatus</text><text fill="#000000" font-family="serif" font-size="12" lengthAdjust="spacing" textLength="197.7539" x="133.25" y="852.6708">broadcastJobStatus(job_id, "terminated")</text><text fill="#000000" font-family="serif" font-size="12" lengthAdjust="spacing" textLength="116.8184" x="133.25" y="866.4696">{reason, partial_results}</text></g><!--link *start*Terminating to CleaningUp--><g class="link" data-entity-1=".start.Terminating" data-entity-2="CleaningUp" data-source-line="51" data-uid="lnk22" id="link_.start.Terminating_CleaningUp"><path d="M237.13,679.6188 C237.13,688.6988 237.13,696.3788 237.13,708.9588" fill="none" id="*start*Terminating-to-CleaningUp" style="stroke:#181818;stroke-width:1;"/><polygon fill="#181818" points="237.13,714.9588,241.13,705.9588,237.13,709.9588,233.13,705.9588,237.13,714.9588" style="stroke:#181818;stroke-width:1;"/></g><!--link CleaningUp to BroadcastStatus--><g class="link" data-entity-1="CleaningUp" data-entity-2="BroadcastStatus" data-source-line="56" data-uid="lnk24" id="link_CleaningUp_BroadcastStatus"><path d="M237.13,777.0588 C237.13,788.3088 237.13,794.9988 237.13,806.2488" fill="none" id="CleaningUp-to-BroadcastStatus" style="stroke:#181818;stroke-width:1;"/><polygon fill="#181818" points="237.13,812.2488,241.13,803.2488,237.13,807.2488,233.13,803.2488,237.13,812.2488" style="stroke:#181818;stroke-width:1;"/><text fill="#000000" font-family="serif" font-size="12" lengthAdjust="spacing" textLength="90.6152" x="146.13" y="791.852">resources_released</text></g><ellipse cx="858.62" cy="16" fill="#222222" rx="10" ry="10" style="stroke:#222222;stroke-width:1;"/><g id="Pending"><rect fill="#FFFFFF" height="61.3965" rx="12.5" ry="12.5" style="stroke:#181818;stroke-width:0.5;" width="186.2773" x="765.48" y="86"/><line style="stroke:#181818;stroke-width:0.5;" x1="765.48" x2="951.7573" y1="109.7988" y2="109.7988"/><text fill="#000000" font-family="serif" font-size="12" lengthAdjust="spacing" textLength="39.334" x="838.9517" y="102.2031">Pending</text><text fill="#000000" font-family="serif" font-size="12" lengthAdjust="spacing" textLength="145.6348" x="770.48" y="126.002">entry / store job in active_jobs</text><text fill="#000000" font-family="serif" font-size="12" lengthAdjust="spacing" textLength="166.2773" x="770.48" y="139.8008">exit / retrieve job from active_jobs</text></g><g id="Completed"><rect fill="#FFFFFF" height="75.1953" rx="12.5" ry="12.5" style="stroke:#181818;stroke-width:0.5;" width="197.2988" x="672.97" y="945.97"/><line style="stroke:#181818;stroke-width:0.5;" x1="672.97" x2="870.2688" y1="969.7688" y2="969.7688"/><text fill="#000000" font-family="serif" font-size="12" lengthAdjust="spacing" textLength="52.6582" x="745.2903" y="962.1731">Completed</text><text fill="#000000" font-family="serif" font-size="12" lengthAdjust="spacing" textLength="121.9453" x="677.97" y="985.972">entry / finalize job record</text><text fill="#000000" font-family="serif" font-size="12" lengthAdjust="spacing" textLength="112.2129" x="677.97" y="999.7708">job.status = "complete"</text><text fill="#000000" font-family="serif" font-size="12" lengthAdjust="spacing" textLength="177.2988" x="677.97" y="1013.5696">emit success notification with results</text></g><g id="CompletedWithError"><rect fill="#FFFFFF" height="75.1953" rx="12.5" ry="12.5" style="stroke:#181818;stroke-width:0.5;" width="272.2637" x="71.49" y="945.97"/><line style="stroke:#181818;stroke-width:0.5;" x1="71.49" x2="343.7537" y1="969.7688" y2="969.7688"/><text fill="#000000" font-family="serif" font-size="12" lengthAdjust="spacing" textLength="101.9707" x="156.6365" y="962.1731">CompletedWithError</text><text fill="#000000" font-family="serif" font-size="12" lengthAdjust="spacing" textLength="121.9453" x="76.49" y="985.972">entry / finalize job record</text><text fill="#000000" font-family="serif" font-size="12" lengthAdjust="spacing" textLength="91.5469" x="76.49" y="999.7708">job.status = "error"</text><text fill="#000000" font-family="serif" font-size="12" lengthAdjust="spacing" textLength="252.2637" x="76.49" y="1013.5696">emit termination notification (timeout or user_abort)</text></g><ellipse cx="489.62" cy="1094.06" fill="none" rx="11" ry="11" style="stroke:#222222;stroke-width:1;"/><ellipse cx="489.62" cy="1094.06" fill="#222222" rx="6" ry="6" style="stroke:#222222;stroke-width:1;"/><g class="entity" data-entity="GMN2" data-source-line="76" data-uid="ent0003" id="entity_GMN2"><path d="M411.15,91 L411.15,142.3965 L730.0934,142.3965 L730.0934,101 L720.0934,91 L411.15,91" fill="#FEFFDD" style="stroke:#181818;stroke-width:0.5;"/><path d="M720.0934,91 L720.0934,101 L730.0934,101 L720.0934,91" fill="#FEFFDD" style="stroke:#181818;stroke-width:1;"/><text fill="#000000" font-family="serif" font-size="12" lengthAdjust="spacing" textLength="131.6133" x="417.15" y="107.2031">job created by user request,</text><text fill="#000000" font-family="serif" font-size="12" lengthAdjust="spacing" textLength="182.6309" x="417.15" y="121.002">stored in system with initial metadata,</text><text fill="#000000" font-family="serif" font-size="12" lengthAdjust="spacing" textLength="297.9434" x="417.15" y="134.8008">execution_type indicates partition or import QASM workflow</text></g><g class="entity" data-entity="GMN5" data-source-line="82" data-uid="ent0006" id="entity_GMN5"><path d="M893.49,228.89 L893.49,307.8841 L1213.7634,307.8841 L1213.7634,238.89 L1203.7634,228.89 L893.49,228.89" fill="#FEFFDD" style="stroke:#181818;stroke-width:0.5;"/><path d="M1203.7634,228.89 L1203.7634,238.89 L1213.7634,238.89 L1203.7634,228.89" fill="#FEFFDD" style="stroke:#181818;stroke-width:1;"/><text fill="#000000" font-family="serif" font-size="12" lengthAdjust="spacing" textLength="211.5762" x="899.49" y="245.0931">backend actively executes circuit workflow,</text><text fill="#000000" font-family="serif" font-size="12" lengthAdjust="spacing" textLength="299.2734" x="899.49" y="258.892">can be partition-based (split, simulate parts) or import QASM,</text><text fill="#000000" font-family="serif" font-size="12" lengthAdjust="spacing" textLength="173.9355" x="899.49" y="272.6908">generates periodic progress updates,</text><text fill="#000000" font-family="serif" font-size="12" lengthAdjust="spacing" textLength="196.2949" x="899.49" y="286.4896">monitors execution time against timeout,</text><text fill="#000000" font-family="serif" font-size="12" lengthAdjust="spacing" textLength="183.9434" x="899.49" y="300.2884">can transition to success or error paths</text></g><g class="entity" data-entity="GMN8" data-source-line="90" data-uid="ent0009" id="entity_GMN8"><path d="M796.5,721.68 L796.5,786.8753 L1204.752,786.8753 L1204.752,731.68 L1194.752,721.68 L796.5,721.68" fill="#FEFFDD" style="stroke:#181818;stroke-width:0.5;"/><path d="M1194.752,721.68 L1194.752,731.68 L1204.752,731.68 L1194.752,721.68" fill="#FEFFDD" style="stroke:#181818;stroke-width:1;"/><text fill="#000000" font-family="serif" font-size="12" lengthAdjust="spacing" textLength="164.2793" x="802.5" y="737.8831">execution completed successfully,</text><text fill="#000000" font-family="serif" font-size="12" lengthAdjust="spacing" textLength="297.2813" x="802.5" y="751.682">partition workflow: all partitions simulated, results combined,</text><text fill="#000000" font-family="serif" font-size="12" lengthAdjust="spacing" textLength="387.252" x="802.5" y="765.4808">import QASM workflow: QASM code parsed, converted and loaded into circuit,</text><text fill="#000000" font-family="serif" font-size="12" lengthAdjust="spacing" textLength="137.2852" x="802.5" y="779.2796">no timeout or abort occurred</text></g><g class="entity" data-entity="GMN11" data-source-line="97" data-uid="ent0012" id="entity_GMN11"><path d="M891,514.98 L891,552.5777 L1114.2539,552.5777 L1114.2539,524.98 L1104.2539,514.98 L891,514.98" fill="#FEFFDD" style="stroke:#181818;stroke-width:0.5;"/><path d="M1104.2539,514.98 L1104.2539,524.98 L1114.2539,524.98 L1104.2539,514.98" fill="#FEFFDD" style="stroke:#181818;stroke-width:1;"/><text fill="#000000" font-family="serif" font-size="12" lengthAdjust="spacing" textLength="202.2539" x="897" y="531.1831">execution time exceeded configured limit,</text><text fill="#000000" font-family="serif" font-size="12" lengthAdjust="spacing" textLength="151.9453" x="897" y="544.982">automatic termination triggered</text></g><g class="entity" data-entity="GMN14" data-source-line="102" data-uid="ent0015" id="entity_GMN14"><path d="M1148.83,514.98 L1148.83,552.5777 L1362.4218,552.5777 L1362.4218,524.98 L1352.4218,514.98 L1148.83,514.98" fill="#FEFFDD" style="stroke:#181818;stroke-width:0.5;"/><path d="M1352.4218,514.98 L1352.4218,524.98 L1362.4218,524.98 L1352.4218,514.98" fill="#FEFFDD" style="stroke:#181818;stroke-width:1;"/><text fill="#000000" font-family="serif" font-size="12" lengthAdjust="spacing" textLength="192.5918" x="1154.83" y="531.1831">user explicitly cancels execution via UI,</text><text fill="#000000" font-family="serif" font-size="12" lengthAdjust="spacing" textLength="139.9512" x="1154.83" y="544.982">abort request sent to backend</text></g><g class="entity" data-entity="GMN17" data-source-line="107" data-uid="ent0018" id="entity_GMN17"><path d="M389.99,728.57 L389.99,779.9665 L633.2478,779.9665 L633.2478,738.57 L623.2478,728.57 L389.99,728.57" fill="#FEFFDD" style="stroke:#181818;stroke-width:0.5;"/><path d="M623.2478,728.57 L623.2478,738.57 L633.2478,738.57 L623.2478,728.57" fill="#FEFFDD" style="stroke:#181818;stroke-width:1;"/><text fill="#000000" font-family="serif" font-size="12" lengthAdjust="spacing" textLength="187.2832" x="395.99" y="744.7731">both timeout and abort paths converge,</text><text fill="#000000" font-family="serif" font-size="12" lengthAdjust="spacing" textLength="116.291" x="395.99" y="758.572">unified cleanup process,</text><text fill="#000000" font-family="serif" font-size="12" lengthAdjust="spacing" textLength="222.2578" x="395.99" y="772.3708">cleanup happens identically for both scenarios</text></g><g class="entity" data-entity="GMN20" data-source-line="113" data-uid="ent0021" id="entity_GMN20"><path d="M904.98,950.97 L904.98,1016.1653 L1142.2671,1016.1653 L1142.2671,960.97 L1132.2671,950.97 L904.98,950.97" fill="#FEFFDD" style="stroke:#181818;stroke-width:0.5;"/><path d="M1132.2671,950.97 L1132.2671,960.97 L1142.2671,960.97 L1132.2671,950.97" fill="#FEFFDD" style="stroke:#181818;stroke-width:1;"/><text fill="#000000" font-family="serif" font-size="12" lengthAdjust="spacing" textLength="156.9668" x="910.98" y="967.1731">job finalized with success status,</text><text fill="#000000" font-family="serif" font-size="12" lengthAdjust="spacing" textLength="161.9473" x="910.98" y="980.972">results available for visualization,</text><text fill="#000000" font-family="serif" font-size="12" lengthAdjust="spacing" textLength="159.9492" x="910.98" y="994.7708">frontend notified via WebSocket,</text><text fill="#000000" font-family="serif" font-size="12" lengthAdjust="spacing" textLength="216.2871" x="910.98" y="1008.5696">progress bar hidden, results displayed to user</text></g><g class="entity" data-entity="GMN23" data-source-line="120" data-uid="ent0024" id="entity_GMN23"><path d="M378.82,944.07 L378.82,1023.0641 L638.4255,1023.0641 L638.4255,954.07 L628.4255,944.07 L378.82,944.07" fill="#FEFFDD" style="stroke:#181818;stroke-width:0.5;"/><path d="M628.4255,944.07 L628.4255,954.07 L638.4255,954.07 L628.4255,944.07" fill="#FEFFDD" style="stroke:#181818;stroke-width:1;"/><text fill="#000000" font-family="serif" font-size="12" lengthAdjust="spacing" textLength="144.293" x="384.82" y="960.2731">job finalized with error status,</text><text fill="#000000" font-family="serif" font-size="12" lengthAdjust="spacing" textLength="213.252" x="384.82" y="974.072">termination reason (timeout/abort) recorded,</text><text fill="#000000" font-family="serif" font-size="12" lengthAdjust="spacing" textLength="152.2734" x="384.82" y="987.8708">partial results may be available,</text><text fill="#000000" font-family="serif" font-size="12" lengthAdjust="spacing" textLength="159.9492" x="384.82" y="1001.6696">frontend notified via WebSocket,</text><text fill="#000000" font-family="serif" font-size="12" lengthAdjust="spacing" textLength="238.6055" x="384.82" y="1015.4684">progress bar hidden, error status displayed to user</text></g><!--link *start* to Pending--><g class="link" data-entity-1=".start." data-entity-2="Pending" data-source-line="12" data-uid="lnk4" id="link_.start._Pending"><path d="M858.62,26.39 C858.62,40.26 858.62,59.42 858.62,79.66" fill="none" id="*start*-to-Pending" style="stroke:#181818;stroke-width:1;"/><polygon fill="#181818" points="858.62,85.66,862.62,76.66,858.62,80.66,854.62,76.66,858.62,85.66" style="stroke:#181818;stroke-width:1;"/><text fill="#000000" font-family="serif" font-size="12" lengthAdjust="spacing" textLength="221.2617" x="636.62" y="39.2331">enqueueJob(job_id, circuitId, execution_type)</text><text fill="#000000" font-family="serif" font-size="12" lengthAdjust="spacing" textLength="183.375" x="655.5634" y="53.032">execution_type = 'partition' or 'import'</text></g><!--link Pending to Running--><g class="link" data-entity-1="Pending" data-entity-2="Running" data-source-line="17" data-uid="lnk5" id="link_Pending_Running"><path d="M858.62,147.76 C858.62,153.0475 858.62,158.7873 858.62,164.7967 C858.62,166.299 858.62,167.8182 858.62,169.3514 C858.62,169.7347 858.62,170.1189 858.62,170.5038 C858.62,170.6963 858.62,164.8891 858.62,165.082" fill="none" id="Pending-to-Running" style="stroke:#181818;stroke-width:1;"/><polygon fill="#181818" points="858.62,171.082,862.62,162.082,858.62,166.082,854.62,162.082,858.62,171.082" style="stroke:#181818;stroke-width:1;"/><text fill="#000000" font-family="serif" font-size="12" lengthAdjust="spacing" textLength="160.6465" x="697.62" y="177.0331">PartitionService or ImportQASM</text><text fill="#000000" font-family="serif" font-size="12" lengthAdjust="spacing" textLength="135.9434" x="709.9716" y="190.832">/ asyncio.create_task(run_*)</text><text fill="#000000" font-family="serif" font-size="12" lengthAdjust="spacing" textLength="95.0742" x="730.4061" y="204.6308">runtime elapsed = 0</text></g><!--link *start*Running to Executing--><g class="link" data-entity-1=".start.Running" data-entity-2="Executing" data-source-line="23" data-uid="lnk8" id="link_.start.Running_Executing"><path d="M499.62,278.7 C499.62,297.32 499.62,331.43 499.62,361.58" fill="none" id="*start*Running-to-Executing" style="stroke:#181818;stroke-width:1;"/><polygon fill="#181818" points="499.62,367.58,503.62,358.58,499.62,362.58,495.62,358.58,499.62,367.58" style="stroke:#181818;stroke-width:1;"/></g><!--link Executing to Executing--><g class="link" data-entity-1="Executing" data-entity-2="Executing" data-source-line="28" data-uid="lnk9" id="link_Executing_Executing"><path d="M389.15,367.44 C389.15,352.14 389.15,338.06 389.15,338.06 C389.15,338.06 361.08,338.06 361.08,338.06 C361.08,338.06 361.08,473.06 361.08,473.06 C361.08,473.06 374.93,473.06 374.93,473.06 C374.93,473.06 374.93,464.7 374.93,449.22" fill="none" id="Executing-to-Executing" style="stroke:#181818;stroke-width:1;"/><polygon fill="#181818" points="374.93,443.22,370.93,452.22,374.93,448.22,378.93,452.22,374.93,443.22" style="stroke:#181818;stroke-width:1;"/><text fill="#000000" font-family="serif" font-size="12" lengthAdjust="spacing" textLength="160.6289" x="195.08" y="376.8831">JobUpdate / emit progress update</text><text fill="#000000" font-family="serif" font-size="12" lengthAdjust="spacing" textLength="132.2988" x="209.245" y="390.682">(phase, progress %, results)</text></g><!--link Executing to ExecutionSuccess--><g class="link" data-entity-1="Executing" data-entity-2="ExecutionSuccess" data-source-line="30" data-uid="lnk11" id="link_Executing_ExecutionSuccess"><path d="M624.9,443.37 C624.9,481.29 624.9,534.06 624.9,534.06 C624.9,534.06 630.49,534.06 646.43,534.06" fill="none" id="Executing-to-ExecutionSuccess" style="stroke:#181818;stroke-width:1;"/><polygon fill="#181818" points="652.43,534.06,643.43,530.06,647.43,534.06,643.43,538.06,652.43,534.06" style="stroke:#181818;stroke-width:1;"/><text fill="#000000" font-family="serif" font-size="12" lengthAdjust="spacing" textLength="102.9609" x="460.3854" y="485.6831">execution_complete /</text><text fill="#000000" font-family="serif" font-size="12" lengthAdjust="spacing" textLength="225.9316" x="398.9" y="499.482">(partition: results ready, import: circuit loaded)</text></g><!--link Executing to TimeoutDetected--><g class="link" data-entity-1="Executing" data-entity-2="TimeoutDetected" data-source-line="32" data-uid="lnk13" id="link_Executing_TimeoutDetected"><path d="M371.04,443.32 C371.04,478.35 371.04,525.06 371.04,525.06 C371.04,525.06 367.35,525.06 353.14,525.06" fill="none" id="Executing-to-TimeoutDetected" style="stroke:#181818;stroke-width:1;"/><polygon fill="#181818" points="347.14,525.06,356.14,529.06,352.14,525.06,356.14,521.06,347.14,525.06" style="stroke:#181818;stroke-width:1;"/><text fill="#000000" font-family="serif" font-size="12" lengthAdjust="spacing" textLength="137.9531" x="214.1484" y="479.3431">timeout_threshold_exceeded</text><text fill="#000000" font-family="serif" font-size="12" lengthAdjust="spacing" textLength="174.1699" x="196.04" y="493.142">elapsed_time &gt;= simulationTimeout</text></g><!--link Executing to AbortRequested--><g class="link" data-entity-1="Executing" data-entity-2="AbortRequested" data-source-line="34" data-uid="lnk15" id="link_Executing_AbortRequested"><path d="M499.62,443.29 C499.62,462.21 499.62,478.83 499.62,496.73" fill="none" id="Executing-to-AbortRequested" style="stroke:#181818;stroke-width:1;"/><polygon fill="#181818" points="499.62,502.73,503.62,493.73,499.62,497.73,495.62,493.73,499.62,502.73" style="stroke:#181818;stroke-width:1;"/><text fill="#000000" font-family="serif" font-size="12" lengthAdjust="spacing" textLength="85.3125" x="536.7694" y="456.2131">user_abort_signal</text><text fill="#000000" font-family="serif" font-size="12" lengthAdjust="spacing" textLength="157.6113" x="500.62" y="470.012">user clicks abort or closes circuit</text></g><!--link ExecutionSuccess to Completed--><g class="link" data-entity-1="ExecutionSuccess" data-entity-2="Completed" data-source-line="40" data-uid="lnk17" id="link_ExecutionSuccess_Completed"><path d="M734.73,564.7 C734.73,644.68 734.73,852.26 734.73,939.57" fill="none" id="ExecutionSuccess-to-Completed" style="stroke:#181818;stroke-width:1;"/><polygon fill="#181818" points="734.73,945.57,738.73,936.57,734.73,940.57,730.73,936.57,734.73,945.57" style="stroke:#181818;stroke-width:1;"/><text fill="#000000" font-family="serif" font-size="12" lengthAdjust="spacing" textLength="79.3066" x="660.7271" y="767.3331">results_finalized</text><text fill="#000000" font-family="serif" font-size="12" lengthAdjust="spacing" textLength="128.9883" x="635.8863" y="781.132">/JobStore update job status</text><text fill="#000000" font-family="serif" font-size="12" lengthAdjust="spacing" textLength="136.3008" x="632.23" y="794.9308">WS broadcast to subscribers</text></g><!--link TimeoutDetected to Terminating--><g class="link" data-entity-1="TimeoutDetected" data-entity-2="Terminating" data-source-line="43" data-uid="lnk18" id="link_TimeoutDetected_Terminating"><path d="M198.59,559.08 C198.59,575.87 198.59,593.35 198.59,618.21" fill="none" id="TimeoutDetected-to-Terminating" style="stroke:#181818;stroke-width:1;"/><polygon fill="#181818" points="198.59,624.21,202.59,615.21,198.59,619.21,194.59,615.21,198.59,624.21" style="stroke:#181818;stroke-width:1;"/></g><!--link AbortRequested to Terminating--><g class="link" data-entity-1="AbortRequested" data-entity-2="Terminating" data-source-line="48" data-uid="lnk19" id="link_AbortRequested_Terminating"><path d="M381.32,542.06 C363.46,542.06 350.86,542.06 350.86,542.06 C350.86,542.06 350.86,574.18 350.86,618.11" fill="none" id="AbortRequested-to-Terminating" style="stroke:#181818;stroke-width:1;"/><polygon fill="#181818" points="350.86,624.11,354.86,615.11,350.86,619.11,346.86,615.11,350.86,624.11" style="stroke:#181818;stroke-width:1;"/></g><!--link Terminating to CompletedWithError--><g class="link" data-entity-1="Terminating" data-entity-2="CompletedWithError" data-source-line="61" data-uid="lnk26" id="link_Terminating_CompletedWithError"><path d="M230,884.33 C230,906.77 230,922.4 230,939.71" fill="none" id="Terminating-to-CompletedWithError" style="stroke:#181818;stroke-width:1;"/><polygon fill="#181818" points="230,945.71,234,936.71,230,940.71,226,936.71,230,945.71" style="stroke:#181818;stroke-width:1;"/><text fill="#000000" font-family="serif" font-size="12" lengthAdjust="spacing" textLength="222.2813" x="7" y="898.2231">cleanup_complete / JobStore update job status</text><text fill="#000000" font-family="serif" font-size="12" lengthAdjust="spacing" textLength="136.3008" x="49.9902" y="912.022">WS broadcast to subscribers</text></g><!--link CompletedWithError to *end*--><g class="link" data-entity-1="CompletedWithError" data-entity-2=".end." data-source-line="67" data-uid="lnk28" id="link_CompletedWithError_.end."><path d="M207.62,1021.59 C207.62,1053.55 207.62,1094.06 207.62,1094.06 C207.62,1094.06 419.46,1094.06 472.22,1094.06" fill="none" id="CompletedWithError-to-*end*" style="stroke:#181818;stroke-width:1;"/><polygon fill="#181818" points="478.22,1094.06,469.22,1090.06,473.22,1094.06,469.22,1098.06,478.22,1094.06" style="stroke:#181818;stroke-width:1;"/></g><!--link Completed to *end*--><g class="link" data-entity-1="Completed" data-entity-2=".end." data-source-line="73" data-uid="lnk29" id="link_Completed_.end."><path d="M771.62,1021.59 C771.62,1053.55 771.62,1094.06 771.62,1094.06 C771.62,1094.06 559.78,1094.06 507.03,1094.06" fill="none" id="Completed-to-*end*" style="stroke:#181818;stroke-width:1;"/><polygon fill="#181818" points="501.03,1094.06,510.03,1098.06,506.03,1094.06,510.03,1090.06,501.03,1094.06" style="stroke:#181818;stroke-width:1;"/></g><!--link GMN2 to Pending--><g class="link" data-entity-1="GMN2" data-entity-2="Pending" data-source-line="76" data-uid="lnk4" id="link_GMN2_Pending"><path d="M730.2,117.06 C742.14,117.06 753.94,117.06 765.26,117.06" fill="none" id="GMN2-Pending" style="stroke:#181818;stroke-width:1;stroke-dasharray:7,7;"/></g><!--link GMN5 to Running--><g class="link" data-entity-1="GMN5" data-entity-2="Running" data-source-line="82" data-uid="lnk7" id="link_GMN5_Running"><path d="M893.04,268.06 C884.09,268.06 876.3825,268.06 870.5437,268.06 C869.8139,268.06 869.1133,268.06 868.443,268.06 C868.1079,268.06 867.7804,268.06 867.4607,268.06 C867.3008,268.06 867.1429,268.06 866.9869,268.06 C866.9089,268.06 866.8314,268.06 866.7544,268.06 C866.7159,268.06 866.6775,268.06 866.6393,268.06" fill="none" id="GMN5-Running" style="stroke:#181818;stroke-width:1;stroke-dasharray:7,7;"/></g><!--link ExecutionSuccess to GMN8--><g class="link" data-entity-1="ExecutionSuccess" data-entity-2="GMN8" data-source-line="90" data-uid="lnk10" id="link_ExecutionSuccess_GMN8"><path d="M815.46,564.91 C815.46,606.33 815.46,679.27 815.46,721.51" fill="none" id="ExecutionSuccess-GMN8" style="stroke:#181818;stroke-width:1;stroke-dasharray:7,7;"/></g><!--link TimeoutDetected to GMN11--><g class="link" data-entity-1="TimeoutDetected" data-entity-2="GMN11" data-source-line="97" data-uid="lnk13" id="link_TimeoutDetected_GMN11"><path d="M272.65,559.22 C272.65,571.69 272.65,584.06 272.65,584.06 C272.65,584.06 1002.62,584.06 1002.62,584.06 C1002.62,584.06 1002.62,567.26 1002.62,553.08" fill="none" id="TimeoutDetected-GMN11" style="stroke:#181818;stroke-width:1;stroke-dasharray:7,7;"/></g><!--link AbortRequested to GMN14--><g class="link" data-entity-1="AbortRequested" data-entity-2="GMN14" data-source-line="102" data-uid="lnk16" id="link_AbortRequested_GMN14"><path d="M503.85,564.81 C503.85,583.64 503.85,604.06 503.85,604.06 C503.85,604.06 1176.79,604.06 1176.79,604.06 C1176.79,604.06 1176.79,573.79 1176.79,552.99" fill="none" id="AbortRequested-GMN14" style="stroke:#181818;stroke-width:1;stroke-dasharray:7,7;"/></g><!--link Terminating to GMN17--><g class="link" data-entity-1="Terminating" data-entity-2="GMN17" data-source-line="107" data-uid="lnk19" id="link_Terminating_GMN17"><path d="M355.48,754.06 C366.82,754.06 378.34,754.06 389.7,754.06" fill="none" id="Terminating-GMN17" style="stroke:#181818;stroke-width:1;stroke-dasharray:7,7;"/></g><!--link Completed to GMN20--><g class="link" data-entity-1="Completed" data-entity-2="GMN20" data-source-line="113" data-uid="lnk22" id="link_Completed_GMN20"><path d="M870.5,984.06 C881.67,984.06 893.13,984.06 904.53,984.06" fill="none" id="Completed-GMN20" style="stroke:#181818;stroke-width:1;stroke-dasharray:7,7;"/></g><!--link CompletedWithError to GMN23--><g class="link" data-entity-1="CompletedWithError" data-entity-2="GMN23" data-source-line="120" data-uid="lnk25" id="link_CompletedWithError_GMN23"><path d="M344.03,984.06 C355.54,984.06 367.16,984.06 378.62,984.06" fill="none" id="CompletedWithError-GMN23" style="stroke:#181818;stroke-width:1;stroke-dasharray:7,7;"/></g><!--SRC=[fLTRZnCt57wVNs6bgZQB5hRjOrIGW8949IfAYdXWKUJnd2JkElRKzeHD4V-zdsypaqaMgZOFcwpd-5o-yvtBk5kfMsxvZZb_K8I_LWhVxLJbHa-ufsTSt6wiwNJpt2XZsNSlusSiHdzrf0Mz9kVuXfugkT5CaFPaHr8DhNcd_4kZ_Mzy1uDavVhyywNyczYFFuqUAgd97rfYnlgjgRnfcJUiDjuRt9IMX9T6LzLMDiHer_e3z3bXPPlEFppuo1u-VCBUa6watYmOQVZSqQ-cdlzfwfLihfYGLdJIly9FkYFHXPkhOFJoHXyViCVi0dvv6Kuku1ExaBiMhbrKrSY2jmTs3H2D9GOZJ6h6uUUULlZFZIJlf8UW9QI0zabsRH7OMBg8np3UTbh7gs-A5qkoUoa2FknLTENtfylND_gQSNVGGff7mXAIkVBStSvjfrSF41M-lKGgIF7MKOEmVgYgNdS9G6fOu2haf8U1XNlsHeCXrhCQ585teyVp7fxWKGA71PSkH_fBsCBOXgsbvcfYeAeY0qkux7F5y2cvV95azIQUnZ_zqOB9DUjzM8IVZgw6aolcvAvJK8xSAaT1F7dPomgZzmIlEG9JXZVHVPmsTCRKF4EuYdZ-7BqtdRyCMY3KqHaVZuDOC73nNTk4UAz1OM3JMhEng2dMnUCRFM-tF8PH7dn_1VWSgiPTViC06D89WJkBWSh2x5f5mLvGFO2LLUARDuUh7fTS7n4CQkur-4SA_HSe5fwQHS5YvRTGl3MgMT6T88AEWFq8jYUFIrRWHbPpdvMdDNnw6ngFYqOwj9CL3uShX_R3rOqEHqmeAMuTYqy25OKoZbo9fVfILIS0zSGNHYd4aAcPKJadduZSMWA8gNmpj878I1q_jHA3U9uJqFIOhw8jb1gmkGOXbh5vfFn7nQ4WEdUZtozPRP48mPqFhT1rTMXtDLcqYfCKzBs884ns1oEH0SYmWukFsImdQJQzcr9Qhg3MgYdotzOzv6PsUZjXvqBxI4bAwGinJPlRrFQfRwbTZ8ucBUEv8XuwoRjsuDLmjWYzkXrw47f0UDQr8JkciyZRoOs6OWMDElM7D4y-dhCGdNXMyhQCkLmCse4PH54FmzqJuJxhaHtXh1zWim8_DJDqzyyf0xdhSRNA7FiIM3_6w8YAxwNVlh3Ms4M9VjGds7-cv3dzXJc5yr5R6WTdvV7uKJ8MM4NXS7PUSUYU8ouoRRnSIv7-cMUkXtOmKFFod8yH6f1dzEnVkZtrjc0uEz8K_7Iv8Hpv-0aUz1rdk3Bu0sbYYjQ8ObsscaYOs7tYh6zOVOW1Gb6icAie4FUH9YmZxe0gsYLRUSYp7NaUEbQIdQmz4cRW8FhdVUETVJBsTgtCfoeKT71ouceUvL5xMHjIyQX3DZUqvrvRyaPmpMeQR3-iGwsmkMkLzCD4ZmBkSk9PKh4XJJP5WFNJ89pfb7L9S6S0YB5kif4mlk5I1tud3WsEUSkrIv14xgUameV8K_ZajsuAIjvV0SjqF1oZNyO9WisArvrIXsHyI4L1Qy6uKiEvwv5f-dKXQAonKpT9nxaCBeQ59wr4JRyJmO-o5KKc8U2SiQHE6pQgiJnxXUWiY3V5mChDDZ9ZCdWc2AGzDUyDmO-rt7I1nqhkYbdU0KtKZpYgVIpLcmrzpVBnL8cgOjdG7OWbf0SpaM61FN7aq5vozkvLDXmZp5KMPbdiVvdUzmSycbon70pgiE36-taOcPEHtr0os6cqYe13da_WS615PcC-tFAs9MGVhqJOGGKuSM1hv2FQSNW_uwW0TwzxVTFfsqg_cwIMKJYUcbooNUZ5zrmgNkEzCbZSIzU5cp4XIH3lDtW_JAPJB07GzrGl3L3B2UrBi-QMuTKEWGmCRYJgdXzm4rY7V7qxahwltnTIgjLnG6CcvOscp8_hD3Towo-bb8Tjx-QE7qBJwW7vl-6FNVmQ1ly0]--></g></svg>