<svg xmlns="http://www.w3.org/2000/svg" xmlns:xlink="http://www.w3.org/1999/xlink" contentStyleType="text/css" data-diagram-type="DESCRIPTION" height="1075px" preserveAspectRatio="none" style="width:918px;height:1075px;background:#FFFFFF;" version="1.1" viewBox="0 0 918 1075" width="918px" zoomAndPan="magnify"><defs/><g><!--cluster Quantum Circuit Composer--><g class="cluster" data-entity="Quantum Circuit Composer" data-source-line="13" data-uid="ent0003" id="cluster_Quantum Circuit Composer"><polygon fill="none" points="76.5,59.8,227.1621,59.8,234.1621,79.5988,821.71,79.5988,821.71,576.8,76.5,576.8,76.5,59.8" style="stroke:#000000;stroke-width:1.5;"/><line style="stroke:#000000;stroke-width:1.5;" x1="76.5" x2="234.1621" y1="79.5988" y2="79.5988"/><text fill="#000000" font-family="serif" font-size="12" font-weight="bold" lengthAdjust="spacing" textLength="144.6621" x="80.5" y="73.0031">Quantum Circuit Composer</text></g><!--entity DesignCircuit--><g class="entity" data-entity="DesignCircuit" data-source-line="14" data-uid="ent0004" id="entity_DesignCircuit"><ellipse cx="149.9765" cy="105.7953" fill="#F1F1F1" rx="57.4765" ry="13.8953" style="stroke:#181818;stroke-width:0.5;"/><text fill="#000000" font-family="serif" font-size="12" lengthAdjust="spacing" textLength="70.3242" x="114.8144" y="108.099">Design Circuit</text><line style="stroke:#181818;stroke-width:0.5;" x1="202.8719" x2="188.0765" y1="100.9514" y2="115.7468"/></g><!--entity AddGate--><g class="entity" data-entity="AddGate" data-source-line="16" data-uid="ent0005" id="entity_AddGate"><ellipse cx="400.432" cy="303.7972" fill="#F1F1F1" rx="35.752" ry="12.7572" style="stroke:#181818;stroke-width:0.5;"/><text fill="#000000" font-family="serif" font-size="12" lengthAdjust="spacing" textLength="46.3184" x="377.2728" y="307.1967">Add Gate</text></g><!--entity EditGate--><g class="entity" data-entity="EditGate" data-source-line="17" data-uid="ent0006" id="entity_EditGate"><ellipse cx="400.4297" cy="242.7972" fill="#F1F1F1" rx="35.2797" ry="12.7572" style="stroke:#181818;stroke-width:0.5;"/><text fill="#000000" font-family="serif" font-size="12" lengthAdjust="spacing" textLength="45.6504" x="377.6045" y="246.1967">Edit Gate</text></g><!--entity MoveGate--><g class="entity" data-entity="MoveGate" data-source-line="18" data-uid="ent0007" id="entity_MoveGate"><ellipse cx="400.4252" cy="547.7972" fill="#F1F1F1" rx="40.9352" ry="12.7572" style="stroke:#181818;stroke-width:0.5;"/><text fill="#000000" font-family="serif" font-size="12" lengthAdjust="spacing" textLength="53.6484" x="373.601" y="551.1967">Move Gate</text></g><!--entity DeleteGate--><g class="entity" data-entity="DeleteGate" data-source-line="19" data-uid="ent0008" id="entity_DeleteGate"><ellipse cx="400.4302" cy="364.7972" fill="#F1F1F1" rx="43.2802" ry="12.7572" style="stroke:#181818;stroke-width:0.5;"/><text fill="#000000" font-family="serif" font-size="12" lengthAdjust="spacing" textLength="56.9648" x="371.9478" y="368.1967">Delete Gate</text></g><!--entity GroupGates--><g class="entity" data-entity="GroupGates" data-source-line="20" data-uid="ent0009" id="entity_GroupGates"><ellipse cx="400.4325" cy="425.7972" fill="#F1F1F1" rx="46.1225" ry="12.7572" style="stroke:#181818;stroke-width:0.5;"/><text fill="#000000" font-family="serif" font-size="12" lengthAdjust="spacing" textLength="60.9844" x="369.9403" y="429.1967">Group Gates</text></g><!--entity UngroupGates--><g class="entity" data-entity="UngroupGates" data-source-line="21" data-uid="ent0010" id="entity_UngroupGates"><ellipse cx="400.4268" cy="486.8034" fill="#F1F1F1" rx="53.2168" ry="13.0434" style="stroke:#181818;stroke-width:0.5;"/><text fill="#000000" font-family="serif" font-size="12" lengthAdjust="spacing" textLength="72.9844" x="363.9346" y="490.2028">Ungroup Gates</text></g><!--entity ImportQASM--><g class="entity" data-entity="ImportQASM" data-source-line="23" data-uid="ent0011" id="entity_ImportQASM"><ellipse cx="400.4329" cy="104.8026" fill="#F1F1F1" rx="52.2629" ry="12.8526" style="stroke:#181818;stroke-width:0.5;"/><text fill="#000000" font-family="serif" font-size="12" lengthAdjust="spacing" textLength="70.3359" x="365.2649" y="108.202">Import QASM</text></g><!--entity ParseQASM--><g class="entity" data-entity="ParseQASM" data-source-line="24" data-uid="ent0012" id="entity_ParseQASM"><ellipse cx="752.5253" cy="112.8008" fill="#F1F1F1" rx="45.3353" ry="21.3508" style="stroke:#181818;stroke-width:0.5;"/><text fill="#000000" font-family="serif" font-size="12" font-style="italic" lengthAdjust="spacing" textLength="45.3223" x="729.8642" y="107.5991">&#171;System&#187;</text><text fill="#000000" font-family="serif" font-size="12" lengthAdjust="spacing" textLength="63.668" x="720.6913" y="121.398">Parse QASM</text></g><!--entity ValidateCircuit--><g class="entity" data-entity="ValidateCircuit" data-source-line="25" data-uid="ent0013" id="entity_ValidateCircuit"><ellipse cx="752.5315" cy="216.8016" fill="#F1F1F1" rx="53.1815" ry="20.9916" style="stroke:#181818;stroke-width:0.5;"/><text fill="#000000" font-family="serif" font-size="12" font-style="italic" lengthAdjust="spacing" textLength="45.3223" x="729.8704" y="211.0478">&#171;System&#187;</text><text fill="#000000" font-family="serif" font-size="12" lengthAdjust="spacing" textLength="76.9746" x="714.0442" y="224.8466">Validate Circuit</text></g><!--entity UpdateCanvas--><g class="entity" data-entity="UpdateCanvas" data-source-line="27" data-uid="ent0014" id="entity_UpdateCanvas"><ellipse cx="752.5255" cy="356.7982" fill="#F1F1F1" rx="50.8055" ry="21.0782" style="stroke:#181818;stroke-width:0.5;"/><text fill="#000000" font-family="serif" font-size="12" font-style="italic" lengthAdjust="spacing" textLength="45.3223" x="729.8644" y="351.179">&#171;System&#187;</text><text fill="#000000" font-family="serif" font-size="12" lengthAdjust="spacing" textLength="72.9785" x="716.0363" y="364.9778">Update Canvas</text></g><!--entity UpdateDAG--><g class="entity" data-entity="UpdateDAG" data-source-line="28" data-uid="ent0015" id="entity_UpdateDAG"><ellipse cx="752.5251" cy="433.8014" fill="#F1F1F1" rx="45.3251" ry="21.3514" style="stroke:#181818;stroke-width:0.5;"/><text fill="#000000" font-family="serif" font-size="12" font-style="italic" lengthAdjust="spacing" textLength="45.3223" x="729.864" y="428.6007">&#171;System&#187;</text><text fill="#000000" font-family="serif" font-size="12" lengthAdjust="spacing" textLength="63.6504" x="720.6999" y="442.3996">Update DAG</text></g><!--entity AutoSaveCircuit--><g class="entity" data-entity="AutoSaveCircuit" data-source-line="29" data-uid="ent0016" id="entity_AutoSaveCircuit"><ellipse cx="400.4298" cy="173.8049" fill="#F1F1F1" rx="58.3798" ry="20.8449" style="stroke:#181818;stroke-width:0.5;"/><text fill="#000000" font-family="serif" font-size="12" font-style="italic" lengthAdjust="spacing" textLength="45.3223" x="377.7686" y="167.8212">&#171;System&#187;</text><text fill="#000000" font-family="serif" font-size="12" lengthAdjust="spacing" textLength="85.6465" x="357.6065" y="181.62">Auto-save Circuit</text></g><!--entity User--><g class="entity" data-entity="User" data-source-line="11" data-uid="ent0002" id="entity_User"><ellipse cx="19" cy="322.4" fill="#FFFFFF" rx="8" ry="8" style="stroke:#000000;stroke-width:0.5;"/><path d="M19,330.4 L19,357.4 M6,338.4 L32,338.4 M19,357.4 L6,372.4 M19,357.4 L32,372.4" fill="none" style="stroke:#000000;stroke-width:0.5;"/><text fill="#000000" font-family="serif" font-size="12" lengthAdjust="spacing" textLength="22.6582" x="7.6709" y="385.1031">User</text></g><g class="entity" data-entity="GMN49" data-source-line="75" data-uid="ent0050" id="entity_GMN49"><path d="M267.45,6 L267.45,43.5977 L533.3953,43.5977 L533.3953,16 L523.3953,6 L267.45,6" fill="#FEFFDD" style="stroke:#181818;stroke-width:0.5;"/><path d="M523.3953,6 L523.3953,16 L533.3953,16 L523.3953,6" fill="#FEFFDD" style="stroke:#181818;stroke-width:1;"/><text fill="#000000" font-family="serif" font-size="12" lengthAdjust="spacing" textLength="219.6035" x="273.45" y="22.2031">primary workflow for creating and modifying</text><text fill="#000000" font-family="serif" font-size="12" lengthAdjust="spacing" textLength="244.9453" x="273.45" y="36.002">quantum circuits within the composer environment</text></g><g class="entity" data-entity="GMN52" data-source-line="80" data-uid="ent0053" id="entity_GMN52"><path d="M593.4,812 L593.4,849.5977 L911.6578,849.5977 L911.6578,822 L901.6578,812 L593.4,812" fill="#FEFFDD" style="stroke:#181818;stroke-width:0.5;"/><path d="M901.6578,812 L901.6578,822 L911.6578,822 L901.6578,812" fill="#FEFFDD" style="stroke:#181818;stroke-width:1;"/><text fill="#000000" font-family="serif" font-size="12" lengthAdjust="spacing" textLength="280.2363" x="599.4" y="828.2031">place quantum gate on circuit canvas at specified position,</text><text fill="#000000" font-family="serif" font-size="12" lengthAdjust="spacing" textLength="297.2578" x="599.4" y="842.002">insert into DAG structure and push overlapping gates forward</text></g><g class="entity" data-entity="GMN55" data-source-line="85" data-uid="ent0056" id="entity_GMN55"><path d="M612.57,739 L612.57,776.5977 L892.4899,776.5977 L892.4899,749 L882.4899,739 L612.57,739" fill="#FEFFDD" style="stroke:#181818;stroke-width:0.5;"/><path d="M882.4899,739 L882.4899,749 L892.4899,749 L882.4899,739" fill="#FEFFDD" style="stroke:#181818;stroke-width:1;"/><text fill="#000000" font-family="serif" font-size="12" lengthAdjust="spacing" textLength="258.9199" x="618.57" y="755.2031">modify gate configuration including type, parameters,</text><text fill="#000000" font-family="serif" font-size="12" lengthAdjust="spacing" textLength="209.3027" x="618.57" y="769.002">target qubits, and control qubit assignments</text></g><g class="entity" data-entity="GMN58" data-source-line="90" data-uid="ent0059" id="entity_GMN58"><path d="M622.06,1031 L622.06,1068.5977 L882.9897,1068.5977 L882.9897,1041 L872.9897,1031 L622.06,1031" fill="#FEFFDD" style="stroke:#181818;stroke-width:0.5;"/><path d="M872.9897,1031 L872.9897,1041 L882.9897,1041 L872.9897,1031" fill="#FEFFDD" style="stroke:#181818;stroke-width:1;"/><text fill="#000000" font-family="serif" font-size="12" lengthAdjust="spacing" textLength="239.9297" x="628.06" y="1047.2031">reposition gate on canvas to new qubit placement,</text><text fill="#000000" font-family="serif" font-size="12" lengthAdjust="spacing" textLength="209.9121" x="628.06" y="1061.002">update internal circuit structure accordingly</text></g><g class="entity" data-entity="GMN61" data-source-line="95" data-uid="ent0062" id="entity_GMN61"><path d="M610.23,885 L610.23,922.5977 L894.8257,922.5977 L894.8257,895 L884.8257,885 L610.23,885" fill="#FEFFDD" style="stroke:#181818;stroke-width:0.5;"/><path d="M884.8257,885 L884.8257,895 L894.8257,895 L884.8257,885" fill="#FEFFDD" style="stroke:#181818;stroke-width:1;"/><text fill="#000000" font-family="serif" font-size="12" lengthAdjust="spacing" textLength="263.5957" x="616.23" y="901.2031">combine multiple gates into composite circuit element,</text><text fill="#000000" font-family="serif" font-size="12" lengthAdjust="spacing" textLength="248.5723" x="616.23" y="915.002">register new composite gate in gates panel for reuse</text></g><g class="entity" data-entity="GMN64" data-source-line="100" data-uid="ent0065" id="entity_GMN64"><path d="M605.23,958 L605.23,995.5977 L899.8218,995.5977 L899.8218,968 L889.8218,958 L605.23,958" fill="#FEFFDD" style="stroke:#181818;stroke-width:0.5;"/><path d="M889.8218,958 L889.8218,968 L899.8218,968 L889.8218,958" fill="#FEFFDD" style="stroke:#181818;stroke-width:1;"/><text fill="#000000" font-family="serif" font-size="12" lengthAdjust="spacing" textLength="273.5918" x="611.23" y="974.2031">decompose composite circuit back into constituent gates,</text><text fill="#000000" font-family="serif" font-size="12" lengthAdjust="spacing" textLength="226.5938" x="611.23" y="988.002">restore individual gates to circuit canvas layout</text></g><g class="entity" data-entity="GMN67" data-source-line="105" data-uid="ent0068" id="entity_GMN67"><path d="M613.25,593 L613.25,630.5977 L891.8047,630.5977 L891.8047,603 L881.8047,593 L613.25,593" fill="#FEFFDD" style="stroke:#181818;stroke-width:0.5;"/><path d="M881.8047,593 L881.8047,603 L891.8047,603 L881.8047,593" fill="#FEFFDD" style="stroke:#181818;stroke-width:1;"/><text fill="#000000" font-family="serif" font-size="12" lengthAdjust="spacing" textLength="197.6191" x="619.25" y="609.2031">load OpenQASM code file, parse syntax,</text><text fill="#000000" font-family="serif" font-size="12" lengthAdjust="spacing" textLength="257.5547" x="619.25" y="623.002">convert to circuit representation and render on canvas</text></g><g class="entity" data-entity="GMN70" data-source-line="110" data-uid="ent0071" id="entity_GMN70"><path d="M601.58,666 L601.58,703.5977 L903.4726,703.5977 L903.4726,676 L893.4726,666 L601.58,666" fill="#FEFFDD" style="stroke:#181818;stroke-width:0.5;"/><path d="M893.4726,666 L893.4726,676 L903.4726,676 L893.4726,666" fill="#FEFFDD" style="stroke:#181818;stroke-width:1;"/><text fill="#000000" font-family="serif" font-size="12" lengthAdjust="spacing" textLength="280.8926" x="607.58" y="682.2031">automatically synchronize circuit state to backend storage,</text><text fill="#000000" font-family="serif" font-size="12" lengthAdjust="spacing" textLength="224.9355" x="607.58" y="696.002">debounced at 1-second intervals during editing</text></g><!--link User to DesignCircuit--><g class="link" data-entity-1="User" data-entity-2="DesignCircuit" data-source-line="32" data-uid="lnk17" id="link_User_DesignCircuit"><path d="M18.66,313.59 C18.66,245.05 18.66,105.8 18.66,105.8 C18.66,105.8 51.09,105.8 86.38,105.8" fill="none" id="User-to-DesignCircuit" style="stroke:#181818;stroke-width:1;"/><polygon fill="#181818" points="92.38,105.8,83.38,101.8,87.38,105.8,83.38,109.8,92.38,105.8" style="stroke:#181818;stroke-width:1;"/></g><!--link User to AddGate--><g class="link" data-entity-1="User" data-entity-2="AddGate" data-source-line="33" data-uid="lnk18" id="link_User_AddGate"><path d="M12.66,313.63 C12.66,309.24 12.66,306.28 12.66,306.28 C12.66,306.28 263.26,306.28 358.99,306.28" fill="none" id="User-to-AddGate" style="stroke:#181818;stroke-width:1;"/><polygon fill="#181818" points="364.99,306.28,355.99,302.28,359.99,306.28,355.99,310.28,364.99,306.28" style="stroke:#181818;stroke-width:1;"/></g><!--link User to EditGate--><g class="link" data-entity-1="User" data-entity-2="EditGate" data-source-line="34" data-uid="lnk19" id="link_User_EditGate"><path d="M25.66,313.64 C25.66,283.87 25.66,247.05 25.66,247.05 C25.66,247.05 268.85,247.05 360.84,247.05" fill="none" id="User-to-EditGate" style="stroke:#181818;stroke-width:1;"/><polygon fill="#181818" points="366.84,247.05,357.84,243.05,361.84,247.05,357.84,251.05,366.84,247.05" style="stroke:#181818;stroke-width:1;"/></g><!--link User to MoveGate--><g class="link" data-entity-1="User" data-entity-2="MoveGate" data-source-line="35" data-uid="lnk20" id="link_User_MoveGate"><path d="M14.66,388.18 C14.66,446.38 14.66,552.05 14.66,552.05 C14.66,552.05 257.24,552.05 355.31,552.05" fill="none" id="User-to-MoveGate" style="stroke:#181818;stroke-width:1;"/><polygon fill="#181818" points="361.31,552.05,352.31,548.05,356.31,552.05,352.31,556.05,361.31,552.05" style="stroke:#181818;stroke-width:1;"/></g><!--link User to DeleteGate--><g class="link" data-entity-1="User" data-entity-2="DeleteGate" data-source-line="36" data-uid="lnk21" id="link_User_DeleteGate"><path d="M32.58,369.05 C84.86,369.05 268.51,369.05 353.15,369.05" fill="none" id="User-to-DeleteGate" style="stroke:#181818;stroke-width:1;"/><polygon fill="#181818" points="359.15,369.05,350.15,365.05,354.15,369.05,350.15,373.05,359.15,369.05" style="stroke:#181818;stroke-width:1;"/></g><!--link User to GroupGates--><g class="link" data-entity-1="User" data-entity-2="GroupGates" data-source-line="37" data-uid="lnk22" id="link_User_GroupGates"><path d="M23.66,388.11 C23.66,408.66 23.66,430.05 23.66,430.05 C23.66,430.05 251.08,430.05 350.47,430.05" fill="none" id="User-to-GroupGates" style="stroke:#181818;stroke-width:1;"/><polygon fill="#181818" points="356.47,430.05,347.47,426.05,351.47,430.05,347.47,434.05,356.47,430.05" style="stroke:#181818;stroke-width:1;"/></g><!--link User to UngroupGates--><g class="link" data-entity-1="User" data-entity-2="UngroupGates" data-source-line="38" data-uid="lnk23" id="link_User_UngroupGates"><path d="M32.83,382.79 C95.6,382.79 350.66,382.79 350.66,382.79 C350.66,382.79 350.66,455.01 350.66,475.78" fill="none" id="User-to-UngroupGates" style="stroke:#181818;stroke-width:1;"/><polygon fill="#181818" points="350.66,481.78,354.66,472.78,350.66,476.78,346.66,472.78,350.66,481.78" style="stroke:#181818;stroke-width:1;"/></g><!--link User to ImportQASM--><g class="link" data-entity-1="User" data-entity-2="ImportQASM" data-source-line="39" data-uid="lnk24" id="link_User_ImportQASM"><path d="M32.68,326.14 C80.55,326.14 237.66,326.14 237.66,326.14 C237.66,326.14 237.66,109.09 237.66,109.09 C237.66,109.09 296.84,109.09 344.71,109.09" fill="none" id="User-to-ImportQASM" style="stroke:#181818;stroke-width:1;"/><polygon fill="#181818" points="350.71,109.09,341.71,105.09,345.71,109.09,341.71,113.09,350.71,109.09" style="stroke:#181818;stroke-width:1;"/></g><!--link DesignCircuit to AddGate--><g class="link" data-entity-1="DesignCircuit" data-entity-2="AddGate" data-source-line="41" data-uid="lnk25" id="link_DesignCircuit_AddGate"><path d="M164.66,119.67 C164.66,163.89 164.66,298.66 164.66,298.66 C164.66,298.66 296.16,298.66 361.15,298.66" fill="none" id="DesignCircuit-to-AddGate" style="stroke:#181818;stroke-width:1;"/><polygon fill="#181818" points="367.15,298.66,358.15,294.66,362.15,298.66,358.15,302.66,367.15,298.66" style="stroke:#181818;stroke-width:1;"/><text fill="#000000" font-family="serif" font-size="12" lengthAdjust="spacing" textLength="47.3203" x="128.41" y="310.8631">&#171;include&#187;</text></g><!--link DesignCircuit to EditGate--><g class="link" data-entity-1="DesignCircuit" data-entity-2="EditGate" data-source-line="42" data-uid="lnk26" id="link_DesignCircuit_EditGate"><path d="M178.66,118.05 C178.66,150.91 178.66,238.55 178.66,238.55 C178.66,238.55 298.7,238.55 360.74,238.55" fill="none" id="DesignCircuit-to-EditGate" style="stroke:#181818;stroke-width:1;"/><polygon fill="#181818" points="366.74,238.55,357.74,234.55,361.74,238.55,357.74,242.55,366.74,238.55" style="stroke:#181818;stroke-width:1;"/><text fill="#000000" font-family="serif" font-size="12" lengthAdjust="spacing" textLength="47.3203" x="164.45" y="250.7531">&#171;include&#187;</text></g><!--link DesignCircuit to MoveGate--><g class="link" data-entity-1="DesignCircuit" data-entity-2="MoveGate" data-source-line="43" data-uid="lnk27" id="link_DesignCircuit_MoveGate"><path d="M106.66,115.35 C106.66,179.37 106.66,543.55 106.66,543.55 C106.66,543.55 275.5,543.55 355.42,543.55" fill="none" id="DesignCircuit-to-MoveGate" style="stroke:#181818;stroke-width:1;"/><polygon fill="#181818" points="361.42,543.55,352.42,539.55,356.42,543.55,352.42,547.55,361.42,543.55" style="stroke:#181818;stroke-width:1;"/><text fill="#000000" font-family="serif" font-size="12" lengthAdjust="spacing" textLength="47.3203" x="58.66" y="469.0331">&#171;include&#187;</text></g><!--link DesignCircuit to DeleteGate--><g class="link" data-entity-1="DesignCircuit" data-entity-2="DeleteGate" data-source-line="44" data-uid="lnk28" id="link_DesignCircuit_DeleteGate"><path d="M149.66,119.86 C149.66,173.27 149.66,360.55 149.66,360.55 C149.66,360.55 281.79,360.55 353.02,360.55" fill="none" id="DesignCircuit-to-DeleteGate" style="stroke:#181818;stroke-width:1;"/><polygon fill="#181818" points="359.02,360.55,350.02,356.55,354.02,360.55,350.02,364.55,359.02,360.55" style="stroke:#181818;stroke-width:1;"/><text fill="#000000" font-family="serif" font-size="12" lengthAdjust="spacing" textLength="47.3203" x="101.66" y="357.0831">&#171;include&#187;</text></g><!--link DesignCircuit to GroupGates--><g class="link" data-entity-1="DesignCircuit" data-entity-2="GroupGates" data-source-line="45" data-uid="lnk29" id="link_DesignCircuit_GroupGates"><path d="M135.66,119.37 C135.66,179.8 135.66,421.55 135.66,421.55 C135.66,421.55 275.12,421.55 350.41,421.55" fill="none" id="DesignCircuit-to-GroupGates" style="stroke:#181818;stroke-width:1;"/><polygon fill="#181818" points="356.41,421.55,347.41,417.55,351.41,421.55,347.41,425.55,356.41,421.55" style="stroke:#181818;stroke-width:1;"/><text fill="#000000" font-family="serif" font-size="12" lengthAdjust="spacing" textLength="47.3203" x="87.66" y="393.0331">&#171;include&#187;</text></g><!--link DesignCircuit to UngroupGates--><g class="link" data-entity-1="DesignCircuit" data-entity-2="UngroupGates" data-source-line="46" data-uid="lnk30" id="link_DesignCircuit_UngroupGates"><path d="M121.66,118.05 C121.66,183.26 121.66,486.8 121.66,486.8 C121.66,486.8 260.06,486.8 341.01,486.8" fill="none" id="DesignCircuit-to-UngroupGates" style="stroke:#181818;stroke-width:1;"/><polygon fill="#181818" points="347.01,486.8,338.01,482.8,342.01,486.8,338.01,490.8,347.01,486.8" style="stroke:#181818;stroke-width:1;"/><text fill="#000000" font-family="serif" font-size="12" lengthAdjust="spacing" textLength="47.3203" x="73.66" y="427.3031">&#171;include&#187;</text></g><!--link DesignCircuit to AutoSaveCircuit--><g class="link" data-entity-1="DesignCircuit" data-entity-2="AutoSaveCircuit" data-source-line="47" data-uid="lnk31" id="link_DesignCircuit_AutoSaveCircuit"><path d="M192.66,115.54 C192.66,134.35 192.66,173.8 192.66,173.8 C192.66,173.8 274.28,173.8 335.72,173.8" fill="none" id="DesignCircuit-to-AutoSaveCircuit" style="stroke:#181818;stroke-width:1;"/><polygon fill="#181818" points="341.72,173.8,332.72,169.8,336.72,173.8,332.72,177.8,341.72,173.8" style="stroke:#181818;stroke-width:1;"/><text fill="#000000" font-family="serif" font-size="12" lengthAdjust="spacing" textLength="47.3203" x="190.06" y="186.0031">&#171;include&#187;</text></g><!--link AddGate to UpdateDAG--><g class="link" data-entity-1="AddGate" data-entity-2="UpdateDAG" data-source-line="49" data-uid="lnk32" id="link_AddGate_UpdateDAG"><path d="M431.9,310.18 C479.33,310.18 563.66,310.18 563.66,310.18 C563.66,310.18 563.66,421.55 563.66,421.55 C563.66,421.55 653.64,421.55 708.76,421.55" fill="none" id="AddGate-to-UpdateDAG" style="stroke:#181818;stroke-width:1;"/><polygon fill="#181818" points="714.76,421.55,705.76,417.55,709.76,421.55,705.76,425.55,714.76,421.55" style="stroke:#181818;stroke-width:1;"/><text fill="#000000" font-family="serif" font-size="12" lengthAdjust="spacing" textLength="47.3203" x="515.66" y="387.7431">&#171;include&#187;</text></g><!--link AddGate to UpdateCanvas--><g class="link" data-entity-1="AddGate" data-entity-2="UpdateCanvas" data-source-line="50" data-uid="lnk33" id="link_AddGate_UpdateCanvas"><path d="M400.66,316.88 C400.66,329.46 400.66,346.6 400.66,346.6 C400.66,346.6 606.75,346.6 701.61,346.6" fill="none" id="AddGate-to-UpdateCanvas" style="stroke:#181818;stroke-width:1;"/><polygon fill="#181818" points="707.61,346.6,698.61,342.6,702.61,346.6,698.61,350.6,707.61,346.6" style="stroke:#181818;stroke-width:1;"/><text fill="#000000" font-family="serif" font-size="12" lengthAdjust="spacing" textLength="47.3203" x="491.27" y="343.8031">&#171;include&#187;</text></g><!--link AddGate to ValidateCircuit--><g class="link" data-entity-1="AddGate" data-entity-2="ValidateCircuit" data-source-line="51" data-uid="lnk34" id="link_AddGate_ValidateCircuit"><path d="M431.91,297.42 C521.2,297.42 769.66,297.42 769.66,297.42 C769.66,297.42 769.66,267.03 769.66,243.15" fill="none" id="AddGate-to-ValidateCircuit" style="stroke:#181818;stroke-width:1;"/><polygon fill="#181818" points="769.66,237.15,765.66,246.15,769.66,242.15,773.66,246.15,769.66,237.15" style="stroke:#181818;stroke-width:1;"/><text fill="#000000" font-family="serif" font-size="12" lengthAdjust="spacing" textLength="47.3203" x="582.92" y="309.6231">&#171;include&#187;</text></g><!--link EditGate to UpdateCanvas--><g class="link" data-entity-1="EditGate" data-entity-2="UpdateCanvas" data-source-line="53" data-uid="lnk35" id="link_EditGate_UpdateCanvas"><path d="M435.98,243.71 C522.26,243.71 735.66,243.71 735.66,243.71 C735.66,243.71 735.66,298.06 735.66,330.58" fill="none" id="EditGate-to-UpdateCanvas" style="stroke:#181818;stroke-width:1;"/><polygon fill="#181818" points="735.66,336.58,739.66,327.58,735.66,331.58,731.66,327.58,735.66,336.58" style="stroke:#181818;stroke-width:1;"/><text fill="#000000" font-family="serif" font-size="12" lengthAdjust="spacing" textLength="47.3203" x="633.25" y="255.9131">&#171;include&#187;</text></g><!--link EditGate to ValidateCircuit--><g class="link" data-entity-1="EditGate" data-entity-2="ValidateCircuit" data-source-line="54" data-uid="lnk36" id="link_EditGate_ValidateCircuit"><path d="M426.89,233.92 C490.38,233.92 645.2,233.92 714.23,233.92" fill="none" id="EditGate-to-ValidateCircuit" style="stroke:#181818;stroke-width:1;"/><polygon fill="#181818" points="720.23,233.92,711.23,229.92,715.23,233.92,711.23,237.92,720.23,233.92" style="stroke:#181818;stroke-width:1;"/><text fill="#000000" font-family="serif" font-size="12" lengthAdjust="spacing" textLength="47.3203" x="574.56" y="246.1231">&#171;include&#187;</text></g><!--link MoveGate to UpdateDAG--><g class="link" data-entity-1="MoveGate" data-entity-2="UpdateDAG" data-source-line="56" data-uid="lnk37" id="link_MoveGate_UpdateDAG"><path d="M439.47,552.05 C531.17,552.05 752.66,552.05 752.66,552.05 C752.66,552.05 752.66,495.63 752.66,461.49" fill="none" id="MoveGate-to-UpdateDAG" style="stroke:#181818;stroke-width:1;"/><polygon fill="#181818" points="752.66,455.49,748.66,464.49,752.66,460.49,756.66,464.49,752.66,455.49" style="stroke:#181818;stroke-width:1;"/><text fill="#000000" font-family="serif" font-size="12" lengthAdjust="spacing" textLength="47.3203" x="596.34" y="564.2531">&#171;include&#187;</text></g><!--link MoveGate to UpdateCanvas--><g class="link" data-entity-1="MoveGate" data-entity-2="UpdateCanvas" data-source-line="57" data-uid="lnk38" id="link_MoveGate_UpdateCanvas"><path d="M439.26,543.55 C493.57,543.55 585.66,543.55 585.66,543.55 C585.66,543.55 585.66,373.31 585.66,373.31 C585.66,373.31 664.93,373.31 713.56,373.31" fill="none" id="MoveGate-to-UpdateCanvas" style="stroke:#181818;stroke-width:1;"/><polygon fill="#181818" points="719.56,373.31,710.56,369.31,714.56,373.31,710.56,377.31,719.56,373.31" style="stroke:#181818;stroke-width:1;"/><text fill="#000000" font-family="serif" font-size="12" lengthAdjust="spacing" textLength="47.3203" x="537.66" y="476.8831">&#171;include&#187;</text></g><!--link DeleteGate to UpdateDAG--><g class="link" data-entity-1="DeleteGate" data-entity-2="UpdateDAG" data-source-line="59" data-uid="lnk39" id="link_DeleteGate_UpdateDAG"><path d="M441.62,369.05 C487.6,369.05 555.66,369.05 555.66,369.05 C555.66,369.05 555.66,425.8 555.66,425.8 C555.66,425.8 646.45,425.8 704.29,425.8" fill="none" id="DeleteGate-to-UpdateDAG" style="stroke:#181818;stroke-width:1;"/><polygon fill="#181818" points="710.29,425.8,701.29,421.8,705.29,425.8,701.29,429.8,710.29,425.8" style="stroke:#181818;stroke-width:1;"/><text fill="#000000" font-family="serif" font-size="12" lengthAdjust="spacing" textLength="47.3203" x="507.66" y="429.9331">&#171;include&#187;</text></g><!--link DeleteGate to UpdateCanvas--><g class="link" data-entity-1="DeleteGate" data-entity-2="UpdateCanvas" data-source-line="60" data-uid="lnk40" id="link_DeleteGate_UpdateCanvas"><path d="M433.87,356.3 C495.67,356.3 622.1,356.3 695.29,356.3" fill="none" id="DeleteGate-to-UpdateCanvas" style="stroke:#181818;stroke-width:1;"/><polygon fill="#181818" points="701.29,356.3,692.29,352.3,696.29,356.3,692.29,360.3,701.29,356.3" style="stroke:#181818;stroke-width:1;"/><text fill="#000000" font-family="serif" font-size="12" lengthAdjust="spacing" textLength="47.3203" x="519.58" y="368.5031">&#171;include&#187;</text></g><!--link GroupGates to UpdateDAG--><g class="link" data-entity-1="GroupGates" data-entity-2="UpdateDAG" data-source-line="62" data-uid="lnk41" id="link_GroupGates_UpdateDAG"><path d="M444.31,430.05 C511.6,430.05 633.59,430.05 701.54,430.05" fill="none" id="GroupGates-to-UpdateDAG" style="stroke:#181818;stroke-width:1;"/><polygon fill="#181818" points="707.54,430.05,698.54,426.05,702.54,430.05,698.54,434.05,707.54,430.05" style="stroke:#181818;stroke-width:1;"/><text fill="#000000" font-family="serif" font-size="12" lengthAdjust="spacing" textLength="47.3203" x="576.92" y="442.2531">&#171;include&#187;</text></g><!--link GroupGates to UpdateCanvas--><g class="link" data-entity-1="GroupGates" data-entity-2="UpdateCanvas" data-source-line="63" data-uid="lnk42" id="link_GroupGates_UpdateCanvas"><path d="M436.06,417.3 C488.08,417.3 578.66,417.3 578.66,417.3 C578.66,417.3 578.66,364.8 578.66,364.8 C578.66,364.8 647.54,364.8 699.02,364.8" fill="none" id="GroupGates-to-UpdateCanvas" style="stroke:#181818;stroke-width:1;"/><polygon fill="#181818" points="705.02,364.8,696.02,360.8,700.02,364.8,696.02,368.8,705.02,364.8" style="stroke:#181818;stroke-width:1;"/><text fill="#000000" font-family="serif" font-size="12" lengthAdjust="spacing" textLength="47.3203" x="530.66" y="411.3631">&#171;include&#187;</text></g><!--link UngroupGates to UpdateDAG--><g class="link" data-entity-1="UngroupGates" data-entity-2="UpdateDAG" data-source-line="65" data-uid="lnk43" id="link_UngroupGates_UpdateDAG"><path d="M451.66,482.82 C451.66,472.72 451.66,446.86 451.66,446.86 C451.66,446.86 629.75,446.86 709.94,446.86" fill="none" id="UngroupGates-to-UpdateDAG" style="stroke:#181818;stroke-width:1;"/><polygon fill="#181818" points="715.94,446.86,706.94,442.86,710.94,446.86,706.94,450.86,715.94,446.86" style="stroke:#181818;stroke-width:1;"/><text fill="#000000" font-family="serif" font-size="12" lengthAdjust="spacing" textLength="47.3203" x="517.81" y="459.0631">&#171;include&#187;</text></g><!--link UngroupGates to UpdateCanvas--><g class="link" data-entity-1="UngroupGates" data-entity-2="UpdateCanvas" data-source-line="66" data-uid="lnk44" id="link_UngroupGates_UpdateCanvas"><path d="M448.66,481.05 C448.66,456.35 448.66,360.55 448.66,360.55 C448.66,360.55 609.6,360.55 696.01,360.55" fill="none" id="UngroupGates-to-UpdateCanvas" style="stroke:#181818;stroke-width:1;"/><polygon fill="#181818" points="702.01,360.55,693.01,356.55,697.01,360.55,693.01,364.55,702.01,360.55" style="stroke:#181818;stroke-width:1;"/><text fill="#000000" font-family="serif" font-size="12" lengthAdjust="spacing" textLength="47.3203" x="467.08" y="372.7531">&#171;include&#187;</text></g><!--link ImportQASM to ParseQASM--><g class="link" data-entity-1="ImportQASM" data-entity-2="ParseQASM" data-source-line="68" data-uid="lnk45" id="link_ImportQASM_ParseQASM"><path d="M443.25,97.09 C514.91,97.09 651.49,97.09 714.88,97.09" fill="none" id="ImportQASM-to-ParseQASM" style="stroke:#181818;stroke-width:1;"/><polygon fill="#181818" points="720.88,97.09,711.88,93.09,715.88,97.09,711.88,101.09,720.88,97.09" style="stroke:#181818;stroke-width:1;"/><text fill="#000000" font-family="serif" font-size="12" lengthAdjust="spacing" textLength="47.3203" x="534.06" y="109.2931">&#171;include&#187;</text></g><!--link ImportQASM to UpdateCanvas--><g class="link" data-entity-1="ImportQASM" data-entity-2="UpdateCanvas" data-source-line="69" data-uid="lnk46" id="link_ImportQASM_UpdateCanvas"><path d="M443.38,112.51 C493.81,112.51 570.66,112.51 570.66,112.51 C570.66,112.51 570.66,341.16 570.66,341.16 C570.66,341.16 658.61,341.16 711.46,341.16" fill="none" id="ImportQASM-to-UpdateCanvas" style="stroke:#181818;stroke-width:1;"/><polygon fill="#181818" points="717.46,341.16,708.46,337.16,712.46,341.16,708.46,345.16,717.46,341.16" style="stroke:#181818;stroke-width:1;"/><text fill="#000000" font-family="serif" font-size="12" lengthAdjust="spacing" textLength="47.3203" x="522.66" y="248.8031">&#171;include&#187;</text></g><!--link ImportQASM to ValidateCircuit--><g class="link" data-entity-1="ImportQASM" data-entity-2="ValidateCircuit" data-source-line="70" data-uid="lnk47" id="link_ImportQASM_ValidateCircuit"><path d="M452.03,102.23 C538.83,102.23 704.66,102.23 704.66,102.23 C704.66,102.23 704.66,174.06 704.66,201.43" fill="none" id="ImportQASM-to-ValidateCircuit" style="stroke:#181818;stroke-width:1;"/><polygon fill="#181818" points="704.66,207.43,708.66,198.43,704.66,202.43,700.66,198.43,704.66,207.43" style="stroke:#181818;stroke-width:1;"/><text fill="#000000" font-family="serif" font-size="12" lengthAdjust="spacing" textLength="47.3203" x="582.94" y="114.4331">&#171;include&#187;</text></g><!--link AutoSaveCircuit to ValidateCircuit--><g class="link" data-entity-1="AutoSaveCircuit" data-entity-2="ValidateCircuit" data-source-line="72" data-uid="lnk48" id="link_AutoSaveCircuit_ValidateCircuit"><path d="M456.03,166.85 C543.07,166.85 701.66,166.85 701.66,166.85 C701.66,166.85 701.66,190.73 701.66,204.27" fill="none" id="AutoSaveCircuit-to-ValidateCircuit" style="stroke:#181818;stroke-width:1;"/><polygon fill="#181818" points="701.66,210.27,705.66,201.27,701.66,205.27,697.66,201.27,701.66,210.27" style="stroke:#181818;stroke-width:1;"/><text fill="#000000" font-family="serif" font-size="12" lengthAdjust="spacing" textLength="47.3203" x="552.55" y="179.0531">&#171;include&#187;</text></g><!--link DesignCircuit to GMN49--><g class="link" data-entity-1="DesignCircuit" data-entity-2="GMN49" data-source-line="75" data-uid="lnk51" id="link_DesignCircuit_GMN49"><path d="M203.64,100.52 C248.32,100.52 304.66,100.52 304.66,100.52 C304.66,100.52 304.66,66.34 304.66,43.91" fill="none" id="DesignCircuit-GMN49" style="stroke:#181818;stroke-width:1;stroke-dasharray:7,7;"/></g><!--link AddGate to GMN52--><g class="link" data-entity-1="AddGate" data-entity-2="GMN52" data-source-line="80" data-uid="lnk54" id="link_AddGate_GMN52"><path d="M436.6,303.8 C493.54,303.8 597.66,303.8 597.66,303.8 C597.66,303.8 597.66,717.25 597.66,811.73" fill="none" id="AddGate-GMN52" style="stroke:#181818;stroke-width:1;stroke-dasharray:7,7;"/></g><!--link EditGate to GMN55--><g class="link" data-entity-1="EditGate" data-entity-2="GMN55" data-source-line="85" data-uid="lnk57" id="link_EditGate_GMN55"><path d="M430.78,249.64 C474.15,249.64 548.66,249.64 548.66,249.64 C548.66,249.64 548.66,757.8 548.66,757.8 C548.66,757.8 576.88,757.8 612.32,757.8" fill="none" id="EditGate-GMN55" style="stroke:#181818;stroke-width:1;stroke-dasharray:7,7;"/></g><!--link MoveGate to GMN58--><g class="link" data-entity-1="MoveGate" data-entity-2="GMN58" data-source-line="90" data-uid="lnk60" id="link_MoveGate_GMN58"><path d="M400.66,560.97 C400.66,640.18 400.66,1049.8 400.66,1049.8 C400.66,1049.8 521.86,1049.8 622,1049.8" fill="none" id="MoveGate-GMN58" style="stroke:#181818;stroke-width:1;stroke-dasharray:7,7;"/></g><!--link GroupGates to GMN61--><g class="link" data-entity-1="GroupGates" data-entity-2="GMN61" data-source-line="95" data-uid="lnk63" id="link_GroupGates_GMN61"><path d="M436.17,434.31 C477.72,434.31 540.66,434.31 540.66,434.31 C540.66,434.31 540.66,903.8 540.66,903.8 C540.66,903.8 571.55,903.8 609.74,903.8" fill="none" id="GroupGates-GMN61" style="stroke:#181818;stroke-width:1;stroke-dasharray:7,7;"/></g><!--link UngroupGates to GMN64--><g class="link" data-entity-1="UngroupGates" data-entity-2="GMN64" data-source-line="100" data-uid="lnk66" id="link_UngroupGates_GMN64"><path d="M447.66,493 C447.66,549.72 447.66,976.8 447.66,976.8 C447.66,976.8 527.18,976.8 605,976.8" fill="none" id="UngroupGates-GMN64" style="stroke:#181818;stroke-width:1;stroke-dasharray:7,7;"/></g><!--link ImportQASM to GMN67--><g class="link" data-entity-1="ImportQASM" data-entity-2="GMN67" data-source-line="105" data-uid="lnk69" id="link_ImportQASM_GMN67"><path d="M451.97,107.37 C526.79,107.37 656.66,107.37 656.66,107.37 C656.66,107.37 656.66,500.5 656.66,592.64" fill="none" id="ImportQASM-GMN67" style="stroke:#181818;stroke-width:1;stroke-dasharray:7,7;"/></g><!--link AutoSaveCircuit to GMN70--><g class="link" data-entity-1="AutoSaveCircuit" data-entity-2="GMN70" data-source-line="110" data-uid="lnk72" id="link_AutoSaveCircuit_GMN70"><path d="M455.96,180.75 C517.34,180.75 607.66,180.75 607.66,180.75 C607.66,180.75 607.66,573.59 607.66,665.66" fill="none" id="AutoSaveCircuit-GMN70" style="stroke:#181818;stroke-width:1;stroke-dasharray:7,7;"/></g><!--SRC=[ZLTBR-Cs4BxhLmpIInTmq6wFnIA0ctI37j9s4Mpl33MIYL2abgJigaN_UsT8YNh4Skn3Oivy77xp86ViNvLfXHCD-D1hfBzEoT0rkl1P8sImxXSXNsjdErFUMsqTVFSvVjx0h2lH3P0VusS6yVYjGoFn2RqNDUwrgWr8D07T35LY9JeTFbiJVXSDSKAdglFwP_KFmiUVPagj38Q-HR0k76oXiGeGB3XL7mAKog4CofgYY6pXvYiPlm7XWRyKHKjU4Z6u-T89Gs60U-LafmBSswQr4Vjl0VJv_W4zan_q7tvW6qasY8g4svSbF8g07nX02_wUDB-MP3UhU3NfdkmH9nsl9jq3QWmpRLfF-aVAKXlLFkhZEYwJ_gkfLuX1aZ09z1kvwm9ysJy_HKXQypBf_nJEuwIEIrx1fq_mtFk03TpT9UXVGgkIJETOyOPHECPtiMtWsQPTmXp5m3DAak3CGSE6X_tZ34shCz1z5-oj5ySbAPO-a_0igV-AWci4Rc_lLedEuZ6zMP2JcYKvbJDRENrPDajPbYsIbAMpl1GBLdD2y3ExeepKNOdiorlaoFGAwEZ25T39jol0azDNWEVHk0A-pknwHp56AjhEXRE6lKKDnNW9k2xrDsVdsBzhTe5yrsvEr6Mdpi0sZYzc-Rniyonmo-eiyPUjdWLkMLrKo6Mx6z0jozETY-3fxLiZLy2BLbVOTvExhkYhDXbB2Kcjq5QhLupVnTQfHhWUJjQzLjgUeA8UAHsAe4mDmfJGs59LFQqY_jlG9MMouU6ama4P20S4ENHCG7DKpfg6sdo1P899hAdC6sEhXSHikkOQicOy0cGAdmZWMvIgKbW2dQEug-_YVcNer43_gErpjccawMYaSHWTQ3j_0AfufqNRibTrp3evUXAkt2IuQCyf28cQjAPITUS44nY2pMPv1jb1d4de9ZYVk0NXQWpat0j5QnS9aO7Wh4uowaAS4uwLt-Io60SSZjvFeKeX8lSDdWQxCQXiDl7eKgjKF7aPeNDqPx6IaaOvyaJtcqHMamLb_8McBsXeE5Cj3PCfj34HgHeK1smuYbw8YO_3Mb6ZTP7nXAqJoS5GAmpgM98EEu-Rj1QTagsNE1JZ6HelDF6D58qFAj206jA18pLFaoBJADLHbHr5Az7XBSkYrAAttNQHhsOeRKK9VxHeugMNbkvefNGg6gBgUnF4txiXikR8DJqxal9Ep8XhAZok94S7KmXp1MpVjkNR4OyG96l8bXHQztouFD2bvV5wgWtE1b7WaB5fZWiDoxiXnY_quq3IRQIh-V7MKyW94WliABI7idDyBP3k4RyUcTh_]--></g></svg>