<svg xmlns="http://www.w3.org/2000/svg" xmlns:xlink="http://www.w3.org/1999/xlink" contentStyleType="text/css" data-diagram-type="DESCRIPTION" height="1284px" preserveAspectRatio="none" style="width:1699px;height:1284px;background:#FFFFFF;" version="1.1" viewBox="0 0 1699 1284" width="1699px" zoomAndPan="magnify"><defs/><g><!--cluster Quantum Circuit Composer--><g class="cluster" data-entity="Quantum Circuit Composer" data-source-line="13" data-uid="ent0003" id="cluster_Quantum Circuit Composer"><polygon fill="none" points="76.5,497.8,227.1621,497.8,234.1621,517.5988,1241.77,517.5988,1241.77,1004.8,76.5,1004.8,76.5,497.8" style="stroke:#000000;stroke-width:1.5;"/><line style="stroke:#000000;stroke-width:1.5;" x1="76.5" x2="234.1621" y1="517.5988" y2="517.5988"/><text fill="#000000" font-family="serif" font-size="12" font-weight="bold" lengthAdjust="spacing" textLength="144.6621" x="80.5" y="511.0031">Quantum Circuit Composer</text></g><!--entity ExecuteCircuit--><g class="entity" data-entity="ExecuteCircuit" data-source-line="14" data-uid="ent0004" id="entity_ExecuteCircuit"><ellipse cx="151.7938" cy="802.7988" fill="#F1F1F1" rx="59.2938" ry="14.2588" style="stroke:#181818;stroke-width:0.5;"/><text fill="#000000" font-family="serif" font-size="12" lengthAdjust="spacing" textLength="74.9707" x="114.3085" y="805.1025">Execute Circuit</text><line style="stroke:#181818;stroke-width:0.5;" x1="206.3617" x2="191.2025" y1="797.8282" y2="812.9873"/></g><!--entity SetNumQubits--><g class="entity" data-entity="SetNumQubits" data-source-line="15" data-uid="ent0005" id="entity_SetNumQubits"><ellipse cx="409.3895" cy="551.7992" fill="#F1F1F1" rx="59.3395" ry="21.9592" style="stroke:#181818;stroke-width:0.5;"/><text fill="#000000" font-family="serif" font-size="12" font-style="italic" lengthAdjust="spacing" textLength="80.0098" x="369.3846" y="548.7482">&#171;Configuration&#187;</text><text fill="#000000" font-family="serif" font-size="12" lengthAdjust="spacing" textLength="74.3379" x="372.2206" y="562.5471">Set NumQubits</text></g><!--entity SetTimeout--><g class="entity" data-entity="SetTimeout" data-source-line="16" data-uid="ent0006" id="entity_SetTimeout"><ellipse cx="409.3889" cy="629.7955" fill="#F1F1F1" rx="57.1889" ry="21.2355" style="stroke:#181818;stroke-width:0.5;"/><text fill="#000000" font-family="serif" font-size="12" font-style="italic" lengthAdjust="spacing" textLength="80.0098" x="369.384" y="627.794">&#171;Configuration&#187;</text><text fill="#000000" font-family="serif" font-size="12" lengthAdjust="spacing" textLength="58.9922" x="379.8928" y="641.5928">Set Timeout</text></g><!--entity SelectStrategy--><g class="entity" data-entity="SelectStrategy" data-source-line="17" data-uid="ent0007" id="entity_SelectStrategy"><ellipse cx="409.3914" cy="707.8021" fill="#F1F1F1" rx="59.0214" ry="21.8521" style="stroke:#181818;stroke-width:0.5;"/><text fill="#000000" font-family="serif" font-size="12" font-style="italic" lengthAdjust="spacing" textLength="80.0098" x="369.3865" y="704.9037">&#171;Configuration&#187;</text><text fill="#000000" font-family="serif" font-size="12" lengthAdjust="spacing" textLength="72.3105" x="373.2361" y="718.7025">Select Strategy</text></g><!--entity PartitionSimulate--><g class="entity" data-entity="PartitionSimulate" data-source-line="19" data-uid="ent0008" id="entity_PartitionSimulate"><ellipse cx="409.3947" cy="785.7988" fill="#F1F1F1" rx="66.6647" ry="20.6888" style="stroke:#181818;stroke-width:0.5;"/><text fill="#000000" font-family="serif" font-size="12" font-style="italic" lengthAdjust="spacing" textLength="45.3223" x="386.7335" y="779.5673">&#171;System&#187;</text><text fill="#000000" font-family="serif" font-size="12" lengthAdjust="spacing" textLength="99.3281" x="359.7306" y="793.3662">Partition &amp; Simulate</text></g><!--entity DetectTimeout--><g class="entity" data-entity="DetectTimeout" data-source-line="20" data-uid="ent0009" id="entity_DetectTimeout"><ellipse cx="781.1283" cy="764.8032" fill="#F1F1F1" rx="51.9883" ry="21.0332" style="stroke:#181818;stroke-width:0.5;"/><text fill="#000000" font-family="serif" font-size="12" font-style="italic" lengthAdjust="spacing" textLength="45.3223" x="758.4671" y="759.1142">&#171;System&#187;</text><text fill="#000000" font-family="serif" font-size="12" lengthAdjust="spacing" textLength="74.9707" x="743.6429" y="772.9131">Detect Timeout</text></g><!--entity MonitorJob--><g class="entity" data-entity="MonitorJob" data-source-line="22" data-uid="ent0010" id="entity_MonitorJob"><ellipse cx="409.3939" cy="975.8048" fill="#F1F1F1" rx="53.2239" ry="13.0448" style="stroke:#181818;stroke-width:0.5;"/><text fill="#000000" font-family="serif" font-size="12" lengthAdjust="spacing" textLength="59.0039" x="379.8919" y="978.1085">Monitor Job</text><line style="stroke:#181818;stroke-width:0.5;" x1="458.3756" x2="444.4307" y1="971.2574" y2="985.2023"/></g><!--entity ReceiveUpdates--><g class="entity" data-entity="ReceiveUpdates" data-source-line="23" data-uid="ent0011" id="entity_ReceiveUpdates"><ellipse cx="781.1271" cy="902.798" fill="#F1F1F1" rx="55.5671" ry="20.918" style="stroke:#181818;stroke-width:0.5;"/><text fill="#000000" font-family="serif" font-size="12" font-style="italic" lengthAdjust="spacing" textLength="45.3223" x="758.4659" y="896.9293">&#171;System&#187;</text><text fill="#000000" font-family="serif" font-size="12" lengthAdjust="spacing" textLength="80.9648" x="740.6446" y="910.7281">Receive Updates</text></g><!--entity TrackProgress--><g class="entity" data-entity="TrackProgress" data-source-line="24" data-uid="ent0012" id="entity_TrackProgress"><ellipse cx="781.1325" cy="833.8045" fill="#F1F1F1" rx="52.9725" ry="12.9945" style="stroke:#181818;stroke-width:0.5;"/><text fill="#000000" font-family="serif" font-size="12" lengthAdjust="spacing" textLength="72.3105" x="744.9772" y="837.2039">Track Progress</text></g><!--entity ViewResults--><g class="entity" data-entity="ViewResults" data-source-line="26" data-uid="ent0013" id="entity_ViewResults"><ellipse cx="151.7915" cy="898.7983" fill="#F1F1F1" rx="55.1915" ry="13.4383" style="stroke:#181818;stroke-width:0.5;"/><text fill="#000000" font-family="serif" font-size="12" lengthAdjust="spacing" textLength="64.3301" x="119.6264" y="901.102">View Results</text><line style="stroke:#181818;stroke-width:0.5;" x1="202.5839" x2="188.2457" y1="894.1137" y2="908.452"/></g><!--entity DisplayResults--><g class="entity" data-entity="DisplayResults" data-source-line="27" data-uid="ent0014" id="entity_DisplayResults"><ellipse cx="409.3902" cy="914.8" fill="#F1F1F1" rx="54.2002" ry="13.24" style="stroke:#181818;stroke-width:0.5;"/><text fill="#000000" font-family="serif" font-size="12" lengthAdjust="spacing" textLength="75.668" x="371.5562" y="918.1994">Display Results</text></g><!--entity ExportCircuit--><g class="entity" data-entity="ExportCircuit" data-source-line="28" data-uid="ent0015" id="entity_ExportCircuit"><ellipse cx="409.3921" cy="853.7972" fill="#F1F1F1" rx="51.7821" ry="12.7572" style="stroke:#181818;stroke-width:0.5;"/><text fill="#000000" font-family="serif" font-size="12" lengthAdjust="spacing" textLength="68.9883" x="374.8979" y="857.1967">Export Circuit</text></g><!--entity AbortExecution--><g class="entity" data-entity="AbortExecution" data-source-line="30" data-uid="ent0016" id="entity_AbortExecution"><ellipse cx="781.129" cy="973.8018" fill="#F1F1F1" rx="61.159" ry="14.6318" style="stroke:#181818;stroke-width:0.5;"/><text fill="#000000" font-family="serif" font-size="12" lengthAdjust="spacing" textLength="79.6465" x="741.3057" y="976.1055">Abort Execution</text><line style="stroke:#181818;stroke-width:0.5;" x1="837.4133" x2="821.8806" y1="968.7011" y2="984.2338"/></g><!--entity CleanupResources--><g class="entity" data-entity="CleanupResources" data-source-line="31" data-uid="ent0017" id="entity_CleanupResources"><ellipse cx="1163.3735" cy="864.8" fill="#F1F1F1" rx="62.4035" ry="20.76" style="stroke:#181818;stroke-width:0.5;"/><text fill="#000000" font-family="serif" font-size="12" font-style="italic" lengthAdjust="spacing" textLength="45.3223" x="1140.7124" y="858.6819">&#171;System&#187;</text><text fill="#000000" font-family="serif" font-size="12" lengthAdjust="spacing" textLength="92.3086" x="1117.2192" y="872.4807">Cleanup Resources</text></g><!--entity User--><g class="entity" data-entity="User" data-source-line="11" data-uid="ent0002" id="entity_User"><ellipse cx="19" cy="822.4" fill="#FFFFFF" rx="8" ry="8" style="stroke:#000000;stroke-width:0.5;"/><path d="M19,830.4 L19,857.4 M6,838.4 L32,838.4 M19,857.4 L6,872.4 M19,857.4 L32,872.4" fill="none" style="stroke:#000000;stroke-width:0.5;"/><text fill="#000000" font-family="serif" font-size="12" lengthAdjust="spacing" textLength="22.6582" x="7.6709" y="885.1031">User</text></g><g class="entity" data-entity="GMN34" data-source-line="58" data-uid="ent0035" id="entity_GMN34"><path d="M279.43,1024 L279.43,1061.5977 L539.3402,1061.5977 L539.3402,1034 L529.3402,1024 L279.43,1024" fill="#FEFFDD" style="stroke:#181818;stroke-width:0.5;"/><path d="M529.3402,1024 L529.3402,1034 L539.3402,1034 L529.3402,1024" fill="#FEFFDD" style="stroke:#181818;stroke-width:1;"/><text fill="#000000" font-family="serif" font-size="12" lengthAdjust="spacing" textLength="220.9336" x="285.43" y="1040.2031">submit quantum circuit for backend execution</text><text fill="#000000" font-family="serif" font-size="12" lengthAdjust="spacing" textLength="238.9102" x="285.43" y="1054.002">with configured parameters and strategy selection</text></g><g class="entity" data-entity="GMN37" data-source-line="63" data-uid="ent0038" id="entity_GMN37"><path d="M641.51,6 L641.51,43.5977 L920.762,43.5977 L920.762,16 L910.762,6 L641.51,6" fill="#FEFFDD" style="stroke:#181818;stroke-width:0.5;"/><path d="M910.762,6 L910.762,16 L920.762,16 L910.762,6" fill="#FEFFDD" style="stroke:#181818;stroke-width:1;"/><text fill="#000000" font-family="serif" font-size="12" lengthAdjust="spacing" textLength="211.5938" x="647.51" y="22.2031">define number of qubits required for circuit,</text><text fill="#000000" font-family="serif" font-size="12" lengthAdjust="spacing" textLength="258.252" x="647.51" y="36.002">determines system resource allocation and constraints</text></g><g class="entity" data-entity="GMN40" data-source-line="68" data-uid="ent0041" id="entity_GMN40"><path d="M643.83,79 L643.83,116.5977 L918.4413,116.5977 L918.4413,89 L908.4413,79 L643.83,79" fill="#FEFFDD" style="stroke:#181818;stroke-width:0.5;"/><path d="M908.4413,79 L908.4413,89 L918.4413,89 L908.4413,79" fill="#FEFFDD" style="stroke:#181818;stroke-width:1;"/><text fill="#000000" font-family="serif" font-size="12" lengthAdjust="spacing" textLength="253.6113" x="649.83" y="95.2031">configure maximum execution time limit in seconds,</text><text fill="#000000" font-family="serif" font-size="12" lengthAdjust="spacing" textLength="174.6211" x="649.83" y="109.002">0 indicates unlimited execution time</text></g><g class="entity" data-entity="GMN43" data-source-line="73" data-uid="ent0044" id="entity_GMN43"><path d="M624.18,152 L624.18,189.5977 L938.096,189.5977 L938.096,162 L928.096,152 L624.18,152" fill="#FEFFDD" style="stroke:#181818;stroke-width:0.5;"/><path d="M928.096,152 L928.096,162 L938.096,162 L928.096,152" fill="#FEFFDD" style="stroke:#181818;stroke-width:1;"/><text fill="#000000" font-family="serif" font-size="12" lengthAdjust="spacing" textLength="292.916" x="630.18" y="168.2031">select circuit partitioning algorithm (Kahn, ILP, TDAG, etc.)</text><text fill="#000000" font-family="serif" font-size="12" lengthAdjust="spacing" textLength="211.9453" x="630.18" y="182.002">and target quantum backend (SQUANDER)</text></g><g class="entity" data-entity="GMN46" data-source-line="78" data-uid="ent0047" id="entity_GMN46"><path d="M607.69,225 L607.69,262.5977 L954.5884,262.5977 L954.5884,235 L944.5884,225 L607.69,225" fill="#FEFFDD" style="stroke:#181818;stroke-width:0.5;"/><path d="M944.5884,225 L944.5884,235 L954.5884,235 L944.5884,225" fill="#FEFFDD" style="stroke:#181818;stroke-width:1;"/><text fill="#000000" font-family="serif" font-size="12" lengthAdjust="spacing" textLength="295.9219" x="613.69" y="241.2031">backend divides circuit into partitions using selected strategy,</text><text fill="#000000" font-family="serif" font-size="12" lengthAdjust="spacing" textLength="325.8984" x="613.69" y="255.002">simulates each partition on quantum backend and aggregates results</text></g><g class="entity" data-entity="GMN49" data-source-line="83" data-uid="ent0050" id="entity_GMN49"><path d="M633.84,444 L633.84,481.5977 L928.4259,481.5977 L928.4259,454 L918.4259,444 L633.84,444" fill="#FEFFDD" style="stroke:#181818;stroke-width:0.5;"/><path d="M918.4259,444 L918.4259,454 L928.4259,454 L918.4259,444" fill="#FEFFDD" style="stroke:#181818;stroke-width:1;"/><text fill="#000000" font-family="serif" font-size="12" lengthAdjust="spacing" textLength="273.5859" x="639.84" y="460.2031">user observes real-time job status and execution progress</text><text fill="#000000" font-family="serif" font-size="12" lengthAdjust="spacing" textLength="227.5957" x="639.84" y="474.002">through live WebSocket connection to backend</text></g><g class="entity" data-entity="GMN52" data-source-line="88" data-uid="ent0053" id="entity_GMN52"><path d="M1014.58,1167 L1014.58,1204.5977 L1312.1484,1204.5977 L1312.1484,1177 L1302.1484,1167 L1014.58,1167" fill="#FEFFDD" style="stroke:#181818;stroke-width:0.5;"/><path d="M1302.1484,1167 L1302.1484,1177 L1312.1484,1177 L1302.1484,1167" fill="#FEFFDD" style="stroke:#181818;stroke-width:1;"/><text fill="#000000" font-family="serif" font-size="12" lengthAdjust="spacing" textLength="276.5684" x="1020.58" y="1183.2031">receive backend notifications including execution phases,</text><text fill="#000000" font-family="serif" font-size="12" lengthAdjust="spacing" textLength="174.2754" x="1020.58" y="1197.002">debug logs, and progress percentage</text></g><g class="entity" data-entity="GMN55" data-source-line="93" data-uid="ent0056" id="entity_GMN55"><path d="M1016.05,1094 L1016.05,1131.5977 L1310.6828,1131.5977 L1310.6828,1104 L1300.6828,1094 L1016.05,1094" fill="#FEFFDD" style="stroke:#181818;stroke-width:0.5;"/><path d="M1300.6828,1094 L1300.6828,1104 L1310.6828,1104 L1300.6828,1094" fill="#FEFFDD" style="stroke:#181818;stroke-width:1;"/><text fill="#000000" font-family="serif" font-size="12" lengthAdjust="spacing" textLength="250.2656" x="1022.05" y="1110.2031">display execution progress bar with real-time status,</text><text fill="#000000" font-family="serif" font-size="12" lengthAdjust="spacing" textLength="273.6328" x="1022.05" y="1124.002">show phase transitions (parsing, partitioning, simulating)</text></g><g class="entity" data-entity="GMN58" data-source-line="98" data-uid="ent0059" id="entity_GMN58"><path d="M271.09,1097 L271.09,1134.5977 L547.6877,1134.5977 L547.6877,1107 L537.6877,1097 L271.09,1097" fill="#FEFFDD" style="stroke:#181818;stroke-width:0.5;"/><path d="M537.6877,1097 L537.6877,1107 L547.6877,1107 L537.6877,1097" fill="#FEFFDD" style="stroke:#181818;stroke-width:1;"/><text fill="#000000" font-family="serif" font-size="12" lengthAdjust="spacing" textLength="255.5977" x="277.09" y="1113.2031">access job completion results including measurement</text><text fill="#000000" font-family="serif" font-size="12" lengthAdjust="spacing" textLength="191.2969" x="277.09" y="1127.002">statistics and quantum state information</text></g><g class="entity" data-entity="GMN61" data-source-line="103" data-uid="ent0062" id="entity_GMN61"><path d="M623.51,371 L623.51,408.5977 L938.7561,408.5977 L938.7561,381 L928.7561,371 L623.51,371" fill="#FEFFDD" style="stroke:#181818;stroke-width:0.5;"/><path d="M928.7561,371 L928.7561,381 L938.7561,381 L928.7561,371" fill="#FEFFDD" style="stroke:#181818;stroke-width:1;"/><text fill="#000000" font-family="serif" font-size="12" lengthAdjust="spacing" textLength="294.2461" x="629.51" y="387.2031">render result data as histograms, Bloch spheres, state vectors,</text><text fill="#000000" font-family="serif" font-size="12" lengthAdjust="spacing" textLength="259.5938" x="629.51" y="401.002">and partition analysis for comprehensive visualization</text></g><g class="entity" data-entity="GMN64" data-source-line="108" data-uid="ent0065" id="entity_GMN64"><path d="M639,298 L639,335.5977 L923.2676,335.5977 L923.2676,308 L913.2676,298 L639,298" fill="#FEFFDD" style="stroke:#181818;stroke-width:0.5;"/><path d="M913.2676,298 L913.2676,308 L923.2676,308 L913.2676,298" fill="#FEFFDD" style="stroke:#181818;stroke-width:1;"/><text fill="#000000" font-family="serif" font-size="12" lengthAdjust="spacing" textLength="263.2676" x="645" y="314.2031">export circuit design as vector graphics (SVG or PNG)</text><text fill="#000000" font-family="serif" font-size="12" lengthAdjust="spacing" textLength="247.5938" x="645" y="328.002">for documentation, publication, or external analysis</text></g><g class="entity" data-entity="GMN67" data-source-line="113" data-uid="ent0068" id="entity_GMN67"><path d="M1042.9,1240 L1042.9,1277.5977 L1283.8375,1277.5977 L1283.8375,1250 L1273.8375,1240 L1042.9,1240" fill="#FEFFDD" style="stroke:#181818;stroke-width:0.5;"/><path d="M1273.8375,1240 L1273.8375,1250 L1283.8375,1250 L1273.8375,1240" fill="#FEFFDD" style="stroke:#181818;stroke-width:1;"/><text fill="#000000" font-family="serif" font-size="12" lengthAdjust="spacing" textLength="219.9375" x="1048.9" y="1256.2031">user terminates executing job via abort button</text><text fill="#000000" font-family="serif" font-size="12" lengthAdjust="spacing" textLength="219.2461" x="1048.9" y="1270.002">or circuit close action during active execution</text></g><g class="entity" data-entity="GMN70" data-source-line="118" data-uid="ent0071" id="entity_GMN70"><path d="M1372.15,846 L1372.15,883.5977 L1692.0719,883.5977 L1692.0719,856 L1682.0719,846 L1372.15,846" fill="#FEFFDD" style="stroke:#181818;stroke-width:0.5;"/><path d="M1682.0719,846 L1682.0719,856 L1692.0719,856 L1682.0719,846" fill="#FEFFDD" style="stroke:#181818;stroke-width:1;"/><text fill="#000000" font-family="serif" font-size="12" lengthAdjust="spacing" textLength="285.5449" x="1378.15" y="862.2031">terminate running backend processes and release resources,</text><text fill="#000000" font-family="serif" font-size="12" lengthAdjust="spacing" textLength="298.9219" x="1378.15" y="876.002">applies uniformly to user-initiated abort and timeout scenarios</text></g><g class="entity" data-entity="GMN73" data-source-line="123" data-uid="ent0074" id="entity_GMN73"><path d="M1016.4,1021 L1016.4,1058.5977 L1310.3355,1058.5977 L1310.3355,1031 L1300.3355,1021 L1016.4,1021" fill="#FEFFDD" style="stroke:#181818;stroke-width:0.5;"/><path d="M1300.3355,1021 L1300.3355,1031 L1310.3355,1031 L1300.3355,1021" fill="#FEFFDD" style="stroke:#181818;stroke-width:1;"/><text fill="#000000" font-family="serif" font-size="12" lengthAdjust="spacing" textLength="205.6172" x="1022.4" y="1037.2031">monitor execution duration in background,</text><text fill="#000000" font-family="serif" font-size="12" lengthAdjust="spacing" textLength="272.9355" x="1022.4" y="1051.002">automatically trigger termination upon timeout threshold</text></g><!--link User to ExecuteCircuit--><g class="link" data-entity-1="User" data-entity-2="ExecuteCircuit" data-source-line="34" data-uid="lnk18" id="link_User_ExecuteCircuit"><path d="M19.07,813.48 C19.07,806.43 19.07,801.22 19.07,801.22 C19.07,801.22 51.08,801.22 86.42,801.22" fill="none" id="User-to-ExecuteCircuit" style="stroke:#181818;stroke-width:1;"/><polygon fill="#181818" points="92.42,801.22,83.42,797.22,87.42,801.22,83.42,805.22,92.42,801.22" style="stroke:#181818;stroke-width:1;"/></g><!--link User to MonitorJob--><g class="link" data-entity-1="User" data-entity-2="MonitorJob" data-source-line="35" data-uid="lnk19" id="link_User_MonitorJob"><path d="M14.07,887.97 C14.07,924.81 14.07,975.8 14.07,975.8 C14.07,975.8 242.17,975.8 350.07,975.8" fill="none" id="User-to-MonitorJob" style="stroke:#181818;stroke-width:1;"/><polygon fill="#181818" points="356.07,975.8,347.07,971.8,351.07,975.8,347.07,979.8,356.07,975.8" style="stroke:#181818;stroke-width:1;"/></g><!--link User to ViewResults--><g class="link" data-entity-1="User" data-entity-2="ViewResults" data-source-line="36" data-uid="lnk20" id="link_User_ViewResults"><path d="M23.07,888.07 C23.07,894.93 23.07,899.97 23.07,899.97 C23.07,899.97 55.57,899.97 90.46,899.97" fill="none" id="User-to-ViewResults" style="stroke:#181818;stroke-width:1;"/><polygon fill="#181818" points="96.46,899.97,87.46,895.97,91.46,899.97,87.46,903.97,96.46,899.97" style="stroke:#181818;stroke-width:1;"/></g><!--link User to AbortExecution--><g class="link" data-entity-1="User" data-entity-2="AbortExecution" data-source-line="37" data-uid="lnk21" id="link_User_AbortExecution"><path d="M33,874.22 C118.16,874.22 563.07,874.22 563.07,874.22 C563.07,874.22 563.07,975.59 563.07,975.59 C563.07,975.59 649.59,975.59 714.1,975.59" fill="none" id="User-to-AbortExecution" style="stroke:#181818;stroke-width:1;"/><polygon fill="#181818" points="720.1,975.59,711.1,971.59,715.1,975.59,711.1,979.59,720.1,975.59" style="stroke:#181818;stroke-width:1;"/></g><!--link ExecuteCircuit to SetNumQubits--><g class="link" data-entity-1="ExecuteCircuit" data-entity-2="SetNumQubits" data-source-line="39" data-uid="lnk22" id="link_ExecuteCircuit_SetNumQubits"><path d="M122.07,790.01 C122.07,738.86 122.07,551.8 122.07,551.8 C122.07,551.8 259.7,551.8 343.86,551.8" fill="none" id="ExecuteCircuit-to-SetNumQubits" style="stroke:#181818;stroke-width:1;"/><polygon fill="#181818" points="349.86,551.8,340.86,547.8,344.86,551.8,340.86,555.8,349.86,551.8" style="stroke:#181818;stroke-width:1;"/><text fill="#000000" font-family="serif" font-size="12" lengthAdjust="spacing" textLength="47.3203" x="74.07" y="569.2131">&#171;include&#187;</text></g><!--link ExecuteCircuit to SetTimeout--><g class="link" data-entity-1="ExecuteCircuit" data-entity-2="SetTimeout" data-source-line="40" data-uid="lnk23" id="link_ExecuteCircuit_SetTimeout"><path d="M152.07,788.05 C152.07,746.22 152.07,629.8 152.07,629.8 C152.07,629.8 270.12,629.8 345.96,629.8" fill="none" id="ExecuteCircuit-to-SetTimeout" style="stroke:#181818;stroke-width:1;"/><polygon fill="#181818" points="351.96,629.8,342.96,625.8,346.96,629.8,342.96,633.8,351.96,629.8" style="stroke:#181818;stroke-width:1;"/><text fill="#000000" font-family="serif" font-size="12" lengthAdjust="spacing" textLength="47.3203" x="124.89" y="642.0031">&#171;include&#187;</text></g><!--link ExecuteCircuit to SelectStrategy--><g class="link" data-entity-1="ExecuteCircuit" data-entity-2="SelectStrategy" data-source-line="41" data-uid="lnk24" id="link_ExecuteCircuit_SelectStrategy"><path d="M181.07,789.99 C181.07,764.06 181.07,707.8 181.07,707.8 C181.07,707.8 276.35,707.8 344,707.8" fill="none" id="ExecuteCircuit-to-SelectStrategy" style="stroke:#181818;stroke-width:1;"/><polygon fill="#181818" points="350,707.8,341,703.8,345,707.8,341,711.8,350,707.8" style="stroke:#181818;stroke-width:1;"/><text fill="#000000" font-family="serif" font-size="12" lengthAdjust="spacing" textLength="47.3203" x="176.44" y="720.0031">&#171;include&#187;</text></g><!--link ExecuteCircuit to PartitionSimulate--><g class="link" data-entity-1="ExecuteCircuit" data-entity-2="PartitionSimulate" data-source-line="42" data-uid="lnk25" id="link_ExecuteCircuit_PartitionSimulate"><path d="M207.37,797.52 C250.56,797.52 304.19,797.52 347.47,797.52" fill="none" id="ExecuteCircuit-to-PartitionSimulate" style="stroke:#181818;stroke-width:1;"/><polygon fill="#181818" points="353.47,797.52,344.47,793.52,348.47,797.52,344.47,801.52,353.47,797.52" style="stroke:#181818;stroke-width:1;"/><text fill="#000000" font-family="serif" font-size="12" lengthAdjust="spacing" textLength="47.3203" x="232.42" y="809.7231">&#171;include&#187;</text></g><!--link MonitorJob to ReceiveUpdates--><g class="link" data-entity-1="MonitorJob" data-entity-2="ReceiveUpdates" data-source-line="44" data-uid="lnk26" id="link_MonitorJob_ReceiveUpdates"><path d="M459.91,971.32 C488.3,971.32 518.07,971.32 518.07,971.32 C518.07,971.32 518.07,916.33 518.07,916.33 C518.07,916.33 656.98,916.33 731.7,916.33" fill="none" id="MonitorJob-to-ReceiveUpdates" style="stroke:#181818;stroke-width:1;"/><polygon fill="#181818" points="737.7,916.33,728.7,912.33,732.7,916.33,728.7,920.33,737.7,916.33" style="stroke:#181818;stroke-width:1;"/><text fill="#000000" font-family="serif" font-size="12" lengthAdjust="spacing" textLength="47.3203" x="523.31" y="928.5331">&#171;include&#187;</text></g><!--link MonitorJob to TrackProgress--><g class="link" data-entity-1="MonitorJob" data-entity-2="TrackProgress" data-source-line="45" data-uid="lnk27" id="link_MonitorJob_TrackProgress"><path d="M450.15,967.04 C473.05,967.04 497.07,967.04 497.07,967.04 C497.07,967.04 497.07,830.93 497.07,830.93 C497.07,830.93 641.03,830.93 723.03,830.93" fill="none" id="MonitorJob-to-TrackProgress" style="stroke:#181818;stroke-width:1;"/><polygon fill="#181818" points="729.03,830.93,720.03,826.93,724.03,830.93,720.03,834.93,729.03,830.93" style="stroke:#181818;stroke-width:1;"/><text fill="#000000" font-family="serif" font-size="12" lengthAdjust="spacing" textLength="47.3203" x="473.54" y="843.1331">&#171;include&#187;</text></g><!--reverse link MonitorJob to AbortExecution--><g class="link" data-entity-1="MonitorJob" data-entity-2="AbortExecution" data-source-line="47" data-uid="lnk28" id="link_MonitorJob_AbortExecution"><path d="M469.67,984.15 C540.37,984.15 663.92,984.15 736.29,984.15" fill="none" id="MonitorJob-backto-AbortExecution" style="stroke:#181818;stroke-width:1;"/><polygon fill="none" points="451.67,984.15,469.67,990.15,469.67,978.15,451.67,984.15" style="stroke:#181818;stroke-width:1;"/><text fill="#000000" font-family="serif" font-size="12" lengthAdjust="spacing" textLength="43.9863" x="549.98" y="996.3531">&#171;extend&#187;</text></g><!--link ViewResults to DisplayResults--><g class="link" data-entity-1="ViewResults" data-entity-2="DisplayResults" data-source-line="49" data-uid="lnk29" id="link_ViewResults_DisplayResults"><path d="M201.16,905.12 C250.53,905.12 319.47,905.12 364.69,905.12" fill="none" id="ViewResults-to-DisplayResults" style="stroke:#181818;stroke-width:1;"/><polygon fill="#181818" points="370.69,905.12,361.69,901.12,365.69,905.12,361.69,909.12,370.69,905.12" style="stroke:#181818;stroke-width:1;"/><text fill="#000000" font-family="serif" font-size="12" lengthAdjust="spacing" textLength="47.3203" x="237.92" y="917.3231">&#171;include&#187;</text></g><!--link ViewResults to ExportCircuit--><g class="link" data-entity-1="ViewResults" data-entity-2="ExportCircuit" data-source-line="50" data-uid="lnk30" id="link_ViewResults_ExportCircuit"><path d="M202.93,893.46 C277.96,893.46 409.07,893.46 409.07,893.46 C409.07,893.46 409.07,884.35 409.07,872.79" fill="none" id="ViewResults-to-ExportCircuit" style="stroke:#181818;stroke-width:1;"/><polygon fill="#181818" points="409.07,866.79,405.07,875.79,409.07,871.79,413.07,875.79,409.07,866.79" style="stroke:#181818;stroke-width:1;"/><text fill="#000000" font-family="serif" font-size="12" lengthAdjust="spacing" textLength="47.3203" x="271.34" y="890.6631">&#171;include&#187;</text></g><!--link PartitionSimulate to DetectTimeout--><g class="link" data-entity-1="PartitionSimulate" data-entity-2="DetectTimeout" data-source-line="52" data-uid="lnk31" id="link_PartitionSimulate_DetectTimeout"><path d="M472.87,778.93 C549.91,778.93 671.44,778.93 735.64,778.93" fill="none" id="PartitionSimulate-to-DetectTimeout" style="stroke:#181818;stroke-width:1;"/><polygon fill="#181818" points="741.64,778.93,732.64,774.93,736.64,778.93,732.64,782.93,741.64,778.93" style="stroke:#181818;stroke-width:1;"/><text fill="#000000" font-family="serif" font-size="12" lengthAdjust="spacing" textLength="47.3203" x="559.25" y="791.1331">&#171;include&#187;</text></g><!--link AbortExecution to CleanupResources--><g class="link" data-entity-1="AbortExecution" data-entity-2="CleanupResources" data-source-line="54" data-uid="lnk32" id="link_AbortExecution_CleanupResources"><path d="M842.5,973.8 C950.47,973.8 1163.07,973.8 1163.07,973.8 C1163.07,973.8 1163.07,923.49 1163.07,891.82" fill="none" id="AbortExecution-to-CleanupResources" style="stroke:#181818;stroke-width:1;"/><polygon fill="#181818" points="1163.07,885.82,1159.07,894.82,1163.07,890.82,1167.07,894.82,1163.07,885.82" style="stroke:#181818;stroke-width:1;"/><text fill="#000000" font-family="serif" font-size="12" lengthAdjust="spacing" textLength="47.3203" x="998.78" y="986.0031">&#171;include&#187;</text></g><!--link DetectTimeout to CleanupResources--><g class="link" data-entity-1="DetectTimeout" data-entity-2="CleanupResources" data-source-line="55" data-uid="lnk33" id="link_DetectTimeout_CleanupResources"><path d="M830.67,757.79 C934.02,757.79 1163.07,757.79 1163.07,757.79 C1163.07,757.79 1163.07,806.47 1163.07,837.66" fill="none" id="DetectTimeout-to-CleanupResources" style="stroke:#181818;stroke-width:1;"/><polygon fill="#181818" points="1163.07,843.66,1167.07,834.66,1163.07,838.66,1159.07,834.66,1163.07,843.66" style="stroke:#181818;stroke-width:1;"/><text fill="#000000" font-family="serif" font-size="12" lengthAdjust="spacing" textLength="47.3203" x="991.81" y="769.9931">&#171;include&#187;</text></g><!--link ExecuteCircuit to GMN34--><g class="link" data-entity-1="ExecuteCircuit" data-entity-2="GMN34" data-source-line="58" data-uid="lnk36" id="link_ExecuteCircuit_GMN34"><path d="M199.15,811.77 C246.1,811.77 311.07,811.77 311.07,811.77 C311.07,811.77 311.07,968.72 311.07,1023.9" fill="none" id="ExecuteCircuit-GMN34" style="stroke:#181818;stroke-width:1;stroke-dasharray:7,7;"/></g><!--link SetNumQubits to GMN37--><g class="link" data-entity-1="SetNumQubits" data-entity-2="GMN37" data-source-line="63" data-uid="lnk39" id="link_SetNumQubits_GMN37"><path d="M409.07,529.49 C409.07,429.19 409.07,24.8 409.07,24.8 C409.07,24.8 535.75,24.8 641.27,24.8" fill="none" id="SetNumQubits-GMN37" style="stroke:#181818;stroke-width:1;stroke-dasharray:7,7;"/></g><!--link SetTimeout to GMN40--><g class="link" data-entity-1="SetTimeout" data-entity-2="GMN40" data-source-line="68" data-uid="lnk42" id="link_SetTimeout_GMN40"><path d="M466.73,629.8 C470.05,629.8 472.07,629.8 472.07,629.8 C472.07,629.8 472.07,97.8 472.07,97.8 C472.07,97.8 561.23,97.8 643.78,97.8" fill="none" id="SetTimeout-GMN40" style="stroke:#181818;stroke-width:1;stroke-dasharray:7,7;"/></g><!--link SelectStrategy to GMN43--><g class="link" data-entity-1="SelectStrategy" data-entity-2="GMN43" data-source-line="73" data-uid="lnk45" id="link_SelectStrategy_GMN43"><path d="M468.86,707.8 C517.43,707.8 578.07,707.8 578.07,707.8 C578.07,707.8 578.07,170.8 578.07,170.8 C578.07,170.8 597.29,170.8 623.9,170.8" fill="none" id="SelectStrategy-GMN43" style="stroke:#181818;stroke-width:1;stroke-dasharray:7,7;"/></g><!--link PartitionSimulate to GMN46--><g class="link" data-entity-1="PartitionSimulate" data-entity-2="GMN46" data-source-line="78" data-uid="lnk48" id="link_PartitionSimulate_GMN46"><path d="M460.21,772.02 C521.41,772.02 616.07,772.02 616.07,772.02 C616.07,772.02 616.07,357.61 616.07,262.91" fill="none" id="PartitionSimulate-GMN46" style="stroke:#181818;stroke-width:1;stroke-dasharray:7,7;"/></g><!--link MonitorJob to GMN49--><g class="link" data-entity-1="MonitorJob" data-entity-2="GMN49" data-source-line="83" data-uid="lnk51" id="link_MonitorJob_GMN49"><path d="M460.37,979.87 C538.03,979.87 677.07,979.87 677.07,979.87 C677.07,979.87 677.07,575.1 677.07,481.82" fill="none" id="MonitorJob-GMN49" style="stroke:#181818;stroke-width:1;stroke-dasharray:7,7;"/></g><!--link ReceiveUpdates to GMN52--><g class="link" data-entity-1="ReceiveUpdates" data-entity-2="GMN52" data-source-line="88" data-uid="lnk54" id="link_ReceiveUpdates_GMN52"><path d="M836.82,904.64 C855.21,904.64 871.07,904.64 871.07,904.64 C871.07,904.64 871.07,1185.8 871.07,1185.8 C871.07,1185.8 942.16,1185.8 1014.22,1185.8" fill="none" id="ReceiveUpdates-GMN52" style="stroke:#181818;stroke-width:1;stroke-dasharray:7,7;"/></g><!--link TrackProgress to GMN55--><g class="link" data-entity-1="TrackProgress" data-entity-2="GMN55" data-source-line="93" data-uid="lnk57" id="link_TrackProgress_GMN55"><path d="M834,832.42 C865.76,832.42 900.07,832.42 900.07,832.42 C900.07,832.42 900.07,1114.3 900.07,1114.3 C900.07,1114.3 955.54,1114.3 1015.56,1114.3" fill="none" id="TrackProgress-GMN55" style="stroke:#181818;stroke-width:1;stroke-dasharray:7,7;"/></g><!--link ViewResults to GMN58--><g class="link" data-entity-1="ViewResults" data-entity-2="GMN58" data-source-line="98" data-uid="lnk60" id="link_ViewResults_GMN58"><path d="M190.8,908.68 C226.92,908.68 275.07,908.68 275.07,908.68 C275.07,908.68 275.07,1045.41 275.07,1096.69" fill="none" id="ViewResults-GMN58" style="stroke:#181818;stroke-width:1;stroke-dasharray:7,7;"/></g><!--link DisplayResults to GMN61--><g class="link" data-entity-1="DisplayResults" data-entity-2="GMN61" data-source-line="103" data-uid="lnk63" id="link_DisplayResults_GMN61"><path d="M458.69,908.95 C523.46,908.95 629.07,908.95 629.07,908.95 C629.07,908.95 629.07,502.55 629.07,408.89" fill="none" id="DisplayResults-GMN61" style="stroke:#181818;stroke-width:1;stroke-dasharray:7,7;"/></g><!--link ExportCircuit to GMN64--><g class="link" data-entity-1="ExportCircuit" data-entity-2="GMN64" data-source-line="108" data-uid="lnk66" id="link_ExportCircuit_GMN64"><path d="M460.07,856.68 C514.44,856.68 593.07,856.68 593.07,856.68 C593.07,856.68 593.07,316.8 593.07,316.8 C593.07,316.8 612.37,316.8 638.6,316.8" fill="none" id="ExportCircuit-GMN64" style="stroke:#181818;stroke-width:1;stroke-dasharray:7,7;"/></g><!--link AbortExecution to GMN67--><g class="link" data-entity-1="AbortExecution" data-entity-2="GMN67" data-source-line="113" data-uid="lnk69" id="link_AbortExecution_GMN67"><path d="M781.07,988.72 C781.07,1047.36 781.07,1258.8 781.07,1258.8 C781.07,1258.8 930.41,1258.8 1042.41,1258.8" fill="none" id="AbortExecution-GMN67" style="stroke:#181818;stroke-width:1;stroke-dasharray:7,7;"/></g><!--link CleanupResources to GMN70--><g class="link" data-entity-1="CleanupResources" data-entity-2="GMN70" data-source-line="118" data-uid="lnk72" id="link_CleanupResources_GMN70"><path d="M1225.92,864.8 C1266.09,864.8 1320.23,864.8 1371.81,864.8" fill="none" id="CleanupResources-GMN70" style="stroke:#181818;stroke-width:1;stroke-dasharray:7,7;"/></g><!--link DetectTimeout to GMN73--><g class="link" data-entity-1="DetectTimeout" data-entity-2="GMN73" data-source-line="123" data-uid="lnk75" id="link_DetectTimeout_GMN73"><path d="M830.5,771.81 C910.37,771.81 1059.07,771.81 1059.07,771.81 C1059.07,771.81 1059.07,959.08 1059.07,1020.53" fill="none" id="DetectTimeout-GMN73" style="stroke:#181818;stroke-width:1;stroke-dasharray:7,7;"/></g><!--SRC=[ZLVRRXj737tNLmnIeB01kKtxM0G173i9UebXHqdwFDgbTgVPtTdCnR6IzjzxE9UzIJ8i68R49Jc7v24vQp-hhfT6jiAwVKFuRrJXVDkixF145awRLxBuN1djk_9ADzg87zw4pu6QDYMPfF8yV2OgbhvuwWfwHzRAYYuRLNMYeCwHcMYLj9E-SMzqvsva2qnarExuyutwHkANNoSF6zMHs_Saj76rNZMqSy9fOLHLEr4gGuLJkbkj0bhnx2ESFnFI2lwoMlM84i34ipilEwH1N2bJUEN4bMvx7NI_hmG-PwyVgF2EiiBvp-ma2PCiAcx8YHlVtlcjSlQSjI0P1EB52_ZkTghoHZ8oyVBbQFT1jQIzorRfvsCs3U8J6mSvLVjanx8iEceRZM-bSIg8VXGRrVe61i73y21BsSbcRnsrmydNvFZaAU0ecc0UJQBDEzqfBi8VUXlJbmJu7HNUKq7gdiJ7liIfCNb9baH7a7mmgA6uDReoO5cm2Q8iIOT_KlGLpYo8PEFfB4c259EoVIFtWrO8AifcUgyVUf1jO48a0eio3wBQvPQr8aMGp7Xe40wog7ZLaEnyp-TgRueKU98Emdde_wrMp61nSV5ooS91Fadl89i6FGWNe5PpXq5bnk7V68lgYiQNn62EwsScF4bxnjadM1noT6cq6iCF5WiYBTKNsZCAFUhxnRyN5uiCHdrwSDILGNsIzU1zpge3zqlr6RiEmHpc8fmnQyS3emLYjZXWtD9exl999gjE0q-SndftR61QlsqHrPSqW8iKvGw3OeiQS0ffrYzVbQj5aMOQbIBi0I0pLaWesymY6qZ5Lko3SIpHJ4aTN6FJO9s8phTRj0OqlaJ26-mnnMSngeHmdInmS0iZAsniJfDo8MJJw2BENCO5n0nDTJZh4K0fky7v4AHevGDgsuwP40vwM7wSEjKXLkYMDc9w3acfYa1ptmKTAXUcZq2OjcAiKDmokJ9zfflgAWHPQOE2jEBiJrbtQ_7xNxThyU7wykrQa2j-EWyUE7udJKLZdNDjppPt7ozlhb-_Fpy9wO3VmMTsKAfxLIBI30y9rYD6PC0opXW3ZVI8gRB9enKaYteq4_XR8kKWP8M1K0K3awReATIBvUPvsEej_jy7OzbSX1B-Wn5YdNG-idUiKf_t5rkx6bUngaR1iHx_fkr60vDZWdIHutpdIK1F8ffFmE3Nf8sROuI1sgd8MflwcDCtWLLBIpQJV-ihqUZAhWFu35dqPFYMXvlLIJ3p7HsyfVLxc0B0Cx7jnxp5dAKgrlfh12PGtSwcof-Xd5pyzOoowrnqV3_DkUNbG1O50-5g5RWQDXG09WvC4jMIj6ZO5j57Q82fh5D5B6_c58i9PfWdhNnqHXsvW1ZeWapnS85YIhulr3W6wP8jYl4AawSMjgy9IkjqsZtn5JYbB9HhOBliPBEtoiRvXlWCrOGyWXdtodhPg6-FevpVV_W0YfUat9NeKBxx0sU48O2qhpajPvjFRt5v5xStR-EmO0obBZpdC9oA-lbjarYvPbrUhGQO1-0dWHsvRuLEZ5CxTdvyYk9nTUyLiXbkRbllN38Pfxue6hmMyBiFvwtq9Wn1_4AgnZLr2iroNSRUpb24yLqOghaRmNzc7KNk68mmfdXUCBcIVT-eCEaLiwdPyoZW62yK1f2IFFHYG64Af-LjqP_IA7qwSxDb7qvgq_rzRD0olrHW1Ms75yQ4oplDt2wm1u49Vgj9tjd8zsaPCI1CE48VDvFnzJy0]--></g></svg>