<svg xmlns="http://www.w3.org/2000/svg" xmlns:xlink="http://www.w3.org/1999/xlink" contentStyleType="text/css" data-diagram-type="DESCRIPTION" height="1059px" preserveAspectRatio="none" style="width:555px;height:1059px;background:#FFFFFF;" version="1.1" viewBox="0 0 555 1059" width="555px" zoomAndPan="magnify"><defs/><g><!--cluster Quantum Circuit Composer--><g class="cluster" data-entity="Quantum Circuit Composer" data-source-line="13" data-uid="ent0003" id="cluster_Quantum Circuit Composer"><polygon fill="none" points="76.5,6,227.1621,6,234.1621,25.7988,505.35,25.7988,505.35,561,76.5,561,76.5,6" style="stroke:#000000;stroke-width:1.5;"/><line style="stroke:#000000;stroke-width:1.5;" x1="76.5" x2="234.1621" y1="25.7988" y2="25.7988"/><text fill="#000000" font-family="serif" font-size="12" font-weight="bold" lengthAdjust="spacing" textLength="144.6621" x="80.5" y="19.2031">Quantum Circuit Composer</text></g><!--entity Register--><g class="entity" data-entity="Register" data-source-line="14" data-uid="ent0004" id="entity_Register"><ellipse cx="155.2783" cy="59.0015" fill="#F1F1F1" rx="56.8983" ry="20.5715" style="stroke:#181818;stroke-width:0.5;"/><text fill="#000000" font-family="serif" font-size="12" font-style="italic" lengthAdjust="spacing" textLength="82.6523" x="113.9521" y="58.0202">&#171;Authentication&#187;</text><text fill="#000000" font-family="serif" font-size="12" lengthAdjust="spacing" textLength="39.9902" x="135.2832" y="71.8191">Register</text></g><!--entity Login--><g class="entity" data-entity="Login" data-source-line="15" data-uid="ent0005" id="entity_Login"><ellipse cx="155.2785" cy="135.0035" fill="#F1F1F1" rx="56.1685" ry="20.3335" style="stroke:#181818;stroke-width:0.5;"/><text fill="#000000" font-family="serif" font-size="12" font-style="italic" lengthAdjust="spacing" textLength="82.6523" x="113.9523" y="134.3966">&#171;Authentication&#187;</text><text fill="#000000" font-family="serif" font-size="12" lengthAdjust="spacing" textLength="28.6641" x="140.9464" y="148.1955">Login</text></g><!--entity Logout--><g class="entity" data-entity="Logout" data-source-line="16" data-uid="ent0006" id="entity_Logout"><ellipse cx="155.2833" cy="396.9992" fill="#F1F1F1" rx="56.5233" ry="20.4492" style="stroke:#181818;stroke-width:0.5;"/><text fill="#000000" font-family="serif" font-size="12" font-style="italic" lengthAdjust="spacing" textLength="82.6523" x="113.9571" y="396.2094">&#171;Authentication&#187;</text><text fill="#000000" font-family="serif" font-size="12" lengthAdjust="spacing" textLength="34.6641" x="137.9512" y="410.0082">Logout</text></g><!--entity AuthOAuth--><g class="entity" data-entity="AuthOAuth" data-source-line="17" data-uid="ent0007" id="entity_AuthOAuth"><ellipse cx="413.3414" cy="58.9974" fill="#F1F1F1" rx="76.0114" ry="20.5774" style="stroke:#181818;stroke-width:0.5;"/><text fill="#000000" font-family="serif" font-size="12" font-style="italic" lengthAdjust="spacing" textLength="45.3223" x="390.6803" y="52.5869">&#171;System&#187;</text><text fill="#000000" font-family="serif" font-size="12" lengthAdjust="spacing" textLength="114.6328" x="356.025" y="66.3857">Authenticate via OAuth</text></g><!--entity VerifyCredentials--><g class="entity" data-entity="VerifyCredentials" data-source-line="18" data-uid="ent0008" id="entity_VerifyCredentials"><ellipse cx="413.3435" cy="135.0001" fill="#F1F1F1" rx="60.3835" ry="20.8001" style="stroke:#181818;stroke-width:0.5;"/><text fill="#000000" font-family="serif" font-size="12" font-style="italic" lengthAdjust="spacing" textLength="45.3223" x="390.6824" y="128.9456">&#171;System&#187;</text><text fill="#000000" font-family="serif" font-size="12" lengthAdjust="spacing" textLength="88.9688" x="368.8592" y="142.7444">Verify Credentials</text></g><!--entity ViewProjects--><g class="entity" data-entity="ViewProjects" data-source-line="20" data-uid="ent0009" id="entity_ViewProjects"><ellipse cx="155.2793" cy="327.9999" fill="#F1F1F1" rx="56.4493" ry="13.6899" style="stroke:#181818;stroke-width:0.5;"/><text fill="#000000" font-family="serif" font-size="12" lengthAdjust="spacing" textLength="67.6523" x="121.4531" y="330.3036">View Projects</text><line style="stroke:#181818;stroke-width:0.5;" x1="207.2293" x2="192.6394" y1="323.2276" y2="337.8174"/></g><!--entity CreateProject--><g class="entity" data-entity="CreateProject" data-source-line="21" data-uid="ent0010" id="entity_CreateProject"><ellipse cx="155.2781" cy="203.9996" fill="#F1F1F1" rx="56.6981" ry="13.7396" style="stroke:#181818;stroke-width:0.5;"/><text fill="#000000" font-family="serif" font-size="12" lengthAdjust="spacing" textLength="68.3027" x="121.1267" y="206.3033">Create Project</text><line style="stroke:#181818;stroke-width:0.5;" x1="207.4571" x2="192.8174" y1="199.21" y2="213.8496"/></g><!--entity EditProject--><g class="entity" data-entity="EditProject" data-source-line="22" data-uid="ent0011" id="entity_EditProject"><ellipse cx="155.2763" cy="265.9993" fill="#F1F1F1" rx="52.4963" ry="12.8993" style="stroke:#181818;stroke-width:0.5;"/><text fill="#000000" font-family="serif" font-size="12" lengthAdjust="spacing" textLength="56.9883" x="126.7821" y="268.303">Edit Project</text><line style="stroke:#181818;stroke-width:0.5;" x1="203.5884" x2="189.7889" y1="261.5026" y2="275.3021"/></g><!--entity DeleteProject--><g class="entity" data-entity="DeleteProject" data-source-line="23" data-uid="ent0012" id="entity_DeleteProject"><ellipse cx="155.2781" cy="530.9996" fill="#F1F1F1" rx="56.6981" ry="13.7396" style="stroke:#181818;stroke-width:0.5;"/><text fill="#000000" font-family="serif" font-size="12" lengthAdjust="spacing" textLength="68.3027" x="121.1267" y="533.3033">Delete Project</text><line style="stroke:#181818;stroke-width:0.5;" x1="207.4571" x2="192.8174" y1="526.21" y2="540.8496"/></g><!--entity DuplicateProject--><g class="entity" data-entity="DuplicateProject" data-source-line="24" data-uid="ent0013" id="entity_DuplicateProject"><ellipse cx="155.2769" cy="466.9954" fill="#F1F1F1" rx="62.7769" ry="14.9554" style="stroke:#181818;stroke-width:0.5;"/><text fill="#000000" font-family="serif" font-size="12" lengthAdjust="spacing" textLength="83.6367" x="113.4586" y="469.2991">Duplicate Project</text><line style="stroke:#181818;stroke-width:0.5;" x1="213.0502" x2="197.1934" y1="461.7819" y2="477.6388"/></g><!--entity StoreProjectData--><g class="entity" data-entity="StoreProjectData" data-source-line="25" data-uid="ent0014" id="entity_StoreProjectData"><ellipse cx="413.3421" cy="266.003" fill="#F1F1F1" rx="59.7821" ry="20.813" style="stroke:#181818;stroke-width:0.5;"/><text fill="#000000" font-family="serif" font-size="12" font-style="italic" lengthAdjust="spacing" textLength="45.3223" x="390.681" y="259.9689">&#171;System&#187;</text><text fill="#000000" font-family="serif" font-size="12" lengthAdjust="spacing" textLength="87.9727" x="369.3558" y="273.7677">Store Project Data</text></g><!--entity DeleteProjectData--><g class="entity" data-entity="DeleteProjectData" data-source-line="26" data-uid="ent0015" id="entity_DeleteProjectData"><ellipse cx="413.3412" cy="521.0018" fill="#F1F1F1" rx="63.4012" ry="20.7418" style="stroke:#181818;stroke-width:0.5;"/><text fill="#000000" font-family="serif" font-size="12" font-style="italic" lengthAdjust="spacing" textLength="45.3223" x="390.6801" y="514.8548">&#171;System&#187;</text><text fill="#000000" font-family="serif" font-size="12" lengthAdjust="spacing" textLength="93.9551" x="366.3637" y="528.6536">Delete Project Data</text></g><!--entity User--><g class="entity" data-entity="User" data-source-line="11" data-uid="ent0002" id="entity_User"><ellipse cx="19" cy="268.6" fill="#FFFFFF" rx="8" ry="8" style="stroke:#000000;stroke-width:0.5;"/><path d="M19,276.6 L19,303.6 M6,284.6 L32,284.6 M19,303.6 L6,318.6 M19,303.6 L32,318.6" fill="none" style="stroke:#000000;stroke-width:0.5;"/><text fill="#000000" font-family="serif" font-size="12" lengthAdjust="spacing" textLength="22.6582" x="7.6709" y="331.3031">User</text></g><g class="entity" data-entity="GMN32" data-source-line="53" data-uid="ent0033" id="entity_GMN32"><path d="M278.05,577.2 L278.05,614.7977 L548.6125,614.7977 L548.6125,587.2 L538.6125,577.2 L278.05,577.2" fill="#FEFFDD" style="stroke:#181818;stroke-width:0.5;"/><path d="M538.6125,577.2 L538.6125,587.2 L548.6125,587.2 L538.6125,577.2" fill="#FEFFDD" style="stroke:#181818;stroke-width:1;"/><text fill="#000000" font-family="serif" font-size="12" lengthAdjust="spacing" textLength="249.5625" x="284.05" y="593.4031">create new account with email/password credentials</text><text fill="#000000" font-family="serif" font-size="12" lengthAdjust="spacing" textLength="247.5996" x="284.05" y="607.202">or OAuth-based authentication (Google, Microsoft)</text></g><g class="entity" data-entity="GMN35" data-source-line="58" data-uid="ent0036" id="entity_GMN35"><path d="M293.04,650.2 L293.04,687.7977 L533.6377,687.7977 L533.6377,660.2 L523.6377,650.2 L293.04,650.2" fill="#FEFFDD" style="stroke:#181818;stroke-width:0.5;"/><path d="M523.6377,650.2 L523.6377,660.2 L533.6377,660.2 L523.6377,650.2" fill="#FEFFDD" style="stroke:#181818;stroke-width:1;"/><text fill="#000000" font-family="serif" font-size="12" lengthAdjust="spacing" textLength="178.2832" x="299.04" y="666.4031">authenticate using email/password or</text><text fill="#000000" font-family="serif" font-size="12" lengthAdjust="spacing" textLength="219.5977" x="299.04" y="680.202">OAuth provider credentials for session access</text></g><g class="entity" data-entity="GMN38" data-source-line="63" data-uid="ent0039" id="entity_GMN38"><path d="M296.54,869.2 L296.54,906.7977 L530.1298,906.7977 L530.1298,879.2 L520.1298,869.2 L296.54,869.2" fill="#FEFFDD" style="stroke:#181818;stroke-width:0.5;"/><path d="M520.1298,869.2 L520.1298,879.2 L530.1298,879.2 L520.1298,869.2" fill="#FEFFDD" style="stroke:#181818;stroke-width:1;"/><text fill="#000000" font-family="serif" font-size="12" lengthAdjust="spacing" textLength="212.5898" x="302.54" y="885.4031">retrieve and display all user-owned projects,</text><text fill="#000000" font-family="serif" font-size="12" lengthAdjust="spacing" textLength="190.2773" x="302.54" y="899.202">sorted by most recent modification date</text></g><g class="entity" data-entity="GMN41" data-source-line="68" data-uid="ent0042" id="entity_GMN41"><path d="M305.37,723.2 L305.37,760.7977 L521.2938,760.7977 L521.2938,733.2 L511.2938,723.2 L305.37,723.2" fill="#FEFFDD" style="stroke:#181818;stroke-width:0.5;"/><path d="M511.2938,723.2 L511.2938,733.2 L521.2938,733.2 L511.2938,723.2" fill="#FEFFDD" style="stroke:#181818;stroke-width:1;"/><text fill="#000000" font-family="serif" font-size="12" lengthAdjust="spacing" textLength="194.9238" x="311.37" y="739.4031">initialize new project with user metadata</text><text fill="#000000" font-family="serif" font-size="12" lengthAdjust="spacing" textLength="185.6074" x="311.37" y="753.202">and empty circuit collection for design</text></g><g class="entity" data-entity="GMN44" data-source-line="73" data-uid="ent0045" id="entity_GMN44"><path d="M299.7,796.2 L299.7,833.7977 L526.9734,833.7977 L526.9734,806.2 L516.9734,796.2 L299.7,796.2" fill="#FEFFDD" style="stroke:#181818;stroke-width:0.5;"/><path d="M516.9734,796.2 L516.9734,806.2 L526.9734,806.2 L516.9734,796.2" fill="#FEFFDD" style="stroke:#181818;stroke-width:1;"/><text fill="#000000" font-family="serif" font-size="12" lengthAdjust="spacing" textLength="194.9238" x="305.7" y="812.4031">update project metadata including name,</text><text fill="#000000" font-family="serif" font-size="12" lengthAdjust="spacing" textLength="206.2734" x="305.7" y="826.202">description, and other configuration details</text></g><g class="entity" data-entity="GMN47" data-source-line="78" data-uid="ent0048" id="entity_GMN47"><path d="M302.86,1015.2 L302.86,1052.7977 L523.8112,1052.7977 L523.8112,1025.2 L513.8112,1015.2 L302.86,1015.2" fill="#FEFFDD" style="stroke:#181818;stroke-width:0.5;"/><path d="M513.8112,1015.2 L513.8112,1025.2 L523.8112,1025.2 L513.8112,1015.2" fill="#FEFFDD" style="stroke:#181818;stroke-width:1;"/><text fill="#000000" font-family="serif" font-size="12" lengthAdjust="spacing" textLength="197.9355" x="308.86" y="1031.4031">permanently remove project from system</text><text fill="#000000" font-family="serif" font-size="12" lengthAdjust="spacing" textLength="199.9512" x="308.86" y="1045.202">along with all associated circuits and jobs</text></g><g class="entity" data-entity="GMN50" data-source-line="83" data-uid="ent0051" id="entity_GMN50"><path d="M303.88,942.2 L303.88,979.7977 L522.798,979.7977 L522.798,952.2 L512.798,942.2 L303.88,942.2" fill="#FEFFDD" style="stroke:#181818;stroke-width:0.5;"/><path d="M512.798,942.2 L512.798,952.2 L522.798,952.2 L512.798,942.2" fill="#FEFFDD" style="stroke:#181818;stroke-width:1;"/><text fill="#000000" font-family="serif" font-size="12" lengthAdjust="spacing" textLength="197.918" x="309.88" y="958.4031">create new project by copying all circuits</text><text fill="#000000" font-family="serif" font-size="12" lengthAdjust="spacing" textLength="181.5996" x="309.88" y="972.202">and metadata from an existing project</text></g><!--link User to Register--><g class="link" data-entity-1="User" data-entity-2="Register" data-source-line="29" data-uid="lnk16" id="link_User_Register"><path d="M12.62,259.81 C12.62,192.88 12.62,59 12.62,59 C12.62,59 52.38,59 92.07,59" fill="none" id="User-to-Register" style="stroke:#181818;stroke-width:1;"/><polygon fill="#181818" points="98.07,59,89.07,55,93.07,59,89.07,63,98.07,59" style="stroke:#181818;stroke-width:1;"/></g><!--link User to Login--><g class="link" data-entity-1="User" data-entity-2="Login" data-source-line="30" data-uid="lnk17" id="link_User_Login"><path d="M18.62,259.84 C18.62,212.01 18.62,135 18.62,135 C18.62,135 55.26,135 92.9,135" fill="none" id="User-to-Login" style="stroke:#181818;stroke-width:1;"/><polygon fill="#181818" points="98.9,135,89.9,131,93.9,135,89.9,139,98.9,135" style="stroke:#181818;stroke-width:1;"/></g><!--link User to Logout--><g class="link" data-entity-1="User" data-entity-2="Logout" data-source-line="31" data-uid="lnk18" id="link_User_Logout"><path d="M25.62,334.24 C25.62,362.67 25.62,397 25.62,397 C25.62,397 57.57,397 92.41,397" fill="none" id="User-to-Logout" style="stroke:#181818;stroke-width:1;"/><polygon fill="#181818" points="98.41,397,89.41,393,93.41,397,89.41,401,98.41,397" style="stroke:#181818;stroke-width:1;"/></g><!--link User to ViewProjects--><g class="link" data-entity-1="User" data-entity-2="ViewProjects" data-source-line="32" data-uid="lnk19" id="link_User_ViewProjects"><path d="M32.82,324.11 C48.79,324.11 70.05,324.11 94.81,324.11" fill="none" id="User-to-ViewProjects" style="stroke:#181818;stroke-width:1;"/><polygon fill="#181818" points="100.81,324.11,91.81,320.11,95.81,324.11,91.81,328.11,100.81,324.11" style="stroke:#181818;stroke-width:1;"/></g><!--link User to CreateProject--><g class="link" data-entity-1="User" data-entity-2="CreateProject" data-source-line="33" data-uid="lnk20" id="link_User_CreateProject"><path d="M25.62,259.71 C25.62,233.84 25.62,204 25.62,204 C25.62,204 57.57,204 92.41,204" fill="none" id="User-to-CreateProject" style="stroke:#181818;stroke-width:1;"/><polygon fill="#181818" points="98.41,204,89.41,200,93.41,204,89.41,208,98.41,204" style="stroke:#181818;stroke-width:1;"/></g><!--link User to EditProject--><g class="link" data-entity-1="User" data-entity-2="EditProject" data-source-line="34" data-uid="lnk21" id="link_User_EditProject"><path d="M32.82,269.5 C49.53,269.5 72.62,269.5 98.25,269.5" fill="none" id="User-to-EditProject" style="stroke:#181818;stroke-width:1;"/><polygon fill="#181818" points="104.25,269.5,95.25,265.5,99.25,269.5,95.25,273.5,104.25,269.5" style="stroke:#181818;stroke-width:1;"/></g><!--link User to DeleteProject--><g class="link" data-entity-1="User" data-entity-2="DeleteProject" data-source-line="35" data-uid="lnk22" id="link_User_DeleteProject"><path d="M12.62,334.34 C12.62,400.4 12.62,531 12.62,531 C12.62,531 52.7,531 92.48,531" fill="none" id="User-to-DeleteProject" style="stroke:#181818;stroke-width:1;"/><polygon fill="#181818" points="98.48,531,89.48,527,93.48,531,89.48,535,98.48,531" style="stroke:#181818;stroke-width:1;"/></g><!--link User to DuplicateProject--><g class="link" data-entity-1="User" data-entity-2="DuplicateProject" data-source-line="36" data-uid="lnk23" id="link_User_DuplicateProject"><path d="M18.62,334.31 C18.62,384.35 18.62,467 18.62,467 C18.62,467 50.34,467 86.15,467" fill="none" id="User-to-DuplicateProject" style="stroke:#181818;stroke-width:1;"/><polygon fill="#181818" points="92.15,467,83.15,463,87.15,467,83.15,471,92.15,467" style="stroke:#181818;stroke-width:1;"/></g><!--reverse link Register to AuthOAuth--><g class="link" data-entity-1="Register" data-entity-2="AuthOAuth" data-source-line="38" data-uid="lnk24" id="link_Register_AuthOAuth"><path d="M223.34,48.72 C263.65,48.72 302.66,48.72 346.8,48.72" fill="none" id="Register-backto-AuthOAuth" style="stroke:#181818;stroke-width:1;"/><polygon fill="none" points="205.34,48.72,223.34,54.72,223.34,42.72,205.34,48.72" style="stroke:#181818;stroke-width:1;"/><text fill="#000000" font-family="serif" font-size="12" lengthAdjust="spacing" textLength="43.9863" x="232.07" y="60.9231">&#171;extend&#187;</text></g><!--link Register to VerifyCredentials--><g class="link" data-entity-1="Register" data-entity-2="VerifyCredentials" data-source-line="39" data-uid="lnk25" id="link_Register_VerifyCredentials"><path d="M205.1,69.29 C235.91,69.29 269.62,69.29 269.62,69.29 C269.62,69.29 269.62,122.8 269.62,122.8 C269.62,122.8 315.96,122.8 357.47,122.8" fill="none" id="Register-to-VerifyCredentials" style="stroke:#181818;stroke-width:1;"/><polygon fill="#181818" points="363.47,122.8,354.47,118.8,358.47,122.8,354.47,126.8,363.47,122.8" style="stroke:#181818;stroke-width:1;"/><text fill="#000000" font-family="serif" font-size="12" lengthAdjust="spacing" textLength="47.3203" x="221.62" y="122.9131">&#171;include&#187;</text></g><!--reverse link Login to AuthOAuth--><g class="link" data-entity-1="Login" data-entity-2="AuthOAuth" data-source-line="41" data-uid="lnk26" id="link_Login_AuthOAuth"><path d="M228.77,130.93 C284.32,130.93 343.62,130.93 343.62,130.93 C343.62,130.93 343.62,86.59 343.62,67.54" fill="none" id="Login-backto-AuthOAuth" style="stroke:#181818;stroke-width:1;"/><polygon fill="none" points="210.77,130.93,228.77,136.93,228.77,124.93,210.77,130.93" style="stroke:#181818;stroke-width:1;"/><text fill="#000000" font-family="serif" font-size="12" lengthAdjust="spacing" textLength="43.9863" x="264.89" y="143.1331">&#171;extend&#187;</text></g><!--link Login to VerifyCredentials--><g class="link" data-entity-1="Login" data-entity-2="VerifyCredentials" data-source-line="42" data-uid="lnk27" id="link_Login_VerifyCredentials"><path d="M210.64,139.07 C252.84,139.07 304.87,139.07 348.02,139.07" fill="none" id="Login-to-VerifyCredentials" style="stroke:#181818;stroke-width:1;"/><polygon fill="#181818" points="354.02,139.07,345.02,135.07,349.02,139.07,345.02,143.07,354.02,139.07" style="stroke:#181818;stroke-width:1;"/><text fill="#000000" font-family="serif" font-size="12" lengthAdjust="spacing" textLength="47.3203" x="234.33" y="151.2731">&#171;include&#187;</text></g><!--link CreateProject to StoreProjectData--><g class="link" data-entity-1="CreateProject" data-entity-2="StoreProjectData" data-source-line="44" data-uid="lnk28" id="link_CreateProject_StoreProjectData"><path d="M155.62,217.79 C155.62,231.07 155.62,249.15 155.62,249.15 C155.62,249.15 299.53,249.15 370.68,249.15" fill="none" id="CreateProject-to-StoreProjectData" style="stroke:#181818;stroke-width:1;"/><polygon fill="#181818" points="376.68,249.15,367.68,245.15,371.68,249.15,367.68,253.15,376.68,249.15" style="stroke:#181818;stroke-width:1;"/><text fill="#000000" font-family="serif" font-size="12" lengthAdjust="spacing" textLength="47.3203" x="202.47" y="246.3531">&#171;include&#187;</text></g><!--link EditProject to StoreProjectData--><g class="link" data-entity-1="EditProject" data-entity-2="StoreProjectData" data-source-line="46" data-uid="lnk29" id="link_EditProject_StoreProjectData"><path d="M205.34,261.7 C247.99,261.7 303.35,261.7 348.37,261.7" fill="none" id="EditProject-to-StoreProjectData" style="stroke:#181818;stroke-width:1;"/><polygon fill="#181818" points="354.37,261.7,345.37,257.7,349.37,261.7,345.37,265.7,354.37,261.7" style="stroke:#181818;stroke-width:1;"/><text fill="#000000" font-family="serif" font-size="12" lengthAdjust="spacing" textLength="47.3203" x="231.86" y="273.9031">&#171;include&#187;</text></g><!--link DeleteProject to DeleteProjectData--><g class="link" data-entity-1="DeleteProject" data-entity-2="DeleteProjectData" data-source-line="48" data-uid="lnk30" id="link_DeleteProject_DeleteProjectData"><path d="M211.91,529.5 C254.34,529.5 306.22,529.5 349.05,529.5" fill="none" id="DeleteProject-to-DeleteProjectData" style="stroke:#181818;stroke-width:1;"/><polygon fill="#181818" points="355.05,529.5,346.05,525.5,350.05,529.5,346.05,533.5,355.05,529.5" style="stroke:#181818;stroke-width:1;"/><text fill="#000000" font-family="serif" font-size="12" lengthAdjust="spacing" textLength="47.3203" x="235.48" y="541.7031">&#171;include&#187;</text></g><!--link DuplicateProject to StoreProjectData--><g class="link" data-entity-1="DuplicateProject" data-entity-2="StoreProjectData" data-source-line="50" data-uid="lnk31" id="link_DuplicateProject_StoreProjectData"><path d="M214.87,462.02 C291.16,462.02 413.62,462.02 413.62,462.02 C413.62,462.02 413.62,343.54 413.62,292.98" fill="none" id="DuplicateProject-to-StoreProjectData" style="stroke:#181818;stroke-width:1;"/><polygon fill="#181818" points="413.62,286.98,409.62,295.98,413.62,291.98,417.62,295.98,413.62,286.98" style="stroke:#181818;stroke-width:1;"/><text fill="#000000" font-family="serif" font-size="12" lengthAdjust="spacing" textLength="47.3203" x="353.76" y="474.2231">&#171;include&#187;</text></g><!--link Register to GMN32--><g class="link" data-entity-1="Register" data-entity-2="GMN32" data-source-line="53" data-uid="lnk34" id="link_Register_GMN32"><path d="M212.44,59 C255.66,59 307.62,59 307.62,59 C307.62,59 307.62,481.23 307.62,576.89" fill="none" id="Register-GMN32" style="stroke:#181818;stroke-width:1;stroke-dasharray:7,7;"/></g><!--link Login to GMN35--><g class="link" data-entity-1="Login" data-entity-2="GMN35" data-source-line="58" data-uid="lnk37" id="link_Login_GMN35"><path d="M201.17,147.2 C229.56,147.2 260.62,147.2 260.62,147.2 C260.62,147.2 260.62,669 260.62,669 C260.62,669 273.9,669 292.63,669" fill="none" id="Login-GMN35" style="stroke:#181818;stroke-width:1;stroke-dasharray:7,7;"/></g><!--link ViewProjects to GMN38--><g class="link" data-entity-1="ViewProjects" data-entity-2="GMN38" data-source-line="63" data-uid="lnk40" id="link_ViewProjects_GMN38"><path d="M211.95,328 C225.24,328 235.62,328 235.62,328 C235.62,328 235.62,888 235.62,888 C235.62,888 263.01,888 296.28,888" fill="none" id="ViewProjects-GMN38" style="stroke:#181818;stroke-width:1;stroke-dasharray:7,7;"/></g><!--link CreateProject to GMN41--><g class="link" data-entity-1="CreateProject" data-entity-2="GMN41" data-source-line="68" data-uid="lnk43" id="link_CreateProject_GMN41"><path d="M212.46,204 C233.65,204 252.62,204 252.62,204 C252.62,204 252.62,742 252.62,742 C252.62,742 276.17,742 305.24,742" fill="none" id="CreateProject-GMN41" style="stroke:#181818;stroke-width:1;stroke-dasharray:7,7;"/></g><!--link EditProject to GMN44--><g class="link" data-entity-1="EditProject" data-entity-2="GMN44" data-source-line="73" data-uid="lnk46" id="link_EditProject_GMN44"><path d="M205.38,270.3 C225.32,270.3 243.62,270.3 243.62,270.3 C243.62,270.3 243.62,815 243.62,815 C243.62,815 268.74,815 299.66,815" fill="none" id="EditProject-GMN44" style="stroke:#181818;stroke-width:1;stroke-dasharray:7,7;"/></g><!--link DeleteProject to GMN47--><g class="link" data-entity-1="DeleteProject" data-entity-2="GMN47" data-source-line="78" data-uid="lnk49" id="link_DeleteProject_GMN47"><path d="M155.62,544.98 C155.62,626.22 155.62,1034 155.62,1034 C155.62,1034 232.69,1034 302.54,1034" fill="none" id="DeleteProject-GMN47" style="stroke:#181818;stroke-width:1;stroke-dasharray:7,7;"/></g><!--link DuplicateProject to GMN50--><g class="link" data-entity-1="DuplicateProject" data-entity-2="GMN50" data-source-line="83" data-uid="lnk52" id="link_DuplicateProject_GMN50"><path d="M215.15,471.99 C222.02,471.99 226.62,471.99 226.62,471.99 C226.62,471.99 226.62,961 226.62,961 C226.62,961 263,961 303.64,961" fill="none" id="DuplicateProject-GMN50" style="stroke:#181818;stroke-width:1;stroke-dasharray:7,7;"/></g><!--SRC=[ZLLDSzGm3BtdLsZAXSvqfy2HOJfJji25xmxSNKT9NHmhs4vB-FZlI7QIJJRTJdFOSRHFqjEJ8eSVnhNAgmP2x2tohpSwTeqjmlIFqf7yQwL_r9uwLsx9aeSdRzEpWf4lqG-GP-cPGGB-xD1f_80Xg1hFhQaTQ7GH_GnLOgKw6z-IYnzLmvpGc-h-_o_DRuJdBsP_MkCmzYq2-NXDXSKgGYJmfhwEK1gFEXfoHP7Omj4t3du4Ae0SYgBbAfaO77tfb6CPO6kyxao4BJKj9UoV0lXv-XLh4vZtiJYFB_3g5PntyPehCbf98ZWxo_ZtL1kNmEdqC9AwE4Bv-01sPaQuDGe-YINvoY6zYVjbp_IQoUsxADh3rcCftig6v9BDC-lITV0rU0UVFTsmak7uDFcnQRHa4CSGHeCnex9jC6NOcvAbNO34ie1SeCNzIDcsX7MjpIeiaQDv0Rxaraz0k51HfVAJUR2AyHxXbcnshWj6Qzz_HI7p1PlDsJGhEqiQYCKhDtttlb1tiYxLdCnp_IRZKg-TUL-SOZV7VpURsGIzb7BmLqHNIZaJBD5R3Kr26wTjLsAQcs7Y7uoPCOyCk2W-EQrwj_APAVD8ZuLiQo4FEEs9-iXSZdYiyfAYQZSZCdGwVqkEFpkbDM_W27U61SH66NlQgX3kUEaAR1GikV5sIq9lhbJ04jHoWJnzHrHRF84FHdiALCNZGZeXFFRPvFcKc6g-RhfWNBtFWZBdtEBMqwtXws3E3Iec5dZ_2mkkXqy74w_sYaU-dl0MGR57QK9hLG_AMkQ2VaDtZWjj1uUJv17u6c3ZLGyDXSW1vBRXSscgKOgIYpb8ORsqZ3DIY5myqf8XNMw9q806e-AOAYl6SR5fOmzwk4aqMPileIH5YO4lmOFvz_TXrmhTAUkOQvWbQOZZApFNpg6rDwsaEab4YBl7pI1NcRhpG_KSmTZ3FLZlsXPzenpBQ7lMiw7R7PtA4r_oQUtbwYqneoIDT8c7XBHHqf11ZP1utT3L0mJkM-6pRsBCpItMrFOYWUGQ4qnTcAHA99NZtSFVcC2723i6_m40]--></g></svg>